<mxfile host="Electron" modified="2024-10-17T14:14:18.690Z" agent="Mozilla/5.0 (Macintosh; Intel Mac OS X 10_15_7) AppleWebKit/537.36 (KHTML, like Gecko) draw.io/23.0.2 Chrome/120.0.6099.109 Electron/28.1.0 Safari/537.36" etag="o-S-UDQx6TX-N5-eYSzF" version="23.0.2" type="device">
  <diagram name="Page-1" id="Rla-s8YwGuarXI6IGTHf">
    <mxGraphModel dx="578" dy="384" grid="1" gridSize="10" guides="1" tooltips="1" connect="1" arrows="1" fold="1" page="1" pageScale="1" pageWidth="3000" pageHeight="3000" math="0" shadow="0">
      <root>
        <mxCell id="0" />
        <mxCell id="1" parent="0" />
        <mxCell id="8pIL7bb8HOB02kKPxIAk-1" value="" style="rounded=1;whiteSpace=wrap;html=1;fontSize=14;" parent="1" vertex="1">
          <mxGeometry x="1000" y="418.99" width="960" height="110" as="geometry" />
        </mxCell>
        <mxCell id="8pIL7bb8HOB02kKPxIAk-2" value="Data Team" style="text;html=1;strokeColor=none;fillColor=default;align=center;verticalAlign=middle;whiteSpace=wrap;rounded=0;fontStyle=1;fontSize=14;" parent="1" vertex="1">
          <mxGeometry x="1463.0000000000002" y="408.9900000000001" width="73.75" height="20" as="geometry" />
        </mxCell>
        <mxCell id="bA_C_CA7xueAo-WzbrrJ-223" style="edgeStyle=orthogonalEdgeStyle;rounded=0;orthogonalLoop=1;jettySize=auto;html=1;exitX=1;exitY=0.5;exitDx=0;exitDy=0;" edge="1" parent="1" source="8pIL7bb8HOB02kKPxIAk-50">
          <mxGeometry relative="1" as="geometry">
            <mxPoint x="1260" y="721.7272727272725" as="targetPoint" />
          </mxGeometry>
        </mxCell>
        <mxCell id="8pIL7bb8HOB02kKPxIAk-50" value="" style="rounded=1;whiteSpace=wrap;html=1;fontSize=14;" parent="1" vertex="1">
          <mxGeometry x="792" y="571.6700000000001" width="435" height="300" as="geometry" />
        </mxCell>
        <mxCell id="8pIL7bb8HOB02kKPxIAk-51" value="Crypto Selection Team" style="text;html=1;strokeColor=none;fillColor=default;align=center;verticalAlign=middle;whiteSpace=wrap;rounded=0;fontStyle=1;fontSize=14;" parent="1" vertex="1">
          <mxGeometry x="923.0300000000001" y="560.0000000000001" width="160.94" height="20" as="geometry" />
        </mxCell>
        <mxCell id="8pIL7bb8HOB02kKPxIAk-90" value="" style="sketch=0;outlineConnect=0;fillColor=#f0a30a;strokeColor=#BD7000;dashed=0;verticalLabelPosition=bottom;verticalAlign=top;align=center;html=1;fontSize=14;fontStyle=0;aspect=fixed;pointerEvents=1;shape=mxgraph.aws4.waf_bot;fontColor=#000000;" parent="1" vertex="1">
          <mxGeometry x="883.33" y="718.6899999999998" width="40" height="40" as="geometry" />
        </mxCell>
        <mxCell id="8pIL7bb8HOB02kKPxIAk-91" value="" style="group" parent="1" vertex="1" connectable="0">
          <mxGeometry x="804.9999999999997" y="713.6899999999998" width="40" height="50" as="geometry" />
        </mxCell>
        <mxCell id="8pIL7bb8HOB02kKPxIAk-92" value="" style="shape=note;whiteSpace=wrap;html=1;backgroundOutline=1;darkOpacity=0.05;size=11;strokeWidth=2;fillColor=#fff2cc;strokeColor=#d6b656;fontSize=14;" parent="8pIL7bb8HOB02kKPxIAk-91" vertex="1">
          <mxGeometry width="40" height="50" as="geometry" />
        </mxCell>
        <mxCell id="8pIL7bb8HOB02kKPxIAk-93" value="" style="group;fontSize=14;" parent="8pIL7bb8HOB02kKPxIAk-91" vertex="1" connectable="0">
          <mxGeometry x="10" y="12" width="20" height="30" as="geometry" />
        </mxCell>
        <mxCell id="8pIL7bb8HOB02kKPxIAk-94" value="" style="line;strokeWidth=2;html=1;container=0;opacity=50;fontSize=14;" parent="8pIL7bb8HOB02kKPxIAk-93" vertex="1">
          <mxGeometry width="15" height="10" as="geometry" />
        </mxCell>
        <mxCell id="8pIL7bb8HOB02kKPxIAk-95" value="" style="line;strokeWidth=2;html=1;container=0;opacity=50;fontSize=14;" parent="8pIL7bb8HOB02kKPxIAk-93" vertex="1">
          <mxGeometry y="9" width="20" height="10" as="geometry" />
        </mxCell>
        <mxCell id="8pIL7bb8HOB02kKPxIAk-96" value="" style="line;strokeWidth=2;html=1;container=0;opacity=50;fontSize=14;" parent="8pIL7bb8HOB02kKPxIAk-93" vertex="1">
          <mxGeometry y="18" width="15" height="10" as="geometry" />
        </mxCell>
        <mxCell id="8pIL7bb8HOB02kKPxIAk-110" value="" style="group" parent="1" vertex="1" connectable="0">
          <mxGeometry x="806.1999999999997" y="788.69" width="40" height="50" as="geometry" />
        </mxCell>
        <mxCell id="8pIL7bb8HOB02kKPxIAk-105" value="" style="shape=note;whiteSpace=wrap;html=1;backgroundOutline=1;darkOpacity=0.05;size=11;strokeWidth=2;fillColor=#dae8fc;strokeColor=#6c8ebf;fontSize=14;" parent="8pIL7bb8HOB02kKPxIAk-110" vertex="1">
          <mxGeometry width="40" height="50" as="geometry" />
        </mxCell>
        <mxCell id="8pIL7bb8HOB02kKPxIAk-106" value="" style="group;fontSize=14;" parent="8pIL7bb8HOB02kKPxIAk-110" vertex="1" connectable="0">
          <mxGeometry x="10" y="12" width="20" height="28" as="geometry" />
        </mxCell>
        <mxCell id="8pIL7bb8HOB02kKPxIAk-107" value="" style="line;strokeWidth=2;html=1;container=0;opacity=50;fontSize=14;" parent="8pIL7bb8HOB02kKPxIAk-106" vertex="1">
          <mxGeometry width="15" height="10" as="geometry" />
        </mxCell>
        <mxCell id="8pIL7bb8HOB02kKPxIAk-108" value="" style="line;strokeWidth=2;html=1;container=0;opacity=50;fontSize=14;" parent="8pIL7bb8HOB02kKPxIAk-106" vertex="1">
          <mxGeometry y="9" width="20" height="10" as="geometry" />
        </mxCell>
        <mxCell id="8pIL7bb8HOB02kKPxIAk-109" value="" style="line;strokeWidth=2;html=1;container=0;opacity=50;fontSize=14;" parent="8pIL7bb8HOB02kKPxIAk-106" vertex="1">
          <mxGeometry y="18" width="15" height="10" as="geometry" />
        </mxCell>
        <mxCell id="8pIL7bb8HOB02kKPxIAk-111" value="" style="sketch=0;outlineConnect=0;gradientColor=#7ea6e0;fillColor=#dae8fc;strokeColor=#6c8ebf;dashed=0;verticalLabelPosition=bottom;verticalAlign=top;align=center;html=1;fontSize=14;fontStyle=0;aspect=fixed;pointerEvents=1;shape=mxgraph.aws4.waf_bot;" parent="1" vertex="1">
          <mxGeometry x="883.33" y="793.69" width="40" height="40" as="geometry" />
        </mxCell>
        <mxCell id="8pIL7bb8HOB02kKPxIAk-113" value="" style="endArrow=none;dashed=1;html=1;dashPattern=1 3;strokeWidth=2;rounded=0;fontSize=14;" parent="1" edge="1">
          <mxGeometry width="50" height="50" relative="1" as="geometry">
            <mxPoint x="824.4999999999997" y="783.69" as="sourcePoint" />
            <mxPoint x="824.4999999999997" y="763.69" as="targetPoint" />
          </mxGeometry>
        </mxCell>
        <mxCell id="8pIL7bb8HOB02kKPxIAk-114" value="" style="endArrow=none;dashed=1;html=1;dashPattern=1 3;strokeWidth=2;rounded=0;fontSize=14;" parent="1" edge="1">
          <mxGeometry width="50" height="50" relative="1" as="geometry">
            <mxPoint x="904.2599999999999" y="783.69" as="sourcePoint" />
            <mxPoint x="904.2599999999999" y="763.69" as="targetPoint" />
          </mxGeometry>
        </mxCell>
        <mxCell id="8pIL7bb8HOB02kKPxIAk-131" value="Prompt" style="text;html=1;strokeColor=none;fillColor=none;align=center;verticalAlign=middle;whiteSpace=wrap;rounded=0;fontSize=14;" parent="1" vertex="1">
          <mxGeometry x="799.9999999999997" y="685.6899999999998" width="50" height="20" as="geometry" />
        </mxCell>
        <mxCell id="8pIL7bb8HOB02kKPxIAk-132" value="Prompt" style="text;html=1;strokeColor=none;fillColor=none;align=center;verticalAlign=middle;whiteSpace=wrap;rounded=0;fontSize=14;" parent="1" vertex="1">
          <mxGeometry x="799.9999999999997" y="848.69" width="50" height="20" as="geometry" />
        </mxCell>
        <mxCell id="8pIL7bb8HOB02kKPxIAk-133" value="Momentum Strategy Agent" style="text;html=1;strokeColor=none;fillColor=none;align=center;verticalAlign=middle;whiteSpace=wrap;rounded=0;fontSize=14;" parent="1" vertex="1">
          <mxGeometry x="845.4" y="678.53" width="126.18" height="20" as="geometry" />
        </mxCell>
        <mxCell id="8pIL7bb8HOB02kKPxIAk-134" value="Sentiment Strategy Agent" style="text;html=1;strokeColor=none;fillColor=none;align=center;verticalAlign=middle;whiteSpace=wrap;rounded=0;fontSize=14;" parent="1" vertex="1">
          <mxGeometry x="852.6999999999998" y="844.69" width="118.88" height="20" as="geometry" />
        </mxCell>
        <mxCell id="I_BGdHNlwkZM-n6bZFzo-19" style="edgeStyle=orthogonalEdgeStyle;rounded=0;orthogonalLoop=1;jettySize=auto;html=1;dashed=1;" parent="1" source="8pIL7bb8HOB02kKPxIAk-138" target="8pIL7bb8HOB02kKPxIAk-184" edge="1">
          <mxGeometry relative="1" as="geometry" />
        </mxCell>
        <mxCell id="8pIL7bb8HOB02kKPxIAk-138" value="" style="shape=mxgraph.mockup.containers.marginRect;rectMarginTop=10;strokeColor=#666666;strokeWidth=1;dashed=0;rounded=1;arcSize=5;recursiveResize=0;html=1;whiteSpace=wrap;" parent="1" vertex="1">
          <mxGeometry x="1000" y="606.3399999999999" width="92.5" height="50" as="geometry" />
        </mxCell>
        <mxCell id="8pIL7bb8HOB02kKPxIAk-139" value="&lt;font style=&quot;font-size: 14px;&quot;&gt;Very High&lt;/font&gt;" style="shape=rect;strokeColor=none;fillColor=#000000;strokeWidth=1;dashed=0;rounded=1;arcSize=20;fontColor=#ffffff;fontSize=14;spacing=2;spacingTop=-2;align=center;autosize=1;spacingLeft=4;resizeWidth=0;resizeHeight=0;perimeter=none;html=1;whiteSpace=wrap;" parent="8pIL7bb8HOB02kKPxIAk-138" vertex="1">
          <mxGeometry x="11.25" y="2" width="70" height="16" as="geometry" />
        </mxCell>
        <mxCell id="8pIL7bb8HOB02kKPxIAk-172" value="" style="verticalLabelPosition=bottom;verticalAlign=top;html=1;shape=mxgraph.basic.tick;fillColor=#000000;" parent="8pIL7bb8HOB02kKPxIAk-138" vertex="1">
          <mxGeometry x="7.189999999999941" y="23" width="20" height="20" as="geometry" />
        </mxCell>
        <mxCell id="8pIL7bb8HOB02kKPxIAk-174" value="" style="verticalLabelPosition=bottom;verticalAlign=top;html=1;shape=mxgraph.basic.tick;fillColor=#000000;" parent="8pIL7bb8HOB02kKPxIAk-138" vertex="1">
          <mxGeometry x="36.249999999999886" y="23" width="20" height="20" as="geometry" />
        </mxCell>
        <mxCell id="8pIL7bb8HOB02kKPxIAk-175" value="" style="verticalLabelPosition=bottom;verticalAlign=top;html=1;shape=mxgraph.basic.tick;fillColor=#000000;" parent="8pIL7bb8HOB02kKPxIAk-138" vertex="1">
          <mxGeometry x="61.249999999999886" y="23" width="20" height="20" as="geometry" />
        </mxCell>
        <mxCell id="8pIL7bb8HOB02kKPxIAk-144" value="" style="shape=mxgraph.mockup.containers.marginRect;rectMarginTop=10;strokeColor=#666666;strokeWidth=1;dashed=0;rounded=1;arcSize=5;recursiveResize=0;html=1;whiteSpace=wrap;" parent="1" vertex="1">
          <mxGeometry x="1000" y="659.1799999999998" width="92.5" height="50" as="geometry" />
        </mxCell>
        <mxCell id="8pIL7bb8HOB02kKPxIAk-145" value="&lt;font style=&quot;font-size: 14px;&quot;&gt;High&lt;/font&gt;" style="shape=rect;strokeColor=none;fillColor=#000000;strokeWidth=1;dashed=0;rounded=1;arcSize=20;fontColor=#ffffff;fontSize=14;spacing=2;spacingTop=-2;align=center;autosize=1;spacingLeft=4;resizeWidth=0;resizeHeight=0;perimeter=none;html=1;whiteSpace=wrap;" parent="8pIL7bb8HOB02kKPxIAk-144" vertex="1">
          <mxGeometry x="27" width="38.5" height="20" as="geometry" />
        </mxCell>
        <mxCell id="8pIL7bb8HOB02kKPxIAk-176" value="" style="verticalLabelPosition=bottom;verticalAlign=top;html=1;shape=mxgraph.basic.tick;fillColor=#000000;" parent="8pIL7bb8HOB02kKPxIAk-144" vertex="1">
          <mxGeometry x="7.190000000000055" y="20" width="20" height="20" as="geometry" />
        </mxCell>
        <mxCell id="8pIL7bb8HOB02kKPxIAk-177" value="" style="verticalLabelPosition=bottom;verticalAlign=top;html=1;shape=mxgraph.basic.tick;fillColor=#000000;" parent="8pIL7bb8HOB02kKPxIAk-144" vertex="1">
          <mxGeometry x="36.25" y="21" width="20" height="20" as="geometry" />
        </mxCell>
        <mxCell id="8pIL7bb8HOB02kKPxIAk-146" value="" style="shape=mxgraph.mockup.containers.marginRect;rectMarginTop=10;strokeColor=#666666;strokeWidth=1;dashed=0;rounded=1;arcSize=5;recursiveResize=0;html=1;whiteSpace=wrap;" parent="1" vertex="1">
          <mxGeometry x="1000" y="710.01" width="92.5" height="50" as="geometry" />
        </mxCell>
        <mxCell id="8pIL7bb8HOB02kKPxIAk-147" value="&lt;font style=&quot;font-size: 14px;&quot;&gt;Medium&lt;/font&gt;" style="shape=rect;strokeColor=none;fillColor=#000000;strokeWidth=1;dashed=0;rounded=1;arcSize=20;fontColor=#ffffff;fontSize=14;spacing=2;spacingTop=-2;align=center;autosize=1;spacingLeft=4;resizeWidth=0;resizeHeight=0;perimeter=none;html=1;whiteSpace=wrap;" parent="8pIL7bb8HOB02kKPxIAk-146" vertex="1">
          <mxGeometry x="17.19" y="3.33" width="58.12" height="15" as="geometry" />
        </mxCell>
        <mxCell id="8pIL7bb8HOB02kKPxIAk-178" value="" style="verticalLabelPosition=bottom;verticalAlign=top;html=1;shape=mxgraph.basic.tick;fillColor=#000000;" parent="8pIL7bb8HOB02kKPxIAk-146" vertex="1">
          <mxGeometry x="7.190000000000055" y="24.329999999999927" width="20" height="20" as="geometry" />
        </mxCell>
        <mxCell id="8pIL7bb8HOB02kKPxIAk-148" value="" style="shape=mxgraph.mockup.containers.marginRect;rectMarginTop=10;strokeColor=#666666;strokeWidth=1;dashed=0;rounded=1;arcSize=5;recursiveResize=0;html=1;whiteSpace=wrap;" parent="1" vertex="1">
          <mxGeometry x="1000" y="759.3400000000001" width="92.5" height="50" as="geometry" />
        </mxCell>
        <mxCell id="8pIL7bb8HOB02kKPxIAk-149" value="&lt;font style=&quot;font-size: 14px;&quot;&gt;Low&lt;/font&gt;" style="shape=rect;strokeColor=none;fillColor=#000000;strokeWidth=1;dashed=0;rounded=1;arcSize=20;fontColor=#ffffff;fontSize=14;spacing=2;spacingTop=-2;align=center;autosize=1;spacingLeft=4;resizeWidth=0;resizeHeight=0;perimeter=none;html=1;whiteSpace=wrap;" parent="8pIL7bb8HOB02kKPxIAk-148" vertex="1">
          <mxGeometry x="30" y="2.5" width="35.75" height="17.5" as="geometry" />
        </mxCell>
        <mxCell id="8pIL7bb8HOB02kKPxIAk-179" value="" style="verticalLabelPosition=bottom;verticalAlign=top;html=1;shape=mxgraph.basic.tick;fillColor=#000000;" parent="8pIL7bb8HOB02kKPxIAk-148" vertex="1">
          <mxGeometry x="7.190000000000055" y="20.999999999999886" width="20" height="20" as="geometry" />
        </mxCell>
        <mxCell id="I_BGdHNlwkZM-n6bZFzo-20" style="edgeStyle=orthogonalEdgeStyle;rounded=0;orthogonalLoop=1;jettySize=auto;html=1;dashed=1;" parent="1" source="8pIL7bb8HOB02kKPxIAk-150" target="8pIL7bb8HOB02kKPxIAk-191" edge="1">
          <mxGeometry relative="1" as="geometry" />
        </mxCell>
        <mxCell id="8pIL7bb8HOB02kKPxIAk-150" value="" style="shape=mxgraph.mockup.containers.marginRect;rectMarginTop=10;strokeColor=#666666;strokeWidth=1;dashed=0;rounded=1;arcSize=5;recursiveResize=0;html=1;whiteSpace=wrap;" parent="1" vertex="1">
          <mxGeometry x="1000" y="809.3400000000001" width="92.5" height="50" as="geometry" />
        </mxCell>
        <mxCell id="8pIL7bb8HOB02kKPxIAk-151" value="&lt;font style=&quot;font-size: 14px;&quot;&gt;Very Low&lt;/font&gt;" style="shape=rect;strokeColor=none;fillColor=#000000;strokeWidth=1;dashed=0;rounded=1;arcSize=20;fontColor=#ffffff;fontSize=14;spacing=2;spacingTop=-2;align=center;autosize=1;spacingLeft=4;resizeWidth=0;resizeHeight=0;perimeter=none;html=1;whiteSpace=wrap;" parent="8pIL7bb8HOB02kKPxIAk-150" vertex="1">
          <mxGeometry x="14.38" y="1.5" width="63.75" height="15" as="geometry" />
        </mxCell>
        <mxCell id="8pIL7bb8HOB02kKPxIAk-167" style="edgeStyle=orthogonalEdgeStyle;rounded=1;orthogonalLoop=1;jettySize=auto;html=1;exitX=1;exitY=0.5;exitDx=0;exitDy=0;entryX=0.5;entryY=0;entryDx=0;entryDy=0;curved=0;" parent="1" source="8pIL7bb8HOB02kKPxIAk-158" target="8pIL7bb8HOB02kKPxIAk-165" edge="1">
          <mxGeometry relative="1" as="geometry" />
        </mxCell>
        <mxCell id="8pIL7bb8HOB02kKPxIAk-158" value="" style="shape=image;verticalLabelPosition=bottom;labelBackgroundColor=default;verticalAlign=top;aspect=fixed;imageAspect=0;image=data:image/webp,UklGRlAHAABXRUJQVlA4TEQHAAAvP8APEOpQ0LYNU/PH3R0GETEBGULzlqGc/P/fOfE/vxUn+d//+/39FHwFREIVdCMjAiKBNvYi4MYTgJA6IqOOfyGIiADGKqNKyHgiIgAJVUKE0EbGk4CAE0GHEQE3IuIEMCIBEXWMACScCMZeRDDeSAcBvQhASi8CGBkZ68iIACTUMUJoEjIytp+I3lcDAgMABJPZ9Wzbtm3btm3btm3btm3bNh24jaRIyTFD4xfkxv+n2kr/kbu7u7u7u7u74W573p4ykJQyqALKICbUkFcRTUAPlr5WqIgqeITMS+8tgAIgfVXQhBWxxBZZAcTUQk4RFi4SaSUUQB2k5LzbBKG1RgUvw8JHFwxVUAwx4fIPSc8MBZDTD0PMzIZYtIMwYJL8/3CAyoIYAACB5odszrZt27Zt27Zt27Zt27bRfwZuGylyd/eY8Q2mFyAgQIMSbiRRQBFp+KAFC6gl5tsPkKJCGI3Mc8wdL7yneeWeM1boIAG9b8B4BBCIMKNhCt/8C/LLFb14wAC4HwCDlUT2CkEnl5TveO4OwN9IzwcH3+5DJOMIyLhxGBzlgTRIXFgCG538BHcnVubrX7PHs+BFHgkCoARofHgOnrxOEZgqgCWaz+DPeeBpLs+tCxp0H0znQZjug8srNHWKAIp3UXc0F72bZc1Fpy+U4LqCy5lEKQgS6PAUVJCIcZnCc0c3C6/KxuyM6wlJCHZEgfD58bxgX3cUvGDLZv1/6OXExpzE1lx5Wxw7/u5WMBE5tvRBOxaQaAsSOg+KnG9mKqqWLgJUX5+hcDoPHBzLGfzM5G8yj37RJRwXNqCKA+frAnqCCxdLbjMXrZ5QhOx0tsQk7gFSN46yrM0CmMCVgwUpx4YCIFM5ya74exkIW3Ed03hr73rx1caMzzN11LgrMJ1Pv+hpP7CxSBs6AXB/SMh4CO+k5mqT/HdbiaW7+wCgTOGprWvdPQAYz/ki7QeyM+8IQNZmMw3Hh57NUbKr5b/bOxrTeAdppvHR0Mmszczd/Bl8w4mgWKzkMhTRjEKEItxszJEwoeXXNqiAJDP/n3IVpvISFHMDYYiQUWgv1QAu66pw1xfa3vy1Nwh9RpnE3f6AGBmJSPET2xCMhKyuVojfw4gT0/lQAM2R8mt1sqjug+JHEm9mZUqCCg1NmghEa5f9YxA/wT8GZ/ILSLq66x1N/MpY7DLry7Yy5P/sR+RuASGfbM0dO37t3UBn7+yOgwUoDq8ImyGRjqB8YRgLG3vCBSW25qy6bkCyXmBH4WU2Iygz9h2y4oncOlmEcs41xNFC4zhDNHfBRBRY1MwfTrGOj5IpTZ1FH1dhKEJ9xxAPLcXEcFgAHQDDyns+SaYIBFO3dgVxwUzUWJxn37GpvMdKzF3dQ8RNwApKCCWj4eN0A1F2LfrCYAfeIgVdNGm0maMM7k+aqMCYulve2eJeUU/f5AlcI1X1nXAcvtCHq10HTZxwkEY1lZfJPBxRAPFcjR0O/GF/okN5T8W1g4xM52tD/yjHZwZCHS73nCi5+uKrae/aFUViHOeR4zo0yuWAZ5juHu+oT+NtnkuOFhFmotmWNJEPjiCm87n9jhwJDlkudCROGMzT3DkTUTBGqKkog2OxCZ2hufOPZJQ6DCFkx+WevC0SgnMNI9Zme45OzN+SywL/7uwOIuOKmkPpOmSKEj6OktuEuFp6ADF4Hd8xmMpUiEdHCwfGrN9YpO9fI1O+Usl5eNPSBcRU3jyjTLBYqurg+EnPurxMWX5oAJ0i/VYxC9F3dls26jOGXIsQsLtfgTQlV3eVEsoYoyRinKfziRjPpb35KNYps26tQqfM2DTow0DNDaRtQmBMvh5Vv7W3wL3xXACirqNGIhE4acTNMkeEcrekvuNbVX2NUF16caGjGyMnAJUwIVSDw2qnmWGSxB/E5/67mZu+cWQM5GTHWsZxViyp5qkQeRpBCTMUfs9UXkH5gp10OCQ2DNvd/j4y7d1WFP2Ve8fgy73hc6JPvZwOz/2DwaE/OsDBnpfjXrMUYByna7Ue4Ph4LgF+VV5XW1d6OBrZ1dOjxk59OC3w9TrGKTMTWTImovgJcP7qzrMqGAuN3Qq1lVj77czzeIhRwbH2gmpRd3IiVi0ni03iDiBtkyjbBzCRm9OUMUqZEBwfPtCJmXdPJVLan7mkzP+28nPdjQA0dcZEZILLDrUlS/UAA9KVIRdLRo5b5mY8Jse3AuRsvpCPI1gtTvhXSwdKBGf/l7Z06VJobIjsehcrYWL/w5viBbngpqJabCYqIdvoZmlRIko1PQhG5VdawDBJAGQnwacMQqxZWcgteGQlFKZxM/F3fZEMfGo6czhx7Yc0yV36hXEo0z5oxTRnDvYllltXeLuUddyBy6uO9HGhOKbSbM7mhlKW19I2+eMk82IGxvUMtctR+Jb5hwiUzJtLgIMZ88W/2N0/s+V6oe7u1ynbanEdC4r33X848Fu3IP/yMpYYVX5Dea5sag0=;" parent="1" vertex="1">
          <mxGeometry x="877.5499999999998" y="591.02" width="25" height="25" as="geometry" />
        </mxCell>
        <mxCell id="8pIL7bb8HOB02kKPxIAk-160" value="" style="shape=image;verticalLabelPosition=bottom;labelBackgroundColor=default;verticalAlign=top;aspect=fixed;imageAspect=0;image=data:image/webp,UklGRnQCAABXRUJQVlA4TGcCAAAvP8APEN8EoZEkR1Lyp3hEbFe8IQGhjSRJUix/lkvinu5OM2jbSFL48zsu79YEghDNcNJvL9zhAa+GACQCgBSQiEQpABIlKEVym7DNNhsg9mabz/lsA3cP5d4PiA3cBra5ezDD++8Fn/Prw97cOyC5HYmyd4ASYJvP+Wwz3D0+92Mk7/Mpkm0ECbDN8DmfcG9mnj83gO/9JduIREAiNu7+7k2hGPd+9w5SDMl23BsAxeb1+xCJAu+/hxIUG9hGSbYpgPwTE4D/dUGK/3/y+F6FbNu2TTvasW3btm3btm2bpVW1s1IXX5tkH639mJeI/jNw20jRNNljxjdYbZjU2HwpGfatFPvAzwQ4Gyg7v8DAwGAnA+VWv7S0uNzip/+wShaWFlf6wox0YuZM+P+ly1evZRcmNB9kGhsVPQXw7/kDvXLA3QzGaDAkFQakQ7eU6JQWXdLSHaQol0qltMCP4UTHr5s9ou1OITlwMlCRV9Sx9UshMRPwFzj+fHhGBMCdD8kTOXiPHITg61wSkxDvwvmLXyaT6c/NanUokxJb/5Sq1v7OuqwQWyYvtna2TGrsXL08HOT12Ibnt49Mjg3UxDnKqZDajSc04bvp12FvvIwZ4sdfEQA4B+B8r8CevJLXOQD+uT2/ekUAPCu1p3YTAX6vNWYnpJWP3nHgl+X2xL4Bf+yJEk63e/GpCLVPzZ7KGyD3+E1AgtqQqw4KEKvBkQipWuTsixPp1JGMXRQgUxKp25Z3k6BeTGi+rnA0UP5Ns1NT0w3eTHfSR6YnZ4Zijfy3+Hh/xshx2bp7e3v7OLPvpdhI12ojWSsA;" parent="1" vertex="1">
          <mxGeometry x="834.4599999999999" y="591.02" width="25" height="25" as="geometry" />
        </mxCell>
        <mxCell id="8pIL7bb8HOB02kKPxIAk-162" value="" style="endArrow=none;dashed=1;html=1;dashPattern=1 3;strokeWidth=2;rounded=0;" parent="1" edge="1">
          <mxGeometry width="50" height="50" relative="1" as="geometry">
            <mxPoint x="858.89" y="603.02" as="sourcePoint" />
            <mxPoint x="877.5500000000001" y="603.02" as="targetPoint" />
          </mxGeometry>
        </mxCell>
        <mxCell id="8pIL7bb8HOB02kKPxIAk-164" value="Next week&#39;s&amp;nbsp; &amp;nbsp; &amp;nbsp;&lt;br&gt;return will be _____?" style="rounded=1;whiteSpace=wrap;html=1;dashed=1;" parent="1" vertex="1">
          <mxGeometry x="821.2699999999999" y="625.8599999999999" width="118.66" height="40" as="geometry" />
        </mxCell>
        <mxCell id="8pIL7bb8HOB02kKPxIAk-165" value="" style="shape=image;verticalLabelPosition=bottom;labelBackgroundColor=default;verticalAlign=top;aspect=fixed;imageAspect=0;image=data:image/webp,UklGRu4EAABXRUJQVlA4TOEEAAAvP8APEBWHgrQNmNa/7R0LETEBgOTio2RNHJKybXJs5brBAwY4p8g55zDfzfeuwAeWbzpVK3YlAAOFlUyRdu2E9W/gSkAAltBwdmiA53HUSJIj7Z7jz+2g+I7sB6RIkhxJC2A56C3P7uxT/P+HC5Ik26atd/Ft27bR/xE2JmDbZtu2/x+Abdu2bXNNANzatlUrZZI6XNzd3eWtCx3QIhU8gZDwInXY7oCU8A7K4IU/J9MCKIAGaIGQjEo8PUW4aSNJkPgzOJAX3v+4OoLUSJIkOT0zy6PSoq6s78Khbdu0M75j27btzrbt1LbR27bZpbNt27azJyBfdY63qc8NHWzv/SPMtSJ3jXmwnSu1JTnaoPtp4Q+1tdB7apYF6zPfUwkIBc7wUq4B2AS1QMAPY4ByOQEopDCHoRAgEf5ScA+WYUATjhOQAkAvQzAIVwzQqIyGHwgNgrjCqyklwTZohEAJwqS4QlYLSmlYAiRfCJAK/6YsCR7BNgCi/aF0Rgv6piLkLimM0CIroIZfiHSHeMKbqYgEu4iWM4oQTGkfLSifWiyu1oUImRVTMTU8gYMrf6UHZ8otIBhCRBxxxQRtspwVwfoM9lJ/guiTz3/CD/jChyl7QzDaxkPBM7CXBAeg6wYRhTmZEoGkNcFEC127qN3D2TYutXFX8BTs0YIaYHOCIvmTLTPJXu86Oojx7HTFvMIqLrRxW/AESFLDMzg5QYzgwqQtsNjEUBttXcQY78+Oq2qcq7jRwqOClgRjIOYiaTJDl7QJ5lro7+A/xnh/nxqjqv5ca+EhaMEfxD+8/BEePAHXG2C6hZ4OmteI8T4zY4yqOtPGFQv3Ba/hcBV9BxsiuSrLE210dXAf431uzhhVdXzJwo8n0vQUjsUNt007uwf3Md4XPMAYo8rq/8X28A1bdnFVe6TGPXW3rvu6jwdSNayeWU2bdaROvA6xMG4SroKr6V/e3frnPh6uhtVXq43WMZrtD5XPjhILC0kEQIbfIAa3x+3WUW/33QerYfXX6rhVV9vDnquGBbSmDffigA3J8yfa/4s7NF0T3FrBrYv/AvoA8y1qWN23GmNVNDc+HwJUkEzwfbboxQWvVJE1GEbskiZdcLtUsIAu+FbvVcPqo9UKq9qn9pAJAhAA29D8Nj2Czwk8Qx2obxViInz/YE29h9Ufq71WbWwPa2JYwBp64fc36K8cF4bLJHSQL8ERJL/83cTz7uNKgBJkwrUeCo7nHVjdtBo83wrm6gz5E8rgQfAGbukUhGFMgr8b8PBXjMGtKW5t4vZ6a/Y+z9Q7q7lWVc5+70SCCMTAvlpQsjph8xIopnApE7xBG+hjkEPrmrV6z+2cms1s5gR2cIXRT2rBNJFLt/4GEeLhx1AwwQXkUkTd808IuQpFDKERXgGthhvEKh0DO/TIZFaBRQhmk3VCCtLhVM0M1PALKdMf5Sn4ow7bMskEn6sytDYzB//dUgtaQTB9I/6ft5JOVS5bEgZ6A4bpHOihVCYpp+EDvNM9RwwmZXktqHi2YfcXwBJu8lowB4oZ0BskSIVfyxLcgX2GBE4YlKX6P2QwoWMEog37Sgk6QTijQgi8p36BaYZ9hkqVS/gE/wwMkv7MlktGLYYzUtjGZqn5sM7SNJQz9O6KMt+M352PSwafaNNezIeOdggOAA==;" parent="1" vertex="1">
          <mxGeometry x="909.93" y="625.8599999999999" width="25" height="25" as="geometry" />
        </mxCell>
        <mxCell id="8pIL7bb8HOB02kKPxIAk-181" value="Majority Vote" style="text;html=1;strokeColor=none;fillColor=none;align=center;verticalAlign=middle;whiteSpace=wrap;rounded=0;fontSize=14;" parent="1" vertex="1">
          <mxGeometry x="1001.25" y="584.3399999999999" width="90" height="20" as="geometry" />
        </mxCell>
        <mxCell id="8pIL7bb8HOB02kKPxIAk-184" value="" style="shape=mxgraph.mockup.containers.marginRect;rectMarginTop=10;strokeColor=#666666;strokeWidth=1;dashed=0;rounded=1;arcSize=5;recursiveResize=0;html=1;whiteSpace=wrap;" parent="1" vertex="1">
          <mxGeometry x="1120" y="605.8599999999999" width="89.5" height="50.16" as="geometry" />
        </mxCell>
        <mxCell id="8pIL7bb8HOB02kKPxIAk-185" value="&lt;font style=&quot;font-size: 14px;&quot;&gt;Long&lt;/font&gt;" style="shape=rect;strokeColor=none;fillColor=#00CC00;strokeWidth=1;dashed=0;rounded=1;arcSize=20;fontColor=#ffffff;fontSize=14;spacing=2;spacingTop=-2;align=center;autosize=1;spacingLeft=4;resizeWidth=0;resizeHeight=0;perimeter=none;html=1;whiteSpace=wrap;" parent="8pIL7bb8HOB02kKPxIAk-184" vertex="1">
          <mxGeometry x="24.380000000000003" y="-2.84" width="43.75" height="25" as="geometry" />
        </mxCell>
        <mxCell id="8pIL7bb8HOB02kKPxIAk-190" value="" style="shape=image;verticalLabelPosition=bottom;labelBackgroundColor=default;verticalAlign=top;aspect=fixed;imageAspect=0;image=data:image/webp,UklGRu4EAABXRUJQVlA4TOEEAAAvP8APEBWHgrQNmNa/7R0LETEBgOTio2RNHJKybXJs5brBAwY4p8g55zDfzfeuwAeWbzpVK3YlAAOFlUyRdu2E9W/gSkAAltBwdmiA53HUSJIj7Z7jz+2g+I7sB6RIkhxJC2A56C3P7uxT/P+HC5Ik26atd/Ft27bR/xE2JmDbZtu2/x+Abdu2bXNNANzatlUrZZI6XNzd3eWtCx3QIhU8gZDwInXY7oCU8A7K4IU/J9MCKIAGaIGQjEo8PUW4aSNJkPgzOJAX3v+4OoLUSJIkOT0zy6PSoq6s78Khbdu0M75j27btzrbt1LbR27bZpbNt27azJyBfdY63qc8NHWzv/SPMtSJ3jXmwnSu1JTnaoPtp4Q+1tdB7apYF6zPfUwkIBc7wUq4B2AS1QMAPY4ByOQEopDCHoRAgEf5ScA+WYUATjhOQAkAvQzAIVwzQqIyGHwgNgrjCqyklwTZohEAJwqS4QlYLSmlYAiRfCJAK/6YsCR7BNgCi/aF0Rgv6piLkLimM0CIroIZfiHSHeMKbqYgEu4iWM4oQTGkfLSifWiyu1oUImRVTMTU8gYMrf6UHZ8otIBhCRBxxxQRtspwVwfoM9lJ/guiTz3/CD/jChyl7QzDaxkPBM7CXBAeg6wYRhTmZEoGkNcFEC127qN3D2TYutXFX8BTs0YIaYHOCIvmTLTPJXu86Oojx7HTFvMIqLrRxW/AESFLDMzg5QYzgwqQtsNjEUBttXcQY78+Oq2qcq7jRwqOClgRjIOYiaTJDl7QJ5lro7+A/xnh/nxqjqv5ca+EhaMEfxD+8/BEePAHXG2C6hZ4OmteI8T4zY4yqOtPGFQv3Ba/hcBV9BxsiuSrLE210dXAf431uzhhVdXzJwo8n0vQUjsUNt007uwf3Md4XPMAYo8rq/8X28A1bdnFVe6TGPXW3rvu6jwdSNayeWU2bdaROvA6xMG4SroKr6V/e3frnPh6uhtVXq43WMZrtD5XPjhILC0kEQIbfIAa3x+3WUW/33QerYfXX6rhVV9vDnquGBbSmDffigA3J8yfa/4s7NF0T3FrBrYv/AvoA8y1qWN23GmNVNDc+HwJUkEzwfbboxQWvVJE1GEbskiZdcLtUsIAu+FbvVcPqo9UKq9qn9pAJAhAA29D8Nj2Czwk8Qx2obxViInz/YE29h9Ufq71WbWwPa2JYwBp64fc36K8cF4bLJHSQL8ERJL/83cTz7uNKgBJkwrUeCo7nHVjdtBo83wrm6gz5E8rgQfAGbukUhGFMgr8b8PBXjMGtKW5t4vZ6a/Y+z9Q7q7lWVc5+70SCCMTAvlpQsjph8xIopnApE7xBG+hjkEPrmrV6z+2cms1s5gR2cIXRT2rBNJFLt/4GEeLhx1AwwQXkUkTd808IuQpFDKERXgGthhvEKh0DO/TIZFaBRQhmk3VCCtLhVM0M1PALKdMf5Sn4ow7bMskEn6sytDYzB//dUgtaQTB9I/6ft5JOVS5bEgZ6A4bpHOihVCYpp+EDvNM9RwwmZXktqHi2YfcXwBJu8lowB4oZ0BskSIVfyxLcgX2GBE4YlKX6P2QwoWMEog37Sgk6QTijQgi8p36BaYZ9hkqVS/gE/wwMkv7MlktGLYYzUtjGZqn5sM7SNJQz9O6KMt+M352PSwafaNNezIeOdggOAA==;" parent="8pIL7bb8HOB02kKPxIAk-184" vertex="1">
          <mxGeometry x="7.670000000000073" y="19.659999999999968" width="25" height="25" as="geometry" />
        </mxCell>
        <mxCell id="8pIL7bb8HOB02kKPxIAk-195" value="" style="endArrow=none;dashed=1;html=1;dashPattern=1 3;strokeWidth=2;rounded=0;" parent="8pIL7bb8HOB02kKPxIAk-184" edge="1">
          <mxGeometry width="50" height="50" relative="1" as="geometry">
            <mxPoint x="34.340000000000146" y="33.49000000000001" as="sourcePoint" />
            <mxPoint x="60.13000000000011" y="33.49000000000001" as="targetPoint" />
          </mxGeometry>
        </mxCell>
        <mxCell id="8pIL7bb8HOB02kKPxIAk-191" value="" style="shape=mxgraph.mockup.containers.marginRect;rectMarginTop=10;strokeColor=#666666;strokeWidth=1;dashed=0;rounded=1;arcSize=5;recursiveResize=0;html=1;whiteSpace=wrap;" parent="1" vertex="1">
          <mxGeometry x="1120" y="808.6700000000001" width="89.5" height="50.16" as="geometry" />
        </mxCell>
        <mxCell id="8pIL7bb8HOB02kKPxIAk-192" value="&lt;font style=&quot;font-size: 14px;&quot;&gt;Short&lt;/font&gt;" style="shape=rect;strokeColor=none;fillColor=#FF0000;strokeWidth=1;dashed=0;rounded=1;arcSize=20;fontColor=#ffffff;fontSize=14;spacing=2;spacingTop=-2;align=center;autosize=1;spacingLeft=4;resizeWidth=0;resizeHeight=0;perimeter=none;html=1;whiteSpace=wrap;" parent="8pIL7bb8HOB02kKPxIAk-191" vertex="1">
          <mxGeometry x="22.939999999999998" y="-5.18" width="43.62" height="24.84" as="geometry" />
        </mxCell>
        <mxCell id="8pIL7bb8HOB02kKPxIAk-196" value="" style="shape=image;verticalLabelPosition=bottom;labelBackgroundColor=default;verticalAlign=top;aspect=fixed;imageAspect=0;image=data:image/webp,UklGRmwJAABXRUJQVlA4TF8JAAAvP8APEOpQ0LYNk/CH3V0GETEBDFUByw+CoZxq26Y58S8gApAwM/mZ+wF3s3zf+/8KXg1RkJ5NS9p06WKBHhO0qMDB6EiZjoONURETbF5wkvKnW0uEIAElvwAqxKRDwXQRwC7i0zBCIgIfq4kIoE2LmmCFOosNDmUwgABU7ftuy20kSZLiv5l3gMTNZPHKECRJctRm8TBZeI8ER9v/tM3zV0iz4bEvEDxBlCO4B1G0uZsvUKbRnprsyVjGLXQCxtHOyiIHbiMpUjJQi8d3vfcEutH2z3aT/iu62vd93/d93/ftrh6fe+7/nFKcaihBOS3IfXjUAkOoGjTKICZcaiBj3IJxqCLITozJNPRAyNCBKUKhhxI8ZN/Qwo0Zp2R33IJj0wKu4z+0cAlFDR5ipwpFCVv2r+E3Dg0ZqXrwKNSoBVPHwTU4xSUoh4wUqQ9qwGS3CbXgWPPvwHNDaOGSOmXIJFrQKNS4BBiGbds42n/aT2+X+OEAAECgudJs27Zt27Zt27Zt27Zt27bZfwduIymSa3qPeei+4EYbC4GJCDARin8YkUQ5qHQ6pmxgeFtEb4AQKzPgxZnNBsBCnvIEHYhBKDqlROmOpVRdnCZd8qB4ipntFoph+05KKSgB9KRdlQxWqp0yeKGUaVL52fkCSl5cipmiktESaZVSlsoNKWXXFnJyVPjK+FlZJrsrCcaKrxh5qL9OgGrKp8JbKafKSXlRqrxOyIxesELJWtJlKkDVmtBVIxhDuVe2QqdCXJm8B4YJlSOaIFNhXoSG4hp4p2pLqrQQ9kGFfeCwD6Kv9VStU/GtorFl6lwkCVM8k+s8swXNpQgE3zNtJcQxSWWGjNxh/y4WulkUYYR9IBI6cuDeapBt/zMAnTSlKEIrcJO+N+vCz5H/Xzrw3jFtGSoZQXAgbZ8ndzU+Twhx+bUlhRNshoq3T7MDb1IV693WV3qiMHCuo6lWcwHm4SV+q5wnCn1dpVjvWnrGhb+h3S4LjxjG03MlfMx3I86BR9caMYxbGi5DuxWUitWu19+/8y78SiVOfPW8kVzTjCQk7TMXwe8CSsoo2iMJebz7DZ2WSraWitxyI45JqzJk9E6kO3Y8t3RlmgqEE4xmW4RCB83rgODmc3gNEY9lotapU9XonVZlRDxTgINShKu5S+x4lErseKrK8ACRxplKucxmD22gAotw51GEbnKKZuzisB3cteB2c5elKo8Aogg1ghCACELMMZXuN3jaic872aYUSYgEfyShgH0Gph0TBMPwe+Xx56sz+hyABKGpSP9cU48gJCCC4LNMvmPam7ooRTgIhq847I7vGxCpwtPcpe3Tkqky7D60+aOFsMUg1OczVKJ9WlelC78Du/R1NGETB8hMFvbGyrPhXsrZigyMY7IwguIAF+eqMvR3KW13W1+ZScIoWA11m7Lc4QztAqDAjax3I925nWtanIj4/o4L36rnLw/vcIIjIvJXZrADr6o+NLjrz4JhYsodHvoh/lT1lTNveQnzxEUsE5aF1/DuBq/1vok811skmCZo492+N70upXTiY9PygVh3hkdHltRNMWYL3XTRwG/pKrbzRAzjAzxJmOsqtSL9TgD8/HN1lXyeA2tVGXEgpRPvTAl1kDlAcZSWruJcJAhtbSVa71o68d3zxvJMexcQBONqWbi/EwwO7eZJHxk3B3dV08wA2P0gVxTLhEvfqTq9Ay+39gQQyDWNnjeyIJUsdE7nAyOGCQZ2RZPgwCAKvpH4ntLfl4VREs7SI2N3fi+BaVKVr6Ur7HiWHsP3huUDKg524pmcM7sphNJ/5OPqOzl8e5eFURJO0jPrw7szemdSssQywdLFo+OPC2aUv7UI4H/lmIqpYIZpYuOPQ3DSGHuwCX9o1lYMcOWCbiAAJ2IYh5ggORaey8PnsQwVCydYCKSrSP/ObenxqG3q45iYEybz3aDnDb80wSQOik6RE/17PYGp6RX+y5XRO9K01b8LhW6+QmSmqeDbnz7aZEtRpGyoHBIEShHOpi624YHtdlWGKfM/8Tcuaj5RSseiKE9EUYQZAPzZpnxnytP2TynCLYCVAD98Upvq8NICCt2sqUseEhBNWDUZE1Sz4T7f9b2AN9sUW7r64cTPOijJogXjvpw9FsckZPkAOaa+oDZyR2sQycLaWHl2PNru7kZIj7UnBtT9trEL5kPjnuaMWCboe7NSvqDPVQiHtkHK779lmph7VZEqvHoMbwBDwrJ6/II+A7ucKHSGDhKH+tx0lMsgb6bJdEzH+j0to3d8t7HzkoXFhE+bEisEzIUoS+kqbMLYKA7bmooPsK9ea+rCbFP0wtgtcCPrXWv5rHQUyw/HvzfH7vKZBKYB+KIZmrnmCU9NAubeLTteNOfNIXlwnwp+b99XrVfBwV0rDvuzBqeJ/15XG9jFWCbkxBHPVNUZ/Zp0x3pX6SpqMCi7V+6zqBd6GC8Wuc0HqhE71TW9m34if46puZfPg+VU5TWJzu4P7Kr6HXW9vk0vMS5Tfcpy9x+bwe+dBKF+euwupDt3z8wTwffj4G70vLGZXRC/2jaNU6rR+1lJOEQzNnMXU1KBtxAFMU2hCHG8tavflEq6pu89BehzZaICIVHo/lH9IrWVkCA07F3UZ7Ig5Tb15x7gcjOFw26e6/a+8XVFJKEiWTi+CADcuJnvRj7DzYHXtqn7xAQJlpJcj74OyNteEqMyRcJhefoM364iNPN+S1d9TP4Pv/lqLjQ9dmdbfW/q10mQ1r7hunc6LkS86kkS5sbOb+3aRXe/G73T6/9vu/vtdO+bqMiAU9r7FoojP1A3wYeh6vJPs8ctFhOERnDt/xHkhRje7Zy0ruKBU+gLJ77UZh9w4qRdaEWIB9jxeMNZtDUVrac+st61uxe/XBJOARI6otpSdOT4Bw/ZFIZ7RZaWFk6wGSrWPk2rF35IFHquq4hcVuFY3fygZ2lkRBFanmlf+ht6quyJ53jpLzmo3Uu20hkkdBVqSa7HFe5vIlJh7nsgHNt1y/JpRRdDJW2Xl9zmobOw7hfS0RpRhN2q5oyAHIFT/iQ4fA5qcwXPYRNjHMbDfEml0PjgvOezvgNvr8ESVGVOPTSjLlA+2yMUcN0M5R8wQLu+KU3sJwEqZDspL8TROcLY0ytnZhDv2lS26D+fXiCP4I015ghenOwJZlEV6hBJf2sd/xuQeO0/hMAGTczGnpHbdAA=;" parent="8pIL7bb8HOB02kKPxIAk-191" vertex="1">
          <mxGeometry x="10.63000000000011" y="21.079999999999927" width="24" height="24" as="geometry" />
        </mxCell>
        <mxCell id="8pIL7bb8HOB02kKPxIAk-197" value="" style="endArrow=none;dashed=1;html=1;dashPattern=1 3;strokeWidth=2;rounded=0;" parent="8pIL7bb8HOB02kKPxIAk-191" edge="1">
          <mxGeometry width="50" height="50" relative="1" as="geometry">
            <mxPoint x="39.75000000000023" y="32.40999999999997" as="sourcePoint" />
            <mxPoint x="65.54000000000019" y="32.40999999999997" as="targetPoint" />
          </mxGeometry>
        </mxCell>
        <mxCell id="bA_C_CA7xueAo-WzbrrJ-224" style="edgeStyle=orthogonalEdgeStyle;rounded=0;orthogonalLoop=1;jettySize=auto;html=1;exitX=1;exitY=0.5;exitDx=0;exitDy=0;entryX=0;entryY=0.5;entryDx=0;entryDy=0;" edge="1" parent="1" source="8pIL7bb8HOB02kKPxIAk-253" target="bA_C_CA7xueAo-WzbrrJ-51">
          <mxGeometry relative="1" as="geometry" />
        </mxCell>
        <mxCell id="8pIL7bb8HOB02kKPxIAk-253" value="" style="rounded=1;whiteSpace=wrap;html=1;fontSize=14;" parent="1" vertex="1">
          <mxGeometry x="1259.66" y="576.3399999999999" width="435" height="300" as="geometry" />
        </mxCell>
        <mxCell id="8pIL7bb8HOB02kKPxIAk-254" value="Market Timing Team" style="text;html=1;strokeColor=none;fillColor=default;align=center;verticalAlign=middle;whiteSpace=wrap;rounded=0;fontStyle=1;fontSize=14;" parent="1" vertex="1">
          <mxGeometry x="1431" y="566.34" width="138.63" height="20" as="geometry" />
        </mxCell>
        <mxCell id="8pIL7bb8HOB02kKPxIAk-255" value="" style="sketch=0;outlineConnect=0;fillColor=#f8cecc;strokeColor=#b85450;dashed=0;verticalLabelPosition=bottom;verticalAlign=top;align=center;html=1;fontSize=14;fontStyle=0;aspect=fixed;pointerEvents=1;shape=mxgraph.aws4.waf_bot;gradientColor=#ea6b66;" parent="1" vertex="1">
          <mxGeometry x="1347.8500000000001" y="718.0099999999998" width="40" height="40" as="geometry" />
        </mxCell>
        <mxCell id="8pIL7bb8HOB02kKPxIAk-256" value="" style="group" parent="1" vertex="1" connectable="0">
          <mxGeometry x="1270.41" y="708.01" width="40.000000000000114" height="51" as="geometry" />
        </mxCell>
        <mxCell id="8pIL7bb8HOB02kKPxIAk-257" value="" style="shape=note;whiteSpace=wrap;html=1;backgroundOutline=1;darkOpacity=0.05;size=11;strokeWidth=2;fillColor=#fff2cc;strokeColor=#d6b656;fontSize=14;" parent="8pIL7bb8HOB02kKPxIAk-256" vertex="1">
          <mxGeometry width="40" height="50" as="geometry" />
        </mxCell>
        <mxCell id="8pIL7bb8HOB02kKPxIAk-258" value="" style="group;fontSize=14;" parent="8pIL7bb8HOB02kKPxIAk-256" vertex="1" connectable="0">
          <mxGeometry x="10" y="12" width="30.000000000000114" height="39" as="geometry" />
        </mxCell>
        <mxCell id="8pIL7bb8HOB02kKPxIAk-357" value="" style="shape=note;whiteSpace=wrap;html=1;backgroundOutline=1;darkOpacity=0.05;size=11;strokeWidth=2;fillColor=#f8cecc;strokeColor=#b85450;fontSize=14;" parent="8pIL7bb8HOB02kKPxIAk-258" vertex="1">
          <mxGeometry x="-9.999999999999886" y="-11" width="40" height="50" as="geometry" />
        </mxCell>
        <mxCell id="8pIL7bb8HOB02kKPxIAk-259" value="" style="line;strokeWidth=2;html=1;container=0;opacity=50;fontSize=14;" parent="8pIL7bb8HOB02kKPxIAk-258" vertex="1">
          <mxGeometry width="15" height="10" as="geometry" />
        </mxCell>
        <mxCell id="8pIL7bb8HOB02kKPxIAk-260" value="" style="line;strokeWidth=2;html=1;container=0;opacity=50;fontSize=14;" parent="8pIL7bb8HOB02kKPxIAk-258" vertex="1">
          <mxGeometry y="9" width="20" height="10" as="geometry" />
        </mxCell>
        <mxCell id="8pIL7bb8HOB02kKPxIAk-261" value="" style="line;strokeWidth=2;html=1;container=0;opacity=50;fontSize=14;" parent="8pIL7bb8HOB02kKPxIAk-258" vertex="1">
          <mxGeometry y="18" width="15" height="10" as="geometry" />
        </mxCell>
        <mxCell id="8pIL7bb8HOB02kKPxIAk-262" value="" style="group" parent="1" vertex="1" connectable="0">
          <mxGeometry x="1271.6100000000001" y="783.01" width="40" height="51" as="geometry" />
        </mxCell>
        <mxCell id="8pIL7bb8HOB02kKPxIAk-263" value="" style="shape=note;whiteSpace=wrap;html=1;backgroundOutline=1;darkOpacity=0.05;size=11;strokeWidth=2;fillColor=#dae8fc;strokeColor=#6c8ebf;fontSize=14;" parent="8pIL7bb8HOB02kKPxIAk-262" vertex="1">
          <mxGeometry width="40" height="50" as="geometry" />
        </mxCell>
        <mxCell id="8pIL7bb8HOB02kKPxIAk-264" value="" style="group;fontSize=14;" parent="8pIL7bb8HOB02kKPxIAk-262" vertex="1" connectable="0">
          <mxGeometry x="10" y="12" width="30" height="39" as="geometry" />
        </mxCell>
        <mxCell id="8pIL7bb8HOB02kKPxIAk-363" value="" style="shape=note;whiteSpace=wrap;html=1;backgroundOutline=1;darkOpacity=0.05;size=11;strokeWidth=2;fillColor=#d5e8d4;strokeColor=#82b366;fontSize=14;" parent="8pIL7bb8HOB02kKPxIAk-264" vertex="1">
          <mxGeometry x="-10" y="-11" width="40" height="50" as="geometry" />
        </mxCell>
        <mxCell id="8pIL7bb8HOB02kKPxIAk-265" value="" style="line;strokeWidth=2;html=1;container=0;opacity=50;fontSize=14;" parent="8pIL7bb8HOB02kKPxIAk-264" vertex="1">
          <mxGeometry width="15" height="10" as="geometry" />
        </mxCell>
        <mxCell id="8pIL7bb8HOB02kKPxIAk-266" value="" style="line;strokeWidth=2;html=1;container=0;opacity=50;fontSize=14;" parent="8pIL7bb8HOB02kKPxIAk-264" vertex="1">
          <mxGeometry y="9" width="20" height="10" as="geometry" />
        </mxCell>
        <mxCell id="8pIL7bb8HOB02kKPxIAk-267" value="" style="line;strokeWidth=2;html=1;container=0;opacity=50;fontSize=14;" parent="8pIL7bb8HOB02kKPxIAk-264" vertex="1">
          <mxGeometry y="18" width="15" height="10" as="geometry" />
        </mxCell>
        <mxCell id="8pIL7bb8HOB02kKPxIAk-268" value="" style="sketch=0;outlineConnect=0;gradientColor=#97d077;fillColor=#d5e8d4;strokeColor=#82b366;dashed=0;verticalLabelPosition=bottom;verticalAlign=top;align=center;html=1;fontSize=14;fontStyle=0;aspect=fixed;pointerEvents=1;shape=mxgraph.aws4.waf_bot;" parent="1" vertex="1">
          <mxGeometry x="1347.8500000000001" y="793.01" width="40" height="40" as="geometry" />
        </mxCell>
        <mxCell id="8pIL7bb8HOB02kKPxIAk-269" value="" style="endArrow=none;dashed=1;html=1;dashPattern=1 3;strokeWidth=2;rounded=0;fontSize=14;" parent="1" edge="1">
          <mxGeometry width="50" height="50" relative="1" as="geometry">
            <mxPoint x="1289.91" y="778.01" as="sourcePoint" />
            <mxPoint x="1289.91" y="758.01" as="targetPoint" />
          </mxGeometry>
        </mxCell>
        <mxCell id="8pIL7bb8HOB02kKPxIAk-270" value="" style="endArrow=none;dashed=1;html=1;dashPattern=1 3;strokeWidth=2;rounded=0;fontSize=14;" parent="1" edge="1">
          <mxGeometry width="50" height="50" relative="1" as="geometry">
            <mxPoint x="1367.3500000000001" y="778.01" as="sourcePoint" />
            <mxPoint x="1367.3500000000001" y="758.01" as="targetPoint" />
          </mxGeometry>
        </mxCell>
        <mxCell id="8pIL7bb8HOB02kKPxIAk-271" style="edgeStyle=orthogonalEdgeStyle;rounded=0;orthogonalLoop=1;jettySize=auto;html=1;exitX=0;exitY=0;exitDx=40;exitDy=30.5;exitPerimeter=0;" parent="1" source="8pIL7bb8HOB02kKPxIAk-257" target="8pIL7bb8HOB02kKPxIAk-255" edge="1">
          <mxGeometry relative="1" as="geometry" />
        </mxCell>
        <mxCell id="8pIL7bb8HOB02kKPxIAk-272" style="edgeStyle=orthogonalEdgeStyle;rounded=0;orthogonalLoop=1;jettySize=auto;html=1;exitX=0;exitY=0;exitDx=40;exitDy=30.5;exitPerimeter=0;" parent="1" source="8pIL7bb8HOB02kKPxIAk-263" target="8pIL7bb8HOB02kKPxIAk-268" edge="1">
          <mxGeometry relative="1" as="geometry" />
        </mxCell>
        <mxCell id="8pIL7bb8HOB02kKPxIAk-273" value="Prompt" style="text;html=1;strokeColor=none;fillColor=none;align=center;verticalAlign=middle;whiteSpace=wrap;rounded=0;fontSize=14;" parent="1" vertex="1">
          <mxGeometry x="1265.41" y="680.01" width="50" height="20" as="geometry" />
        </mxCell>
        <mxCell id="8pIL7bb8HOB02kKPxIAk-274" value="Prompt" style="text;html=1;strokeColor=none;fillColor=none;align=center;verticalAlign=middle;whiteSpace=wrap;rounded=0;fontSize=14;" parent="1" vertex="1">
          <mxGeometry x="1270.41" y="843.01" width="50" height="20" as="geometry" />
        </mxCell>
        <mxCell id="8pIL7bb8HOB02kKPxIAk-275" value="Network Strategy Agent" style="text;html=1;strokeColor=none;fillColor=none;align=center;verticalAlign=middle;whiteSpace=wrap;rounded=0;fontSize=14;" parent="1" vertex="1">
          <mxGeometry x="1317.58" y="688.0099999999998" width="105.65" height="20" as="geometry" />
        </mxCell>
        <mxCell id="8pIL7bb8HOB02kKPxIAk-276" value="Macro Strategy Agent" style="text;html=1;strokeColor=none;fillColor=none;align=center;verticalAlign=middle;whiteSpace=wrap;rounded=0;fontSize=14;" parent="1" vertex="1">
          <mxGeometry x="1308.41" y="843.01" width="118.88" height="20" as="geometry" />
        </mxCell>
        <mxCell id="8pIL7bb8HOB02kKPxIAk-278" value="" style="shape=mxgraph.mockup.containers.marginRect;rectMarginTop=10;strokeColor=#666666;strokeWidth=1;dashed=0;rounded=1;arcSize=5;recursiveResize=0;html=1;whiteSpace=wrap;" parent="1" vertex="1">
          <mxGeometry x="1478.7100000000003" y="611.01" width="92.5" height="50" as="geometry" />
        </mxCell>
        <mxCell id="8pIL7bb8HOB02kKPxIAk-280" value="" style="verticalLabelPosition=bottom;verticalAlign=top;html=1;shape=mxgraph.basic.tick;fillColor=#000000;" parent="8pIL7bb8HOB02kKPxIAk-278" vertex="1">
          <mxGeometry x="7.189999999999941" y="23" width="20" height="20" as="geometry" />
        </mxCell>
        <mxCell id="8pIL7bb8HOB02kKPxIAk-281" value="" style="verticalLabelPosition=bottom;verticalAlign=top;html=1;shape=mxgraph.basic.tick;fillColor=#000000;" parent="8pIL7bb8HOB02kKPxIAk-278" vertex="1">
          <mxGeometry x="36.249999999999886" y="23" width="20" height="20" as="geometry" />
        </mxCell>
        <mxCell id="8pIL7bb8HOB02kKPxIAk-282" value="" style="verticalLabelPosition=bottom;verticalAlign=top;html=1;shape=mxgraph.basic.tick;fillColor=#000000;" parent="8pIL7bb8HOB02kKPxIAk-278" vertex="1">
          <mxGeometry x="61.249999999999886" y="23" width="20" height="20" as="geometry" />
        </mxCell>
        <mxCell id="8pIL7bb8HOB02kKPxIAk-315" value="&lt;font style=&quot;font-size: 14px;&quot;&gt;High&lt;/font&gt;" style="shape=rect;strokeColor=none;fillColor=#000000;strokeWidth=1;dashed=0;rounded=1;arcSize=20;fontColor=#ffffff;fontSize=14;spacing=2;spacingTop=-2;align=center;autosize=1;spacingLeft=4;resizeWidth=0;resizeHeight=0;perimeter=none;html=1;whiteSpace=wrap;" parent="8pIL7bb8HOB02kKPxIAk-278" vertex="1">
          <mxGeometry x="25.749999999999886" width="38.5" height="20" as="geometry" />
        </mxCell>
        <mxCell id="8pIL7bb8HOB02kKPxIAk-287" value="" style="shape=mxgraph.mockup.containers.marginRect;rectMarginTop=10;strokeColor=#666666;strokeWidth=1;dashed=0;rounded=1;arcSize=5;recursiveResize=0;html=1;whiteSpace=wrap;" parent="1" vertex="1">
          <mxGeometry x="1478.71" y="714.6800000000001" width="92.5" height="50" as="geometry" />
        </mxCell>
        <mxCell id="8pIL7bb8HOB02kKPxIAk-288" value="&lt;font style=&quot;font-size: 14px;&quot;&gt;Medium&lt;/font&gt;" style="shape=rect;strokeColor=none;fillColor=#000000;strokeWidth=1;dashed=0;rounded=1;arcSize=20;fontColor=#ffffff;fontSize=14;spacing=2;spacingTop=-2;align=center;autosize=1;spacingLeft=4;resizeWidth=0;resizeHeight=0;perimeter=none;html=1;whiteSpace=wrap;" parent="8pIL7bb8HOB02kKPxIAk-287" vertex="1">
          <mxGeometry x="17.19" y="3.33" width="58.12" height="15" as="geometry" />
        </mxCell>
        <mxCell id="8pIL7bb8HOB02kKPxIAk-289" value="" style="verticalLabelPosition=bottom;verticalAlign=top;html=1;shape=mxgraph.basic.tick;fillColor=#000000;" parent="8pIL7bb8HOB02kKPxIAk-287" vertex="1">
          <mxGeometry x="7.190000000000055" y="24.329999999999927" width="20" height="20" as="geometry" />
        </mxCell>
        <mxCell id="8pIL7bb8HOB02kKPxIAk-293" value="" style="shape=mxgraph.mockup.containers.marginRect;rectMarginTop=10;strokeColor=#666666;strokeWidth=1;dashed=0;rounded=1;arcSize=5;recursiveResize=0;html=1;whiteSpace=wrap;" parent="1" vertex="1">
          <mxGeometry x="1478.7100000000003" y="814.01" width="92.5" height="50" as="geometry" />
        </mxCell>
        <mxCell id="8pIL7bb8HOB02kKPxIAk-299" value="Next week&#39;s market return will be _____?" style="rounded=1;whiteSpace=wrap;html=1;dashed=1;" parent="1" vertex="1">
          <mxGeometry x="1288.1700000000003" y="608.3400000000001" width="118.66" height="40" as="geometry" />
        </mxCell>
        <mxCell id="8pIL7bb8HOB02kKPxIAk-301" style="edgeStyle=orthogonalEdgeStyle;rounded=1;orthogonalLoop=1;jettySize=auto;html=1;entryX=-0.003;entryY=0.57;entryDx=0;entryDy=0;entryPerimeter=0;curved=0;" parent="1" source="8pIL7bb8HOB02kKPxIAk-255" target="8pIL7bb8HOB02kKPxIAk-278" edge="1">
          <mxGeometry relative="1" as="geometry" />
        </mxCell>
        <mxCell id="8pIL7bb8HOB02kKPxIAk-303" value="" style="verticalLabelPosition=bottom;verticalAlign=top;html=1;shape=mxgraph.basic.tick;fillColor=#000000;" parent="1" vertex="1">
          <mxGeometry x="1445.9" y="614.01" width="20" height="20" as="geometry" />
        </mxCell>
        <mxCell id="8pIL7bb8HOB02kKPxIAk-304" value="" style="verticalLabelPosition=bottom;verticalAlign=top;html=1;shape=mxgraph.basic.tick;fillColor=#000000;" parent="1" vertex="1">
          <mxGeometry x="1446.71" y="719.01" width="20" height="20" as="geometry" />
        </mxCell>
        <mxCell id="8pIL7bb8HOB02kKPxIAk-305" value="Majority Vote" style="text;html=1;strokeColor=none;fillColor=none;align=center;verticalAlign=middle;whiteSpace=wrap;rounded=0;fontSize=14;" parent="1" vertex="1">
          <mxGeometry x="1470.01" y="589.01" width="90" height="20" as="geometry" />
        </mxCell>
        <mxCell id="8pIL7bb8HOB02kKPxIAk-316" value="&lt;font style=&quot;font-size: 14px;&quot;&gt;Low&lt;/font&gt;" style="shape=rect;strokeColor=none;fillColor=#000000;strokeWidth=1;dashed=0;rounded=1;arcSize=20;fontColor=#ffffff;fontSize=14;spacing=2;spacingTop=-2;align=center;autosize=1;spacingLeft=4;resizeWidth=0;resizeHeight=0;perimeter=none;html=1;whiteSpace=wrap;" parent="1" vertex="1">
          <mxGeometry x="1505.68" y="815.01" width="35.75" height="17.5" as="geometry" />
        </mxCell>
        <mxCell id="8pIL7bb8HOB02kKPxIAk-317" style="edgeStyle=orthogonalEdgeStyle;rounded=1;orthogonalLoop=1;jettySize=auto;html=1;entryX=0.003;entryY=0.633;entryDx=0;entryDy=0;entryPerimeter=0;curved=0;" parent="1" source="8pIL7bb8HOB02kKPxIAk-268" target="8pIL7bb8HOB02kKPxIAk-287" edge="1">
          <mxGeometry relative="1" as="geometry" />
        </mxCell>
        <mxCell id="8pIL7bb8HOB02kKPxIAk-322" value="" style="verticalLabelPosition=bottom;shadow=0;dashed=0;align=center;html=1;verticalAlign=top;strokeWidth=1;shape=mxgraph.mockup.graphics.pieChart;strokeColor=#000000;parts=10,20,0,0;partColors=#FFFFFF,#FFFFFF,#c0c0c0,#b0b0b0;strokeWidth=2;noLabel=0;" parent="1" vertex="1">
          <mxGeometry x="1615.72" y="699.85" width="74.28" height="74.15" as="geometry" />
        </mxCell>
        <mxCell id="8pIL7bb8HOB02kKPxIAk-323" style="edgeStyle=orthogonalEdgeStyle;rounded=1;orthogonalLoop=1;jettySize=auto;html=1;entryX=-0.007;entryY=0.54;entryDx=0;entryDy=0;entryPerimeter=0;curved=0;" parent="1" source="8pIL7bb8HOB02kKPxIAk-278" target="8pIL7bb8HOB02kKPxIAk-322" edge="1">
          <mxGeometry relative="1" as="geometry" />
        </mxCell>
        <mxCell id="8pIL7bb8HOB02kKPxIAk-324" style="edgeStyle=orthogonalEdgeStyle;rounded=1;orthogonalLoop=1;jettySize=auto;html=1;entryX=-0.007;entryY=0.525;entryDx=0;entryDy=0;entryPerimeter=0;curved=0;" parent="1" source="8pIL7bb8HOB02kKPxIAk-287" target="8pIL7bb8HOB02kKPxIAk-322" edge="1">
          <mxGeometry relative="1" as="geometry" />
        </mxCell>
        <mxCell id="8pIL7bb8HOB02kKPxIAk-325" style="edgeStyle=orthogonalEdgeStyle;rounded=1;orthogonalLoop=1;jettySize=auto;html=1;entryX=-0.007;entryY=0.534;entryDx=0;entryDy=0;entryPerimeter=0;curved=0;" parent="1" source="8pIL7bb8HOB02kKPxIAk-293" target="8pIL7bb8HOB02kKPxIAk-322" edge="1">
          <mxGeometry relative="1" as="geometry" />
        </mxCell>
        <mxCell id="8pIL7bb8HOB02kKPxIAk-326" value="The weights of crypto and cash" style="text;html=1;strokeColor=none;fillColor=none;align=center;verticalAlign=middle;whiteSpace=wrap;rounded=0;fontSize=14;" parent="1" vertex="1">
          <mxGeometry x="1609.0300000000002" y="641.3399999999999" width="80.67" height="20" as="geometry" />
        </mxCell>
        <mxCell id="8pIL7bb8HOB02kKPxIAk-361" value="Cash" style="text;html=1;strokeColor=none;fillColor=none;align=center;verticalAlign=middle;whiteSpace=wrap;rounded=0;fontSize=14;" parent="1" vertex="1">
          <mxGeometry x="1615.72" y="714.68" width="40.67" height="20" as="geometry" />
        </mxCell>
        <mxCell id="8pIL7bb8HOB02kKPxIAk-362" value="Crypto" style="text;html=1;strokeColor=none;fillColor=none;align=center;verticalAlign=middle;whiteSpace=wrap;rounded=0;fontSize=14;" parent="1" vertex="1">
          <mxGeometry x="1646" y="736.01" width="40.67" height="20" as="geometry" />
        </mxCell>
        <mxCell id="I_BGdHNlwkZM-n6bZFzo-12" style="edgeStyle=orthogonalEdgeStyle;rounded=0;orthogonalLoop=1;jettySize=auto;html=1;" parent="1" source="8pIL7bb8HOB02kKPxIAk-92" target="8pIL7bb8HOB02kKPxIAk-90" edge="1">
          <mxGeometry relative="1" as="geometry" />
        </mxCell>
        <mxCell id="I_BGdHNlwkZM-n6bZFzo-14" style="edgeStyle=orthogonalEdgeStyle;rounded=0;orthogonalLoop=1;jettySize=auto;html=1;" parent="1" source="8pIL7bb8HOB02kKPxIAk-105" target="8pIL7bb8HOB02kKPxIAk-111" edge="1">
          <mxGeometry relative="1" as="geometry" />
        </mxCell>
        <mxCell id="I_BGdHNlwkZM-n6bZFzo-15" style="edgeStyle=orthogonalEdgeStyle;rounded=1;orthogonalLoop=1;jettySize=auto;html=1;entryX=0.011;entryY=0.605;entryDx=0;entryDy=0;entryPerimeter=0;curved=0;" parent="1" source="8pIL7bb8HOB02kKPxIAk-90" target="8pIL7bb8HOB02kKPxIAk-138" edge="1">
          <mxGeometry relative="1" as="geometry" />
        </mxCell>
        <mxCell id="I_BGdHNlwkZM-n6bZFzo-16" style="edgeStyle=orthogonalEdgeStyle;rounded=1;orthogonalLoop=1;jettySize=auto;html=1;entryX=0.011;entryY=0.595;entryDx=0;entryDy=0;entryPerimeter=0;curved=0;" parent="1" source="8pIL7bb8HOB02kKPxIAk-111" target="8pIL7bb8HOB02kKPxIAk-144" edge="1">
          <mxGeometry relative="1" as="geometry">
            <Array as="points">
              <mxPoint x="970" y="814" />
              <mxPoint x="970" y="689" />
            </Array>
          </mxGeometry>
        </mxCell>
        <mxCell id="I_BGdHNlwkZM-n6bZFzo-17" value="" style="verticalLabelPosition=bottom;verticalAlign=top;html=1;shape=mxgraph.basic.tick;fillColor=#000000;" parent="1" vertex="1">
          <mxGeometry x="971.5799999999999" y="614.6899999999999" width="20" height="20" as="geometry" />
        </mxCell>
        <mxCell id="I_BGdHNlwkZM-n6bZFzo-18" value="" style="verticalLabelPosition=bottom;verticalAlign=top;html=1;shape=mxgraph.basic.tick;fillColor=#000000;" parent="1" vertex="1">
          <mxGeometry x="971.58" y="665.6899999999998" width="20" height="20" as="geometry" />
        </mxCell>
        <mxCell id="bA_C_CA7xueAo-WzbrrJ-225" style="edgeStyle=orthogonalEdgeStyle;rounded=0;orthogonalLoop=1;jettySize=auto;html=1;entryX=0;entryY=0.5;entryDx=0;entryDy=0;" edge="1" parent="1" source="bA_C_CA7xueAo-WzbrrJ-51" target="bA_C_CA7xueAo-WzbrrJ-206">
          <mxGeometry relative="1" as="geometry" />
        </mxCell>
        <mxCell id="bA_C_CA7xueAo-WzbrrJ-51" value="" style="rounded=1;whiteSpace=wrap;html=1;fontSize=14;" vertex="1" parent="1">
          <mxGeometry x="1730" y="576.9999999999999" width="435" height="300" as="geometry" />
        </mxCell>
        <mxCell id="bA_C_CA7xueAo-WzbrrJ-52" value="Portfolio Optimization Team" style="text;html=1;strokeColor=none;fillColor=default;align=center;verticalAlign=middle;whiteSpace=wrap;rounded=0;fontStyle=1;fontSize=14;" vertex="1" parent="1">
          <mxGeometry x="1853.3600000000001" y="566.34" width="188.29" height="20" as="geometry" />
        </mxCell>
        <mxCell id="bA_C_CA7xueAo-WzbrrJ-53" value="" style="sketch=0;outlineConnect=0;fillColor=#d80073;strokeColor=#A50040;dashed=0;verticalLabelPosition=bottom;verticalAlign=top;align=center;html=1;fontSize=14;fontStyle=0;aspect=fixed;pointerEvents=1;shape=mxgraph.aws4.waf_bot;fontColor=#ffffff;" vertex="1" parent="1">
          <mxGeometry x="1818.19" y="718.6699999999997" width="40" height="40" as="geometry" />
        </mxCell>
        <mxCell id="bA_C_CA7xueAo-WzbrrJ-54" value="" style="group" vertex="1" connectable="0" parent="1">
          <mxGeometry x="1740.75" y="708.67" width="40.000000000000114" height="51" as="geometry" />
        </mxCell>
        <mxCell id="bA_C_CA7xueAo-WzbrrJ-55" value="" style="shape=note;whiteSpace=wrap;html=1;backgroundOutline=1;darkOpacity=0.05;size=11;strokeWidth=2;fillColor=#fff2cc;strokeColor=#d6b656;fontSize=14;" vertex="1" parent="bA_C_CA7xueAo-WzbrrJ-54">
          <mxGeometry width="40" height="50" as="geometry" />
        </mxCell>
        <mxCell id="bA_C_CA7xueAo-WzbrrJ-56" value="" style="group;fontSize=14;" vertex="1" connectable="0" parent="bA_C_CA7xueAo-WzbrrJ-54">
          <mxGeometry x="10" y="12" width="30.000000000000114" height="39" as="geometry" />
        </mxCell>
        <mxCell id="bA_C_CA7xueAo-WzbrrJ-57" value="" style="shape=note;whiteSpace=wrap;html=1;backgroundOutline=1;darkOpacity=0.05;size=11;strokeWidth=2;fillColor=#d80073;strokeColor=#A50040;fontSize=14;fontColor=#ffffff;" vertex="1" parent="bA_C_CA7xueAo-WzbrrJ-56">
          <mxGeometry x="-9.999999999999886" y="-11" width="40" height="50" as="geometry" />
        </mxCell>
        <mxCell id="bA_C_CA7xueAo-WzbrrJ-58" value="" style="line;strokeWidth=2;html=1;container=0;opacity=50;fontSize=14;" vertex="1" parent="bA_C_CA7xueAo-WzbrrJ-56">
          <mxGeometry width="15" height="10" as="geometry" />
        </mxCell>
        <mxCell id="bA_C_CA7xueAo-WzbrrJ-59" value="" style="line;strokeWidth=2;html=1;container=0;opacity=50;fontSize=14;" vertex="1" parent="bA_C_CA7xueAo-WzbrrJ-56">
          <mxGeometry y="9" width="20" height="10" as="geometry" />
        </mxCell>
        <mxCell id="bA_C_CA7xueAo-WzbrrJ-60" value="" style="line;strokeWidth=2;html=1;container=0;opacity=50;fontSize=14;" vertex="1" parent="bA_C_CA7xueAo-WzbrrJ-56">
          <mxGeometry y="18" width="15" height="10" as="geometry" />
        </mxCell>
        <mxCell id="bA_C_CA7xueAo-WzbrrJ-61" value="" style="group" vertex="1" connectable="0" parent="1">
          <mxGeometry x="1741.95" y="783.67" width="40" height="51" as="geometry" />
        </mxCell>
        <mxCell id="bA_C_CA7xueAo-WzbrrJ-62" value="" style="shape=note;whiteSpace=wrap;html=1;backgroundOutline=1;darkOpacity=0.05;size=11;strokeWidth=2;fillColor=#dae8fc;strokeColor=#6c8ebf;fontSize=14;" vertex="1" parent="bA_C_CA7xueAo-WzbrrJ-61">
          <mxGeometry width="40" height="50" as="geometry" />
        </mxCell>
        <mxCell id="bA_C_CA7xueAo-WzbrrJ-63" value="" style="group;fontSize=14;" vertex="1" connectable="0" parent="bA_C_CA7xueAo-WzbrrJ-61">
          <mxGeometry x="10" y="12" width="30" height="39" as="geometry" />
        </mxCell>
        <mxCell id="bA_C_CA7xueAo-WzbrrJ-64" value="" style="shape=note;whiteSpace=wrap;html=1;backgroundOutline=1;darkOpacity=0.05;size=11;strokeWidth=2;fillColor=#a20025;strokeColor=#6F0000;fontSize=14;fontColor=#ffffff;" vertex="1" parent="bA_C_CA7xueAo-WzbrrJ-63">
          <mxGeometry x="-10" y="-11" width="40" height="50" as="geometry" />
        </mxCell>
        <mxCell id="bA_C_CA7xueAo-WzbrrJ-65" value="" style="line;strokeWidth=2;html=1;container=0;opacity=50;fontSize=14;" vertex="1" parent="bA_C_CA7xueAo-WzbrrJ-63">
          <mxGeometry width="15" height="10" as="geometry" />
        </mxCell>
        <mxCell id="bA_C_CA7xueAo-WzbrrJ-66" value="" style="line;strokeWidth=2;html=1;container=0;opacity=50;fontSize=14;" vertex="1" parent="bA_C_CA7xueAo-WzbrrJ-63">
          <mxGeometry y="9" width="20" height="10" as="geometry" />
        </mxCell>
        <mxCell id="bA_C_CA7xueAo-WzbrrJ-67" value="" style="line;strokeWidth=2;html=1;container=0;opacity=50;fontSize=14;" vertex="1" parent="bA_C_CA7xueAo-WzbrrJ-63">
          <mxGeometry y="18" width="15" height="10" as="geometry" />
        </mxCell>
        <mxCell id="bA_C_CA7xueAo-WzbrrJ-68" value="" style="sketch=0;outlineConnect=0;fillColor=#a20025;strokeColor=#6F0000;dashed=0;verticalLabelPosition=bottom;verticalAlign=top;align=center;html=1;fontSize=14;fontStyle=0;aspect=fixed;pointerEvents=1;shape=mxgraph.aws4.waf_bot;fontColor=#ffffff;" vertex="1" parent="1">
          <mxGeometry x="1818.19" y="793.67" width="40" height="40" as="geometry" />
        </mxCell>
        <mxCell id="bA_C_CA7xueAo-WzbrrJ-69" value="" style="endArrow=none;dashed=1;html=1;dashPattern=1 3;strokeWidth=2;rounded=0;fontSize=14;" edge="1" parent="1">
          <mxGeometry width="50" height="50" relative="1" as="geometry">
            <mxPoint x="1760.25" y="778.67" as="sourcePoint" />
            <mxPoint x="1760.25" y="758.67" as="targetPoint" />
          </mxGeometry>
        </mxCell>
        <mxCell id="bA_C_CA7xueAo-WzbrrJ-70" value="" style="endArrow=none;dashed=1;html=1;dashPattern=1 3;strokeWidth=2;rounded=0;fontSize=14;" edge="1" parent="1">
          <mxGeometry width="50" height="50" relative="1" as="geometry">
            <mxPoint x="1837.69" y="778.67" as="sourcePoint" />
            <mxPoint x="1837.69" y="758.67" as="targetPoint" />
          </mxGeometry>
        </mxCell>
        <mxCell id="bA_C_CA7xueAo-WzbrrJ-71" style="edgeStyle=orthogonalEdgeStyle;rounded=0;orthogonalLoop=1;jettySize=auto;html=1;exitX=0;exitY=0;exitDx=40;exitDy=30.5;exitPerimeter=0;" edge="1" parent="1" source="bA_C_CA7xueAo-WzbrrJ-55" target="bA_C_CA7xueAo-WzbrrJ-53">
          <mxGeometry relative="1" as="geometry" />
        </mxCell>
        <mxCell id="bA_C_CA7xueAo-WzbrrJ-72" style="edgeStyle=orthogonalEdgeStyle;rounded=0;orthogonalLoop=1;jettySize=auto;html=1;exitX=0;exitY=0;exitDx=40;exitDy=30.5;exitPerimeter=0;" edge="1" parent="1" source="bA_C_CA7xueAo-WzbrrJ-62" target="bA_C_CA7xueAo-WzbrrJ-68">
          <mxGeometry relative="1" as="geometry" />
        </mxCell>
        <mxCell id="bA_C_CA7xueAo-WzbrrJ-73" value="Prompt" style="text;html=1;strokeColor=none;fillColor=none;align=center;verticalAlign=middle;whiteSpace=wrap;rounded=0;fontSize=14;" vertex="1" parent="1">
          <mxGeometry x="1735.75" y="680.67" width="50" height="20" as="geometry" />
        </mxCell>
        <mxCell id="bA_C_CA7xueAo-WzbrrJ-74" value="Prompt" style="text;html=1;strokeColor=none;fillColor=none;align=center;verticalAlign=middle;whiteSpace=wrap;rounded=0;fontSize=14;" vertex="1" parent="1">
          <mxGeometry x="1740.75" y="843.67" width="50" height="20" as="geometry" />
        </mxCell>
        <mxCell id="bA_C_CA7xueAo-WzbrrJ-75" value="Network Strategy Agent" style="text;html=1;strokeColor=none;fillColor=none;align=center;verticalAlign=middle;whiteSpace=wrap;rounded=0;fontSize=14;" vertex="1" parent="1">
          <mxGeometry x="1787.9199999999998" y="688.6699999999997" width="105.65" height="20" as="geometry" />
        </mxCell>
        <mxCell id="bA_C_CA7xueAo-WzbrrJ-76" value="Macro Strategy Agent" style="text;html=1;strokeColor=none;fillColor=none;align=center;verticalAlign=middle;whiteSpace=wrap;rounded=0;fontSize=14;" vertex="1" parent="1">
          <mxGeometry x="1778.75" y="843.67" width="118.88" height="20" as="geometry" />
        </mxCell>
        <mxCell id="bA_C_CA7xueAo-WzbrrJ-77" value="" style="shape=mxgraph.mockup.containers.marginRect;rectMarginTop=10;strokeColor=#666666;strokeWidth=1;dashed=0;rounded=1;arcSize=5;recursiveResize=0;html=1;whiteSpace=wrap;" vertex="1" parent="1">
          <mxGeometry x="1949.0500000000002" y="611.67" width="92.5" height="50" as="geometry" />
        </mxCell>
        <mxCell id="bA_C_CA7xueAo-WzbrrJ-78" value="" style="verticalLabelPosition=bottom;verticalAlign=top;html=1;shape=mxgraph.basic.tick;fillColor=#000000;" vertex="1" parent="bA_C_CA7xueAo-WzbrrJ-77">
          <mxGeometry x="7.189999999999941" y="23" width="20" height="20" as="geometry" />
        </mxCell>
        <mxCell id="bA_C_CA7xueAo-WzbrrJ-79" value="" style="verticalLabelPosition=bottom;verticalAlign=top;html=1;shape=mxgraph.basic.tick;fillColor=#000000;" vertex="1" parent="bA_C_CA7xueAo-WzbrrJ-77">
          <mxGeometry x="36.249999999999886" y="23" width="20" height="20" as="geometry" />
        </mxCell>
        <mxCell id="bA_C_CA7xueAo-WzbrrJ-80" value="" style="verticalLabelPosition=bottom;verticalAlign=top;html=1;shape=mxgraph.basic.tick;fillColor=#000000;" vertex="1" parent="bA_C_CA7xueAo-WzbrrJ-77">
          <mxGeometry x="61.249999999999886" y="23" width="20" height="20" as="geometry" />
        </mxCell>
        <mxCell id="bA_C_CA7xueAo-WzbrrJ-81" value="&lt;font style=&quot;font-size: 14px;&quot;&gt;Mcap&lt;/font&gt;" style="shape=rect;strokeColor=none;fillColor=#000000;strokeWidth=1;dashed=0;rounded=1;arcSize=20;fontColor=#ffffff;fontSize=14;spacing=2;spacingTop=-2;align=center;autosize=1;spacingLeft=4;resizeWidth=0;resizeHeight=0;perimeter=none;html=1;whiteSpace=wrap;" vertex="1" parent="bA_C_CA7xueAo-WzbrrJ-77">
          <mxGeometry x="26.749999999999886" y="-1" width="38.5" height="20" as="geometry" />
        </mxCell>
        <mxCell id="bA_C_CA7xueAo-WzbrrJ-82" value="" style="shape=mxgraph.mockup.containers.marginRect;rectMarginTop=10;strokeColor=#666666;strokeWidth=1;dashed=0;rounded=1;arcSize=5;recursiveResize=0;html=1;whiteSpace=wrap;" vertex="1" parent="1">
          <mxGeometry x="1949.05" y="715.34" width="92.5" height="50" as="geometry" />
        </mxCell>
        <mxCell id="bA_C_CA7xueAo-WzbrrJ-83" value="1/N" style="shape=rect;strokeColor=none;fillColor=#000000;strokeWidth=1;dashed=0;rounded=1;arcSize=20;fontColor=#ffffff;fontSize=14;spacing=2;spacingTop=-2;align=center;autosize=1;spacingLeft=4;resizeWidth=0;resizeHeight=0;perimeter=none;html=1;whiteSpace=wrap;" vertex="1" parent="bA_C_CA7xueAo-WzbrrJ-82">
          <mxGeometry x="26.19" y="-3.67" width="38.81" height="23.67" as="geometry" />
        </mxCell>
        <mxCell id="bA_C_CA7xueAo-WzbrrJ-84" value="" style="verticalLabelPosition=bottom;verticalAlign=top;html=1;shape=mxgraph.basic.tick;fillColor=#000000;" vertex="1" parent="bA_C_CA7xueAo-WzbrrJ-82">
          <mxGeometry x="7.190000000000055" y="24.329999999999927" width="20" height="20" as="geometry" />
        </mxCell>
        <mxCell id="bA_C_CA7xueAo-WzbrrJ-85" value="" style="shape=mxgraph.mockup.containers.marginRect;rectMarginTop=10;strokeColor=#666666;strokeWidth=1;dashed=0;rounded=1;arcSize=5;recursiveResize=0;html=1;whiteSpace=wrap;" vertex="1" parent="1">
          <mxGeometry x="1949.0500000000002" y="814.67" width="92.5" height="50" as="geometry" />
        </mxCell>
        <mxCell id="bA_C_CA7xueAo-WzbrrJ-86" value="Next week&#39;s market return will be _____?" style="rounded=1;whiteSpace=wrap;html=1;dashed=1;" vertex="1" parent="1">
          <mxGeometry x="1758.5100000000002" y="609.0000000000001" width="118.66" height="40" as="geometry" />
        </mxCell>
        <mxCell id="bA_C_CA7xueAo-WzbrrJ-87" style="edgeStyle=orthogonalEdgeStyle;rounded=1;orthogonalLoop=1;jettySize=auto;html=1;entryX=-0.003;entryY=0.57;entryDx=0;entryDy=0;entryPerimeter=0;curved=0;" edge="1" parent="1" source="bA_C_CA7xueAo-WzbrrJ-53" target="bA_C_CA7xueAo-WzbrrJ-77">
          <mxGeometry relative="1" as="geometry" />
        </mxCell>
        <mxCell id="bA_C_CA7xueAo-WzbrrJ-88" value="" style="verticalLabelPosition=bottom;verticalAlign=top;html=1;shape=mxgraph.basic.tick;fillColor=#000000;" vertex="1" parent="1">
          <mxGeometry x="1916.24" y="614.67" width="20" height="20" as="geometry" />
        </mxCell>
        <mxCell id="bA_C_CA7xueAo-WzbrrJ-89" value="" style="verticalLabelPosition=bottom;verticalAlign=top;html=1;shape=mxgraph.basic.tick;fillColor=#000000;" vertex="1" parent="1">
          <mxGeometry x="1917.05" y="719.67" width="20" height="20" as="geometry" />
        </mxCell>
        <mxCell id="bA_C_CA7xueAo-WzbrrJ-90" value="Majority Vote" style="text;html=1;strokeColor=none;fillColor=none;align=center;verticalAlign=middle;whiteSpace=wrap;rounded=0;fontSize=14;" vertex="1" parent="1">
          <mxGeometry x="1940.35" y="589.67" width="90" height="20" as="geometry" />
        </mxCell>
        <mxCell id="bA_C_CA7xueAo-WzbrrJ-91" value="&lt;font style=&quot;font-size: 14px;&quot;&gt;Mean-Var&lt;/font&gt;" style="shape=rect;strokeColor=none;fillColor=#000000;strokeWidth=1;dashed=0;rounded=1;arcSize=20;fontColor=#ffffff;fontSize=14;spacing=2;spacingTop=-2;align=center;autosize=1;spacingLeft=4;resizeWidth=0;resizeHeight=0;perimeter=none;html=1;whiteSpace=wrap;" vertex="1" parent="1">
          <mxGeometry x="1960" y="813.67" width="73" height="20.33" as="geometry" />
        </mxCell>
        <mxCell id="bA_C_CA7xueAo-WzbrrJ-92" style="edgeStyle=orthogonalEdgeStyle;rounded=1;orthogonalLoop=1;jettySize=auto;html=1;entryX=0.003;entryY=0.633;entryDx=0;entryDy=0;entryPerimeter=0;curved=0;" edge="1" parent="1" source="bA_C_CA7xueAo-WzbrrJ-68" target="bA_C_CA7xueAo-WzbrrJ-82">
          <mxGeometry relative="1" as="geometry" />
        </mxCell>
        <mxCell id="bA_C_CA7xueAo-WzbrrJ-97" value="The weights of crypto" style="text;html=1;strokeColor=none;fillColor=none;align=center;verticalAlign=middle;whiteSpace=wrap;rounded=0;fontSize=14;" vertex="1" parent="1">
          <mxGeometry x="2079.3700000000003" y="641.9999999999999" width="80.67" height="20" as="geometry" />
        </mxCell>
        <mxCell id="bA_C_CA7xueAo-WzbrrJ-104" value="" style="group" vertex="1" connectable="0" parent="1">
          <mxGeometry x="1463.0900000000001" y="434.6699999999999" width="67.56" height="58.000000000000114" as="geometry" />
        </mxCell>
        <mxCell id="bA_C_CA7xueAo-WzbrrJ-105" value="" style="shape=datastore;whiteSpace=wrap;html=1;fillColor=none;strokeColor=#000000;fontSize=14;strokeWidth=2;" vertex="1" parent="bA_C_CA7xueAo-WzbrrJ-104">
          <mxGeometry x="8.779999999999859" y="23.000000000000114" width="50" height="35" as="geometry" />
        </mxCell>
        <mxCell id="bA_C_CA7xueAo-WzbrrJ-106" value="Database" style="text;html=1;strokeColor=none;fillColor=none;align=center;verticalAlign=middle;whiteSpace=wrap;rounded=0;fontSize=14;" vertex="1" parent="bA_C_CA7xueAo-WzbrrJ-104">
          <mxGeometry width="67.56" height="20" as="geometry" />
        </mxCell>
        <mxCell id="bA_C_CA7xueAo-WzbrrJ-149" style="edgeStyle=orthogonalEdgeStyle;rounded=1;orthogonalLoop=1;jettySize=auto;html=1;entryX=0;entryY=0.5;entryDx=0;entryDy=0;curved=0;" edge="1" parent="1" source="bA_C_CA7xueAo-WzbrrJ-129" target="bA_C_CA7xueAo-WzbrrJ-105">
          <mxGeometry relative="1" as="geometry" />
        </mxCell>
        <mxCell id="bA_C_CA7xueAo-WzbrrJ-129" value="" style="sketch=0;outlineConnect=0;fillColor=#a20025;strokeColor=#6F0000;dashed=0;verticalLabelPosition=bottom;verticalAlign=top;align=center;html=1;fontSize=14;fontStyle=0;aspect=fixed;pointerEvents=1;shape=mxgraph.aws4.waf_bot;fontColor=#ffffff;" vertex="1" parent="1">
          <mxGeometry x="1267.01" y="423.0000000000001" width="40" height="40" as="geometry" />
        </mxCell>
        <mxCell id="bA_C_CA7xueAo-WzbrrJ-151" style="edgeStyle=orthogonalEdgeStyle;rounded=1;orthogonalLoop=1;jettySize=auto;html=1;entryX=0;entryY=0.5;entryDx=0;entryDy=0;curved=0;" edge="1" parent="1" source="bA_C_CA7xueAo-WzbrrJ-130" target="bA_C_CA7xueAo-WzbrrJ-105">
          <mxGeometry relative="1" as="geometry" />
        </mxCell>
        <mxCell id="bA_C_CA7xueAo-WzbrrJ-130" value="" style="sketch=0;outlineConnect=0;fillColor=#d80073;strokeColor=#A50040;dashed=0;verticalLabelPosition=bottom;verticalAlign=top;align=center;html=1;fontSize=14;fontStyle=0;aspect=fixed;pointerEvents=1;shape=mxgraph.aws4.waf_bot;fontColor=#ffffff;" vertex="1" parent="1">
          <mxGeometry x="1268.12" y="486.33000000000015" width="40" height="40" as="geometry" />
        </mxCell>
        <mxCell id="bA_C_CA7xueAo-WzbrrJ-132" value="" style="sketch=0;aspect=fixed;pointerEvents=1;shadow=0;dashed=0;html=1;strokeColor=none;labelPosition=center;verticalLabelPosition=bottom;verticalAlign=top;align=center;fillColor=#000000;shape=mxgraph.mscae.enterprise.tool;" vertex="1" parent="1">
          <mxGeometry x="1205.25" y="443.35" width="26.84" height="24.16" as="geometry" />
        </mxCell>
        <mxCell id="bA_C_CA7xueAo-WzbrrJ-133" value="" style="sketch=0;aspect=fixed;pointerEvents=1;shadow=0;dashed=0;html=1;strokeColor=none;labelPosition=center;verticalLabelPosition=bottom;verticalAlign=top;align=center;fillColor=#000000;shape=mxgraph.mscae.enterprise.tool;" vertex="1" parent="1">
          <mxGeometry x="1205.25" y="480.34000000000003" width="26.84" height="24.16" as="geometry" />
        </mxCell>
        <mxCell id="bA_C_CA7xueAo-WzbrrJ-134" value="Tools" style="text;html=1;strokeColor=none;fillColor=none;align=center;verticalAlign=middle;whiteSpace=wrap;rounded=0;fontSize=14;" vertex="1" parent="1">
          <mxGeometry x="1199.28" y="467.01" width="41.81" height="10" as="geometry" />
        </mxCell>
        <mxCell id="bA_C_CA7xueAo-WzbrrJ-138" style="edgeStyle=orthogonalEdgeStyle;rounded=0;orthogonalLoop=1;jettySize=auto;html=1;" edge="1" parent="1" target="bA_C_CA7xueAo-WzbrrJ-129">
          <mxGeometry relative="1" as="geometry">
            <mxPoint x="1180.5500000000002" y="442.5354545454545" as="sourcePoint" />
          </mxGeometry>
        </mxCell>
        <mxCell id="bA_C_CA7xueAo-WzbrrJ-139" style="edgeStyle=orthogonalEdgeStyle;rounded=0;orthogonalLoop=1;jettySize=auto;html=1;" edge="1" parent="1" target="bA_C_CA7xueAo-WzbrrJ-130">
          <mxGeometry relative="1" as="geometry">
            <mxPoint x="1173.5300000000002" y="506.35363636363627" as="sourcePoint" />
          </mxGeometry>
        </mxCell>
        <mxCell id="bA_C_CA7xueAo-WzbrrJ-142" value="" style="group;fontSize=14;" vertex="1" connectable="0" parent="1">
          <mxGeometry x="1135.33" y="407.68000000000006" width="61.84000000000003" height="59.33333333333333" as="geometry" />
        </mxCell>
        <mxCell id="bA_C_CA7xueAo-WzbrrJ-143" value="" style="shape=image;verticalLabelPosition=bottom;labelBackgroundColor=default;verticalAlign=top;aspect=fixed;imageAspect=0;image=data:image/png,iVBORw0KGgoAAAANSUhEUgAAA18AAACwCAYAAADwvNSjAAAAGXRFWHRTb2Z0d2FyZQBBZG9iZSBJbWFnZVJlYWR5ccllPAAAQ3xJREFUeNrsnQuYFNWZ988g99sMgtwvTYw4oMiAdwOhZ1WMwSzDft42us6Mums07gPjE7/EfJsws9mN8TMrw66iZjUzJJpPJesMTxwvxDg94jUoDKKIF0JzE0EiMwMogshXb80pqOmp6q7qek91VfX/51PPYHd1XU6dOuf9n/c97xECAAAAAAAAAAAAAAAAAAAAAAAAAAAAAAAAAAAAAAAAAAAAAAAAAAAAAAAAAAAAAAAAAAAAAAAAAAAAAAAAAAAAAAAAAAAAAAAAAAAAAAAAAAAAAAAAAAAAAAAAAAAAAAAAAAAAILgUZNphwJiLqrU/i1BUIFsO7Hi+AKUAAAAAAADynR4oAgAAAAAAAACA+AIAAAAAAAAAiC8AAAAAAAAAABBfAAAAAAAAAADxBQAAAAAAAAD5RM9sf/jj267Ttn9w/bvlK5rEth07u3x2ZdlcMXb0KLabumfpQ90+u+2WG9mO/+rqNfpm5vyzZ+hbPt/DwLEX440CAAAAAADABni+gCPa9x8QN//bUlF4/lX6Rv+mzwAAAAAAAAAQX4CROx/6vfhdU8ux/6d/z73lXyHAAAAAAAAAgPgCnJiFl8H6D5Ji5nU/1P8CAAAAAAAAIL6AR0hc2Xm4tu78RPeAQYABAAAAAAAA8QU80vTiG2m/J2FGAgwAAAAAAABgT08UQXQhUURztZpeXC0KBw4Ql80+W/zohstdH2fVmnccnQsAAAAAAAAA8ZWX3Pyz+3Xh1cknx0ID3Qqwl9ZsQGECAAAAAADgEYQdRhTyRB0XXsdZ+tjTEF4AAAAAAADkAHi+Isr697fYijLKXDhx+CBn4muttfiiMEaEGgIAcsHRo0cXa39KPB6mtaCgoAqliXqEegQAgPgCnrETTcSdDy8Xv7rjekfHsZvvdcvV3xbjR56kL7YMAAA+QwZzHMUAUI8AABBfIBC89X7S9jtKD+/U+2UXdjhz+hQxc8YU/d8QYAAAAAAAAEB85S2Z1t16sfU9MXHOWVkJL118SeH13bmzxdRJE/RU859q/+U7R48ejTvZr6CgIIFaCgDIo7aRvExFDndPam1kEqUGAID4AqGA5mKRdyttz7Zrr77FRgyxF182oYuG8DKYekpMNC39qTi/9B/zxYggA8IIV5mmbTHhct6Adoxjj0JurdpGE/VaIcwAACEWWCWyTZwtP45neSzjn9Q2tpnbSNlOtqHEAQB5Jb7e2fi+WL6iyfXvdu/5a7fPml96TfTt01vpjWZzrbbipmO/RXl8ILZ/tDMQ9/De1l2O9mtZt0nETN6v1Ht4cuUqy9+d2L8Xa3mGyKgo07Z5wvsEbTMxucVTjA4yMEiErYAYAwAEuF2MS6FFf4sUnKbESsRp526V7WQLtZXwlAEAIi++OvbtF9t28IiNTywEGTdc12pfHvv0LQj3sPqdvzjajzxfbfs/F0UD+1new3tbP7b83RBNfKkuz4AYFmRIVGjbAimQ/MQYQV6oXQeN8DZq2zIIMQBAAARXuegcjIrl8FKMNrLCJMaWUVsJIQYACDJY5yuCfPypcxHY8tZfbIWZHVahij3bOyIlurStWvvnZm1bnGMDgzBEYLN2XZu1baEUhgAA4EebGKM2kdof7X/XatvCALSLVmKM2mtqIxukSAQAgMCBOV9RFF97nYuv1k0fidlnfO2Y98tgi434mlTwpRj92OOiZ0eHJrjaU74dFwUjg0TXAqEmfIaDmDQwFmnXWlpQUNCKGg8AUNQelsj2sCJkl05euXWiMywRAAAgvoA6Dh76Ug8ldMPrG7eKS846VfTbtk303r1b2z4RH+4tEFaO0bM7dou+Bz6JopER1/7UieCN5tpRBOEFAFDUHsZkexgP8W004kkCACIlvk4rPkVcWTbX9e8ouUbqHK/4zPPE8GFD2W7qicbuySCyuVY7KDEFJRzpWh6T9DLJ9T388bV1lp+PH3WSmDRhtHje4nvyfpW3PC36f3VE///Pepwgtg8/3fI4xYf2R9HQqNb+LIJhAQDIc9FFHn/yrFeE/FbaMDgFAIic+Bo8aJAYO3qU699ZZTUk4ZXNsdzAeXyrZBODBw0MxD3s2vuy5eeUDv7K2DBL8UXespX9TxJl+zsTbGzsPdDyGP2PHhHjD38emcovDQ0a3S0L4eWvCEoZIuUzAJFoD2keFw1CRWE+KQanAFDbXsSQ2CZ7kHAjYqxa847l572ffkqI//sLW8/Vqn7Hk2i823uA5T5R8npJ4dUcUuFFJHJRZtpWpm2LtY2Sf1BOfExqByDkRhS9z6LT4xWVRD4teLIAsLYTcZl0x+j7K1Aq2YM5XxFj/ftb0gqnSz7bY+nZ2nNCb/FSvxPFzM8/tfV8TT50IGrCK6zCodWPESdZTnFxfA0fCC0AomVQ0eBTXYREl0ECTxcAz31/ian/BxBfwMzhjn1i58rnxfoXXhTt+60F0vgvO8MFZxxsF8OOHNLFVioNA0eIGV+0i609+6UVcFb0HzumMzF7OGgIuZBYpqjBjaWIrRjeLgAia2CRp2thBG+tFeFQAGQltjDQCvEFMrFz5Z/E1v9p0IUXsaZvoRBF3e1lEltGMg1i/v5d4r8Lu6eFJ0H26KDRlucqHDhAzLn6BtF/zBhdaPUaPFgUTinuutPYi8NicMRD/ugTTGVhLFIKsQVAfhlaYZ3r6lv7CECE24CYSWyVQGxBfIEMtG/YqAuurb9vEIc7ui5sbOexMrxeBhRaSF4uK+8XhR5aMXPGFFG84NawNzjU2IR9pDfJmMUrCkIUAOBOeIU55NoJmO8FQHoqRPgyPEN8AX/p8cUXYsAHH4rmufM18fWu7X52iTKs5mrN+nyvLsCcMksTXxEwOuoiUB2QxQsAAOFlQ0FBAdpIAEDoxddsqw/POO1klB4TW3d+Iu58eLn+l9bjuuOGKzofTnuHKHzzTTHo7bd1Adae6Ti9bDxfpvTwhVMmi2HnnSOumhATzzz8lJ5m3gkzQy6+RKfHK6bo2G1SFFEef/JKtdqlX5feNyENoAnyb9zFuTCqCwAIk/BKynZxnfx30mg3zV58GQZtJP4oktdaKI6HRTlJCgLhBQCIhPiypHDwAJQeA5QgY+73a3ThZdDU8oZYdPgjMXRL0vFxKITws4ITLL8rjZ8nhp17jhg158LOxBga+1evEedNXi8S6zZlftYDB+jrhIXc8Fig4NAJbVviZqRV2zdh+q1IMTxoDsa8NAZSG0Z1AQBZ4KfwSsr2jdYiTDhdB9AinLoxpY2kTigu0s9RxeAUACC64gvw8Lumli7CyxBkT35+RPyji+PYeb1INJ374F2W30372ihH4isiXi/OVMpkJFSZhJRnpOFBW7U0MsqkYIyliD0AAHCM1p7U+SS86rVtGWe7mNJGJuU56uV90T2Vy7YyhjYSABAWsMhyjtmSIrwMKPGF3XpbluLLJtnG1EkTbH9TNLCfKDl5dMZjzwq/+OL0elHHX6rKwDCMDG2r1baJdC6TQbECbwwAwIXwooGnCoWnIK9WjbYN0dqrSpXtokU7SeHdVaZ2spYxGREAAEB8RY3Ptu8Qa26/QzT/9gnbfZwkxKAwwuKFt4qPSs6y/P6MDOGCs8/4WsZzhNnzJRcR5fJ61UsDo82v6ydjRttKpXGBkEMAgNO2jzxDixWeol7bJmrtU7WfbWKadrIKTx0AEAYQdpgD0bVxyb16qnhiz0mTbfclzxd5wCg1fCrjL58vxv+v+XryDH3fi6+3PEamuVrk/SoeN1xs3Lbb8ntKABLm+V6icw4VBzTKWplL4wJvDwDAofCiAacGRYdPalsl2iQAAIiY+Gp6cbVY+vjT+r9nzThN3HzVpXrih6iILgOrtbbMkPdrxhft+iLJ5OU6ubJcF169Bg86tg/NGaN5YlY48VqdO3m8rfiKwHyvONNx5qO5AACEBFrDJ6bguPWic75rG4oYAAAiJL5IeH33h7889v8vrdkgVq15RzTdF7414exEF+FkTheJs6ZRJ4uZs6aLm++ssdxn/QdJy8+deqxiI4boW3LX3m7fzZp+Wmgrtxz95TBA6uVkbwAACHq7FxdqFpMn0VWLEgYAgAiKrx/VLuv2GQkwYx2ssIsus7BywlNH+omThwyz/X79B1usxVeaZBupkPcrVXyRpzHkni+uDF9IdAEACAsq5nlRmGE9ihYAALwTuIQbVqnXDew+D5rookQaK2ddmFZ4uRFfxHNvvG/7HXkFrTjDxVwtmvd1xd+cfSy0k0Tu/T+5OTRiV7H4SqCpAAAEnaNHj1YI/rTyEF4AAMBI4DxfxjwvK15auyGwnpjDHfvE+p/dKTb9epnj37zb2/kcNpqTRd4/q/tf/76N58tloowbyv5GPPTvP4hS/WbJcoj5DQCAkMAdm18F4QUAABEWXyQu7OYvEVt27g5cAfb44gtR+OabYs9//pf4VPu3G9x4voib/22pWP/kvV0+85psAwDQiUzNnUmwt0KMdymzuIPdkpgz6cuzqBC8STbqMcfLt2dH7U5JPrw/DtsMZPi1L6s2rGen7F3z7Z3LWnwtX9EkVq9dzXIRTzQ26X+XrXwj7X4vvLJG3LP0oazOke3v0jHo7XfE0Bde0AWYWw6OGyf2HLYWX3ap30loXfnPPxXnTR5/7DO7LIUjhwxyfc+vrl6jbwBEvPGNycZ3tvzrRHSZf6+LMLmt07ZElDtDU2dFhsA0aeCXuDyG3qHJrcUoP4gyVji9XvRcsG6W2jaI1qCc56T9ke9PQr43Ldp70xiC+ysxtbNFWbYZxn0b7UYiym2GHAAsl21tSZr9jPU/QeZ6GE/p6730WQmuwdfAeL4o2YNVtj0zH+/dF4hr7bdtmzjpmWdFz/b2rETX3m9cIDYP1Nqip17r9n3f3j3FvAtOE8mGT8XBQ192+77lrU2i5OTR+n7EFpsyG3niILx5jA1imIxrOQJe7mBXjrkhi7XzeWmMlvkR1uS0U3NBl4ZclgEZRCuCbhi5NA7LBd8copjc4qbzJKVxFYlyk/e0WKiZd5VMc84ywev1qoSHV1nbvCDL+hGX20LZ3iwRAcnEa2ovZstrLGI8vNFeVJjaDGorlqi+d+1cdR7eqyqndoPHepHazzlJuMPRVpRr55vt4fetKhZGl3WxwjSwwd1n0TOlJGyNXuzCwIivlnWbHO1HAoy8OrmgZ3uHGP7MM6KvJr6yFV2fa3+JtjQeKxJW502eIBIWZUKC7Lk33tMFml4en1oL0hFDIL6YG/8weTa6NBaK8dq4tSjsOIukQbBA8BvDqRTJBr9CGgc0+bM2TAasLK8KZsHlpK4a5WYI2Jqwjm5r91At+NO8VzoojwWM56tHyJcS0cW59lqRPN4i7di18p1p8/meVAzQOG0zFkoRmpD3nlB4rriHZ+RULMUZ60Xcx+cQC9A7FpPvRIUPNk+JfPeSpkEQV+9fILIdOvF6GbTt/9z366OwwqEvNIvxv/qVa+FFomvn1VeJj7TNEF7Err37rd+cgf30v7PP+Nqxf3cbLtj00TEvYBKeLz9YgCIIlaFTJI3gzdpW57NhYHRK1AlspuuQoibI5RWTI7ybpSFQkqNLMcRfWUjrXVzkIOGFKbSGAzIgEG7IVydKtG2tbIdUGaoLZVtT5tM9lWlbcwDaCyHrfTNdj3wPwlQ36Lmt9VEsRbm/N/qvCp9PH5PvwGZpc4RLfL3+7lbH+9qJFlXQvK7xD/5KT6rhhi8LC8WusrJuosvAzmNlFlyGd8uK51a/lzYMkxZNBmzeqpgcuQTBb4grZCO8SPCGvmQrJgwRtjCAZWUWqRUBKC+DRBgNAO1PA/NhnSa84DS6lyDckK1OVEvj2g9xotc/GfKqrG3Vts2yngdNMND1rA1YO5tuzladULMeX769Y2U5El1W75+rEMysww6vmDdXzDp/muvfUaKObTt2Hvt/8mTZJY2wYkDhieK2W25Mu49VoolMv0llz2t/1lPHt29419Xv+o8dI4oX3CrGXz4/7X5PvvZDy89v/6dr9SyFdA8koGiz8m7RZ+981GF5DEoxn+l+rZJrnH/2DH3Llp/+/PGgvZtJxmPR3KZWZBkKbCMcE52jy/EAXl6RrD8Ug14ZkDkaZbK8guaVC2smrwbmsiThVelw33Kustc2ZDfkEeJ1IjceXArFK3JRd5y2rQ0itx4uN+0sGaZVARhEKEojvCrwpniulyRegyS2V7jZOeeer5a3/uJqf9ULLdN6XbRI8kt/f50r4dVr8GBRvPBWUdrUmFF4EXYp9VMXNU7n/aLU/Jbia9IEvJlCT1XbKg0Kroa0LmyhDXnSCFNHFobwDbq+tX6FB9kZhtrWoEAscJEIYf2rZq57CafGsymrHAeN8HqxCK9mkdvQ2Qpp4HNSEqLHQP1BM1O4dwtz/YDw4ivHoEWTuOq7ciq+yOtF85essFujKt06YF7Z+vsGsXLWhfpfN+w7/XQx7L4luser1+DMc63S3UOq+KIwxPi0k11dzxkuF1eOOJzGXIk0nktQrIFphGn0K4genHQiviEXYayy3q4VwZ5T1RKy+keii3OeFw0YzXexP2vIIVoUFuEVhP6hgisEUXrqw+aNLpHPIkj1owLCK7IC1nXERk7FVzqv1/3/cktW4iUb2jds1D1d5PE63NHh+HeUTGPrP/2T+OTSb4mv+vRxfr59n7kSnOcWjz+WWt4JWFy5CyuYj1ckBVg1ijYQjfDCkF5+nYLR6UwdPxkjsYCXSyJkxjbnPC/qvEtdep9mM507iZBq7++0CJaHaCGjl31FCJ9HiZ9tbIa2gtpdzPHyXo6LAypgXS+TkjPxlc7r9d25s3UPkJ2I4Ao9pBDDjUvuFc1zy/Q5Xk6hZBpGBsMvCwe7Pu9La63DBVO9XgYkvC4561THx58Kz1fqS6EilIbSjK61WYEe+CO8KkJ+GxUqJ8inCK9QeAdDJgA4QzepjcpmbS2u9qdRAC/vGA0CBdGjXMcUfhfW+lERkGRZYYrOCOo7Ru9XUAdbXUds5Ex8pfN63XHDFWnFyPoPtng+P4ktEl0ba+91/BtjXteY/77fMoOhU7bstE4wMmHUcNvf0MLKTjxa8Hp1M+baFHYcemhDGNPcQngFhoUqjQOT8AoDiRDVwWrBm9691K3wlGGkXAbdCgGyhdr+oHo1ijiuTdbNZEifz+IcLfcx2yQa4nhNPLW3RQHvx1z3XTkRX7RQsF2GQxIPhuiyEyNvvZ99G2BOqPHZ9h2Of0dJNEqbGvR5XV6x89xNPSV9ogxDlKYDXi9LahQfnxrWzVKEoZFVb/RWROy26lTUm5AJL6IlJHWQnhXnPK/SLD1+bCFuWFTZs/gKMhVM7UtY6wiLAPUi/vCKeGahCK7nsDWbDMY9c3Glr2/cqguwTAJj5nTesMOdK//kel4XpY6fcfedYth557Ddv12WQjtPn1mYUkjm75rsbRQk27A0LJJa51Mr1LusqYOLU0p60bleTj1Kn9XoLRP8i9iaoQaUnt06i+9mC7Wjl5SEYyJXtjnpFQlbp58IQR3knudV6SHUclq+lDvwzAKG50ze0QoX+7fJ9rRFtq36lmqoyneqRIpYqtNlCgQtCdAav5f5kKIXRpn3NncBcz/fKPt5q/oQk9tsWS8zib6s3ivfxReJrtfe3WIrLsxhc/Zhh+7enx5ffCFev+lWTXw97/g3FGJ48vXXsXi6nApHJ16rXywsF00tb4j2/Qesj4E083bUKGrUraAXtk7O56mXQiyJR+C5AVbhxWmTz2iZEyNYepPKFQgxw6gvZRQIfowUJqSB1W7TCRkd2QT5N55mkCQMIoCzXCs9DtBweb5aBIg6ZRQa76Uf0n7bqB0j026Nsj4lnA4qyAEn87tfZfIuc7azdLxKn8t9Aaqed+HM1OZS3a9x2+bKgczyNPZjViHbvouv19515vVKJ74MAeZErAz44ENx0jPPiJ2aAHPKqDkXiak/uUP3enFjH3LoTBMUDhwgbrn62+LOh5Z7Ok6+QQ289hJRw+tn+llqMMjbRvN6EtLAr/fhvPUOR2MWMxhwVcJbGmKnxoCKCcu1sjFuc1GPqGzrpXFQxyzmyWtaRkaOx+NwX5dV/VqR7XXKsqNtnqn+BV54Mc/zqmVoC7ieMbIcqscY5CFh0mrh/YnLd6FcqMuYuEC2115oFN0Ti9C90DIF9VyeezkQk2BeDJ68X24XX/ZyP/Ec1DM9Y6qD/cqF9/B9qs/LPL4TwuG1spRLNvVTDiK0ykGBEvkeVaTU1dyKL/LG3PnQ79N6pta/78zrZf7cKkyPREw6oUHeLhJdJL6cQmJr6k9+rImvC5W9GW4zHVrxoxsuF482JboJubnfPBtdXIYGnUIPhNrQtXQNcdwPb5g8bsZja9fC0VG2qvZYSMOEM5OYkVmu0WNdmi4NA85rI49pIlsjRhorKrKutUkDq9argWUYVtpWberMtgS57WCe50VGahXDcWKMzxaoE11VmYS26Z2olXWNY2AslTIG8bXC1L7Q9daobP+lt436smYuASY6B90iOTBh4UVM1555ZYsPfX+M4T1IZiu8bIRYpcmOzLpOsokvEl4zr/th1vOx7JJJpMt4aCc2DG9XDxferpOvL3e8SLKnlnifdbjgGZPc9aO/u+sHYu4t/3os/JDK6Y4bL0dXl/nlIYNvgshd0gazN6xRirAEnkx6QcJsDJVypDSXjfl85uyLRv2ozqKjUhWamZBiNangfdQ7s4ALL855XiS8KhmuKcb4DND+qKFRZLF8gHwe0xVkdY3RYIfHti8hjdlKv+oNXa923eTNWctwuHKX4isXdcbwjiZs2iLOLKdBh0Mk1nB5ZE11Mum132ITX/c//kzWwivdml5uMh4a63aNaHQ+oK0ioUY67LyCmTIddt8/JtY3/NcxTyJSzLt6cSpl7HpFji9F91LIkMQaGEGWRiY9Iy5Dk014WdSnmOALM1lACWKy6DBUZISiUfvaPK+GXPO89NAVLkMarUOg8fzeKOqnyoQHb440OifmoM9uZYpaoYWXi7iNcQbqpQ2QzFAOjjxbESLGUHfqg3hjLKnmyfuy9LGns/59uhTqTjMeGut2bfq18xBUWrNrzqo/+Sa8dPFlE3ZJc7ncQr+xC9cEmTs22eAFATLasV6YNZwhopUKF/GdL/jCt4rcGlwKMkIZ5ZXXwotxnlfWcw4Ug/le/NRwvTeyn+Jcp3J2iMu1lqmNjQfs/ZtOzxlJuZTU18C2byzii7xedtn3MloZA/uJb06fZPu9k4yH5O1ys25X4ZTJorSpkT2ToRORaldOEFA5E2A1Abok6hRovbBcLQoZNMOXMztlI0Mii3R1qU0KMC7cCilur1dlvi+VwDjPq02B8OJ6LzDfixdqZ6qZj1nJ+JziYS1Y+f5wtOElAbmleqEgEgOEo33zLL68eL1GDhkkroqnX6okXSKK15tfFs1z54uNtfc6Pid5u2ix5MIpxa6vd+v2XWLVq+vEurf/ktX92nm93CTbAOwNerXg9VpwQIb0WizYzJLlyGiAK32oSwnBFxISc/n8Ob1eVRBebPO8VAgvTvEFeA099nZG1p0ljHW7JMRlvILhGEHw/tVLbxcGP9QSWBvK85yvdGtO3f8vt3QTFomXXxMdHe268HKKXcbDpltuEzMOtjs6Bnm7aG5XNqKLeHT5SnFT1d3H/r9v315i8qSxonjSGO2vs5T0dvO9IL5yLsAa5byrhgC9rGRcNcu5P1X59kyk8cuVtW+Jj50cGV+bGcVnwkFZVQg+r1cj5njpcMzzUjLHEASWKoXtDL2TXCHY1LeEtU4mGY6Ra/HZypF0Bzi2JcpURr3kTHzd+bD9elPfndt9gGHnts1i246vXJ3DTpxs7dlPzBCZxVf7mWeKub9+wDaTIQk7WpzYbt5Ve8d+8b8X3d/ls4MHD4u1b23WN+KbF7wrrrlij7jskgtE4eCBlsfZYpOQZNaM0/CG5F6A6YaSNGQXi+BkE1ooPSCleTZKxpkuvdbHepSUQj7OVAZOOmlOD2FVvrcFjPO8KiG88oakSm+xXKeykaldJPHRGMZClok3vB4ml307d3g6yMwiL8u3qMJT2CGJFrsMh7dc9W22i7TLeLilV9+0v/uysFDsvPoq8de/KbUUXk0vrhbjL75ezP1+jf73R7XWyTreemeTLsDS8eIrb+mesTFT5ourb1ike8pSf2Pr+RoJz1eAGnfqQCmbU5DmglFn2RzycBG3zGM6Tn0OGl2uEKGiTM9cegjjXNed75O+Ged5VQZxtBUow49nvYLpOIX5/rBy2JcuQWKNnNhPi4N2UVl7vj7Z86l46s/rLL8bcWKhnkRj+0c7u3138ItD3T7bveevac81adwIy8/3nNDb9jcHTvm6+OTSS8VXffro/596LQcPfSlu/tn9XUIm73/8aTFh5FDxnW+e2VWh9nA30vLUc6/oG0GesO986xvinDOLbed89e3Vw7KsUnGyj1M69u23/IzzHCEWYGSs03pg9dIQqwiQAMuXMCYuQbEiB/WnUS5gXcRUDumeN5eHkK433zMbcs3zyvs5c3nIMh/OkWDsS8IwCKKSXHi/8r6NzYIWJlugQgru+UERv1mLr2ebV4n/efUdy+8mjxsmnmhsct6ivPSa7Xe0UPLRlpcsv6Oww1RIbJHoIvFlJvV6Wjd9ZDlXrfY3jeLzTz/u9vnIEUXi413uB9DNQqyg1wmiYEAfUdBPE409jzsdkx++p2+ZcFOm2fDOxvf1DRwzouklNa9mXiZyG7JQJAXYxCiHIMqOl6Oc23LofWhkEu2zM3TYYfYQBo06hnpXjzlzedlXtPpwjiTjoE6uBzlKxPHFgo35KfGIVxO0se7hfK+ovm2W9lxtrp9F1mGHG7fttv1u2tdGsVxc7927xejHHhcT19kvbL6113EBdmj4cLG9vLyb8LJinSa+rPh47z7Rtv/zbp9PP8P7uoJHDx8RX7V9Jo7sbBNffdwuju47KPr26IHXKwQiTE6QNcIRczlyYgiwKKei5xqZTeTwHlp8Kgsug2VZPr/j2vtEGUa9ehHrQziRPoYW3jN+GnGtIXy3KHMrzV2u0zaaJL+X+jDRGQq2SLZh8TyoJ8vwqgSiD18kRVhdLtdV9SC+rOd6FY8brq/d5ZUBH3yoCy8SYPpxD1nPuTJCD/d+4wJNeF0nviwcnLml1MRVctdeV/c2cfxw3gZJCrEDW/aIpQ8/J15d/b5oaz+AVy3YIow8KdXaRiKMJs3W51CcLIpwUU8LmADKZacRS2fUCJ5R8GQ+J4aQ5ej1fUr4LLyU1y8QSEHUFpJ3qkSuV0lia7MUWhV5XN+SSL6Tnc2lyM4qkvWRRFizTLQWDvFFc6asOHWc9+QRQ155RYxobNRDDg2GHTlkue/mAUV6Uo29F1zgWTgaWHnFKOywqNA6G+IZp52sz+3KFgpnfOaPa8U99z2lb/TvbEIcga+NQqM0toaIzox0fjesCyO8DhhXB92aw/qR5DKU0jxnLg9hvieG8BpuSPUstBnMsKB7qFgXVMFN9YgyhUrBReFKCyHuj5FAEWSN6uRn1L+SF2yv9Ib5Ylf15DwYpWpPTVaRCiXX+CIl6cZJw4aKvn16i8Md+8TR3z6ie71SOenIYcvjbZl8uvjb887p8tm2Hd2TRowbczwU8sGnXksvhvbuE7379hcjhnZNCnTuWcXiuT+92W1/ymr42MMP6H9pftcfnn352Dwvt5D3i7xgtJHYozXEKOSRxJ/5HrxC19qxb1+XzwYPGmSbJh/YGtnGyEy9aQTdr7lhZDROjGCxxpmeTa47vFahNpyGS3y15Ov7K8MN40ztQFgpgXGYV8SY3yGj36tA0dqyBUWQddtKcx1rpZhXieENo+QcSdGZtVjZPD1W8TV39lniinlz0+6zfEVTN3FUOvM8MaitXay5/Q7RbiG8iM6ww+5ZD78q6NntnPcsfajbfsY+lBr/41/8JuO9nDCgSPtN13T5p37dWnxt2bZLT0dPHrBrrpijb0Rnso2XNTH2SsZU9U6E2DVXXKIfm87jlVdXr9E3M6cVnyLOP3tG1ses/H5t3jcSojNBR5VsKMqF2pE/iqWvQGY169cnANfAJb7iNsbxBKbrTOZpHSkSPOG7FGJF4cjVPtctiC+Qy4EL4/1ZiNLICN4vb5D3q0z450ml8+hzErV6TiKMPUEHa7aHy755dla/27nyT+Klv79OtG9413af8V9+bvm53dpZdtDaXk54tKn7YDCJngk2ae9Xvdo9GoBCER+453axY0ODeOzhGnHtlXOy9iyRELvvoSfFBZd8T19L7Hu33Z21dw0oF2HmuWE1ioVApOZ+Ma6/EoT4+nbFx48x1dd8nYtgZFtjeQ/9DANmNgQmCADctdNkCG+G8AI+tne5CO02Bhg2y5BatogmNvFFIYdzsxBfhW++KXbU/Js43NGRdr/+Xx0R/Y8esfyOFnt2ipWoshN1VgtIX3bJN6yPu3xlemHKKMTIi/bIEyv1xZwhxALfaFSLztBAVW7BmOwIo0KU5p9g4mZ+Uefz/KkE03HieHTAhfCicPeGiLXVqu2ABErBcxnSIGGusskaImwtl73FJr5mzpji+jcnPfOsGPpCs6N9x18+X8w4c6rld1YiyW4/N56y3z3dXagZIYWpUNjh1u27HB3XLMReee4B8f0b/87WowYhFolGgzxhFIpYqsggL0cpB1L4qPYocXgJYRTwEROd8zDDVsdLkHQDOBBdlFCDEmlUoDRAjmyp+hwKMKONb5CZPD21mWziy03IIWUxHLvsN2LQ22872n/G3Xfq29RTYtai6mNn4mvp40+7uqdHm7rbJRR6aOexokQbbqHj3VV9s3jn1UdYhdjAsRfrf8kjl818M6Ck4aAKNVGBUV6G0u3Gujy4RxjMwaPMx7TFnHUcbQhIK7xE59pcJSgNEAABRiGIuRxgpXBbT+ut+u756tne0WX9rnT0GjxYlDY16l4vYsIo6zT2q9a84+jcdvO97K7dzlP2nW9Zp5XPFHropxAjyAN2U9XdukcMQiwwDQc1GKXcAizCaecBCBuLfVq8M8F4rNl4bADCC4TEjqLlUaaL3M7tpvdhc7bz1FnEF3mkxo/KvL5X+4aNovd/LHYkvAqnTBZzVv1J+1vc5Tx2IikTdnO4iF8sLLe9fqs5YuecWWy5r5vQQzdCbMNrj+j/9pLlMFWIUQbGgwcP4y3OrQBLMh4W4qsrSCIAcgUZqw0+nIfT8ChD6CGwoc4H4UV1mQxqSlBVKftH2oYUpCDUr/sEwmFH0cLV03NcH/SBiWwG21jElxOvl5HRMFNiDYI8XaVNDaLX4EFdRd6kCVmLL7tEGyS6SNTZJQux8pbR2lt9+/ay3D+b0MOM5TF2hO4FI28YlxD7zwdXiJ/f86RY+vBzeip7yqYIfBdgnLHL01CqXYgF4BrCMFIM0a7o2VN2LB/aEC4BRkYEQg9BF+Q6eCrqhbE+5nwpsKZr23yZJZjWVkrIDUmLQKZ2kNpZms6RyKEAa3A7eMUivmZlEF9bf98gXr/p+46E19Sf/Fif32UFZVSkzYpMGQ/tQg4N0XXN3Nm2ws4q9HDypLGW+1ulnA+yEPt4V5t45o9rxT33PSVuvf1ePZ09l/cOZGw0EowNBkatg4fqZwLDJNj4kX6e0+BYgEcGTMIrJviXMqH6Wqn1fSS46G8jBBZgsKXIC2Z4S3MhwkrcvitsYYfphBctnpwJmt917oP3iZOvvy79ubLwfn28d5/t94boShc6aeU1K540xnJf8ir5Na/KLMQoc+KDi2/XMylmy3sfbhM/rL5fTDnvWn09MQgxX1jC+PJHAa6OOAhitJDpOEmbz1m8Hoxrq0UFzs5bdfr5FsZjlWDuKDAPHjC2o/o6TWQgy4QJAKgQYQkpwigc0e96ttBN++lZfJFgsRMt6392p2PhNfP//UaMmnNh1kIvXcbDdZs+sr128/G4Qg9zkeqdMjBSGnxaQ4xDiNH8NUOInXb+tfq/6TPA3lg0RkhscJQHVxhVEAQF1zUkFV9nDG/iMSgUeD5jmVPZ1il8XxoFrwd0EaoAkF6vCqbDUZs+kbGvAyCjHUGeVe2fQ7StSviXmMNx++lZfNmJIRJdm369LOPvDw0fLk5f9lCXxBrpyCbjYauN+Lpmbjzl/3lCD1XM++IQYtku6rxl2y7dC0beMAgxJSRQBEoMiFwLMC5Rk1QsypDprpN6Od+Eez6m6vTznEZtHN4vIPhCUBNyPhdCC0EuRBitsVorE3PQvLBaoXYwM+7U7vAsvs6YFLMUXhRu6ER4fXT1VeKE4Sc5Pp/bjIcbt+0WBw99afndd789u9ux3YQexsZb7+tn6KFbIUZ/r71yDoQYyAcxGsvVDchQM5bzUzy73evI1WGgyolGOVJqlHlCdtRcqEw/v4L5eHXIfJj3cAwWULs1H0UJAiLEaF5YlbaRCKsU6ga9HQ1ceBZfM6dPyUp47Tv9dF14fdWnj6vzuZ3z9d62T2xFnJXQchd6ONb2OnMReugE8oA9cM/t7EKMUtiDrGlBEXTrtDnIpUeHS9Ck6yDYQjR9WpcqqLQKa08XpTDmnIOoJP28DOdKMh6S6gLCD/MU6fnkEN+V8HiBgAqxelOCDu6QREd9P8ucr2yE1yeXfsu18CLcZjwkz5cVdiGGbkIPac7XZJvEG7kOPcxWiGW7qDMWbw6tSAgiXClDc5k6ex6jMFAtvoiKPK1r+pp7VkaigvBDlennlzEfbyHCD/MWjueelN5jAIIswhIyJLGK8bAxJ6GHbOLLrfDyglPvV7qQQzsPF3nE7EIb3WY9DBOGEKNFnSl7ImVRzFaIpTJgzEV12lambQhlUUdrhO6Fq9OO5dCjwyX8WtJ0HEnB55nJxzTjtsLLVMbkVeKcU6Uq/XytgmM2IBNmXsIxGLgMxQhCJMKo/Sxl7E/Vii9jceWNS+51JLxoDa++N3ofSHSa8dBtyKGBnfcrKqGHmaB1w2j9MEYhViE6Q272agKsQdsqIMS6wGGMRSa8Q2Y85LqfCr+vXzNYSXhx1e+Ex++dUiQXVM2rAQuH2TUrmd8v9jlVUkDWM5dPkcD8r3wk5kO75YUJeERAgd1BdbbKr3fIs+eLRNfG2nsz7kcLJ2daw8vxm+cw46HbkEMDO68YedZSBVi60MOnnns59BXSSoh5WdRZdHoE6sxCLJ9feGmosxiSOboFVSPjXJ13eQ7KhOucrQ7mTHAmW1gEQ9tW2HCGH8aEmvTzNYre72bUC4gvlyQDfn0AWLX19Uy2R8Y1Pj2Jr6/v2eloHS8SXuMv50vI4CTjIaWXdxtyaJC6/lcXQWXh/Sq2nff1SqQqpiHESIRteO0R/d8cQkwTYGvz+H3nmhu0LkfXr8oo4xIVMcVpvlPFdEzwhRw6Cd1JMD/LOgGsOuVG5rJmTz8vw1BVhB8aAgxGL3BTF1W0r9RGxVHCgSCqc9U5QmYzDkr39HL09g0bM+7TUTZPvN6rt3h9RZP+/7v3/LXbPs0vvSb69unt+Lxt+w7Yiq/l8jx2IYfTvj5WvP7nP4vXM5xj8rihlmt7NbW8Ic6cMLTrvpPGigbx5+7l07FfDz30sthxUBk/doTuBaNt6/ZdeoKRR5evzDbtfAl5wA7seL4+n1ouOZ+CywDLxjDk6CBVNcCNjEKAMrf5VbcWMZdBRiNHq0cJRoNEFwVyBBB0hbxfaxkHHCj9fILZUK2RbQr3oAi1VWu1652PRAqR75NYRJKiTIdleEqBIRbR+0r6cRJP4qv4UPoMd59ceqnYd8opQuzYmX4/C0GWib69e1p6tlat2SBGDhlkG3IYG14otmW4HmJUYT9rwbn/gPjzhk2ieNzw49fSt5cYOaJIfLyre1tDoYdRFF+ZhBiJzlWvrgvEi2yMMAfJoJQjeFziojVLA45jnSglYYfUcWtlVM8kTsn7Va0ds1rxM40ziulGF890meAdDaZ5Pk7nQ+UNUuiSuFnMdEgj/fx05veG8xpTr5c8YDWq3yWQM7hEO/ULKkR6OR5RYASGntBKlZczh+18Qrsv5efpoerAlNVw3+mnKbtwElhWtO3/3FZ46YLRJJrStkAD+9mew8qrNv2MiZb7Ri300KkQe2b5L/UU9g8uvt1psg6VL/A8aVBu9jMELQOLGYXLihzeRxHjvDUrUcHFApWZ25jFNLHEjVAT/AlXmpFq3LJjrmU2KtnTzyu4xlRobuBa1A8Y5RnEF3cbS/0M6lywnnNF1AqGyU7IuHarEvHFkU4+o/g60VoYtR84aBtySMKLPGZOmXbyaMvPrcSdXdINI/QwH6HFmykMkRZjzkCr4pBDo8GOmURYdS7mMJCRrm3NzI1WtmXH1QArSVMuw5u4jEjVmdsWCz7vbcJNaJcM71nCfD+GlyPfMiA6gTv7oYr089zXaGVcU/0IjEiHGGRpc7n6hNnMzxbzUYNJeQST8fiyvIYn8TX+y8+7fXZw3Djlwks37AdYhwVu3Lrb1vN16riTXJ2j2GZ/CndMPUdR4QA99NAKl+F3kYBE5/duu1vc99CTGYWDJrymq7oOOYqR+mDISKa5OSTCaC2bCj8aEDlyt1nwjt41eugwuTrauEKPImcGNyWZ27Tj1TGL6WzuuVaRsb1YviMxAcwGKndmQdaBAXmNlT4UR9wkwir8fhZUL2mAgAbU5HVgXTLvcLQjZVxthnwvmoW65E752IYlmA5l2FJK7SY5WO7X8+cIbc1Yvp7mfPX/6khXQTRlsjjnvxaLr/r2sf0NJddIneMVn3meGD5sqLsn/vUPxXNvvNft84/37rP9zU//udKV54t44e3tlok3yLtmDmE8rXiSuOHa3uLf/+O33faleV+UGTCfhNelV/zASfKNGk14VSu+nDIH35dJ44fCt8hdnOCc7yKNknKhJmTCi8eDc04PlV+bzArH2kkwJ5QwBFgpx4RwBcIrkU3HKOf6LFHUEZZJgU3Hr+WcSC87VDo+hQZXKpqkr8J4qdWuvVzwjZKSEUN1aT7jNTZq10ii3A/vZVzWEfIAUxuwQtZl1ucpDXoq89my3sQs3m/MVfRGK1N7S/W5lEl4cYvqGB6zPvjKUQ40+LFFhjurEkP0ri9Q0QelCj2mup+xDcpafA07cqjL//caPFic++C9ov/YMWl/Z5XVkITX2NGjXJ1/kHY+N1B6+a/Hxrm+T1oT7Ee13cUXeb7mieNz2gYPGiiuueISS/FFYXckRDymZQ8FdJ9/f+MiJ6GGlT5lN3QT/mAIMXoJ2+QL1CIbKdqcrLtkhL8YBgL9W9WITaOXESxpsHM1wESDTJKxJJN4lWUUc5gEhRY+5FyOwMjcVplt+UkjsE6BoPbiraiVHZUKw6JICrtF8hmvyFZoy7KLS8FVljKQkBDhoZK5XrJnmtSOVcW8/IGTelJhDEhQ4hbZjm4xnm2md04a3CWmd7VItqUlDtrSabCpPdPC1K6RGK/Tnndllu1EiWxjVXgzIb4630uucqAICWrPaxy837pN5KL/iHP3QRnqm+dydWInZi2+runY0eX/aS2vTMKLk8KBA/SNsg86FVHZQKLtR7Xd5/0boYdm7xclmyCBZeXxoTTsZ5wWbe8XhVdefUO17vlKA1XKUk14+TU6mW0nYqwnEk95QY17aLXY38+QlzbBsxo7ZwMsDMNLirqkjfAxDChqpDMamiTkZAY3Tq8O3XOzbMRrnIZuSsOQPAkLFIjqGi9zLqSYJkOnWXHdM56x8QxbbN4J83tRKP+mM6BVZUhTgqJ6uVhBpslKWd9zEZJXYjrvIlMbqvJ8wBsJxjpthPRXuWhjY/L8FXgUSlnHPCgTl4Lbri+ImWwNqmONDuqCXX9h9EFtwqOn3dSnc9V5R4nCshZf/Y8e0Xqfzn+ffH25GDXnQt9rztRJE8RLazZk3I9CDTMtrGwHLbg8c8YUy/Okhh4Ss86fZim+oh56SOLypqq7nRj6lX4JL4VZ+IKw0GMN0+ToFULNqHiMU9RRams5ssZtXBmNeKvRgIuUkSvZARieTFUGQYIjfbcM0/Qr1ExYDVB4IHReCwX10kgswJ1+vlSoCd8KGnEBONqQJGP7bYQtk5G8zMozksYbDtTRKNSEqXPaR2UOzlUhunraqX5tkfZmMtVOMnnWzeHLnNQ72clztkOa5zX1J3fkpOZMPcVZ2+A0vbwd13zbuh5ZJfa45oo5lvsaoYdRhBJrOBRefnq8hIjuCuyNjPHViRDdN82HUTUnqER2RGSg7j1qQnSGlnHP7TLTJnjn+lSJcM57Casw4E5sUSLnTnEa1HrEgciD+VBIusHCMubjGUZys2xW98okLZtlG7tZtrEQXv6JbF2cBLytn53FcWngcbHsyzcfTYH6d/ndYhXCy6n3zbP4onDDXDFhlLPshW6zHKYyd/ZZlp9T6GHrpo+6fEZhh3brWpF3KEpQeOHVNywSjzyR8b70jIba5vdk+riIHq2cxp4cFWoMw43La50fseepG8UKJhCX5rBjzSvxJY0Y7snmC7lTp5sEWH3E7cq4AJ6NSMXHN7wjMRR1TslV318UwXfZ1VSQtOKrIXZqUX/xleXNnySOiPGXzxeFU4pzdqdOPF8UcujV80Vzy+zCFq3WFJsw0XruW5RSzhsZDZ2sYaaJrkq/ry9l0naUhJcKQ31FWApAhqxURuR5GsKrVUE5Gd60tjAVSIi9FjUKxG4Dd3plqhcyAUKNiC5IuuG9niQjXkdAJ0uCemEKp40o6wPc2GaZPF8ln9nsMqzgS1G84Nac3inN+cqEV+FlcJmN+KLQQ/KAmdnW0WG5L4Udbt2+K/RvK93HlPP+IehhlHEIL8cdbb0IkZdEXm/YBZgy4WUqJ73OhEyAhdX71aagTipbWFbOLwydOI9yHQogtQHuF5J4PGwiuz6glxemaSP1bqeCZBJftgbsqDkX+Zrd0ArySI3PEHroNeTQwC700BBgZrb+9VMheloX7R+efTnULyt5usjjlSGjYRCYF6E2MqFKeJkIlZgxCbAwGo/KhVeKAJsuwjPXJ7ReC+mV5Q4/pPTzCxVdL4UcTRQhCTuG+IrEgAKLoctwXbPxhI9RE9B+NB6S8qO+1XXm6aznfI26+MJA3HU68VU0sB+b58tp6KGRFbGgX2/LfcM874uuneZ4hUB4henFzQQtKKhaeBmGY30IBVjY5jZROU/0Q3iZyikpyykMRnbYDWcV4YeLVIVjyjBE8oDNFxHyJnDPl8tjAZYQPEuasAkvGTbbhqfD2j/UBOz9jYWkL8g6Iimt+JqffK/aVvRcHox577NmnGb7XTGT18vASejh1p2fpBVfYQ09JI+Xg4yGQaJIhJukfKn97PhClyXP5NkJg7Co8UNIZzCyqwJuuIRafIUt/NB03Y3yPaoR0TBs4f3iqxvkza0PkPASfg5e4RnnhHgIiq1eeIhI6hH2SjN+pL3AmnbyaNZzOQk93PqxFF99emqlW2C5bxhDD+976Mm031975ZygXfLEkBoSbdJIn5hppXhFhmPo0lGnjN4H8XnTc5zOsY4XUycbZLFaJEc9w2zIJBSUL3v6eZv3qDrEbWeX7h8mNWvdyHWSlipDeJlIQpyzP+N6vL+ObDS9PnoZSA2/+LIJO6SQw5FDBrGeK13o4aq1G/W/b71/vD2IYuihZbkMHigeuOf2IBrkhiERBo9Om+zcJubSSDcJMD+Mc+5Mbo0BMxypMaiU3q7WAL0bSSlWS0Uw13kLtfiSqAiNWuhHOJ1F25kMWdnT9UYntXBw2g2qE34PcOmRDTbJDLzUyyI8UVsBVhuA66iSbWjQ2p76NPUxv8TXzBlTdFHUbViD2etlYBd62PTiatG+/8CxsMNO8dXLct8whh7arV1G0BwwWmg5oI0JGRI0b4pG+6eL4GVwMtbt0kVXLkLSbMpsvlCf0KJE0bVX51iEJaTomijnpQX13UiQMBTBWfvJeBdCH1KkMFkBe/p5B23nxIC2nWbaZB2eL9+7WgFU1AkjPFX14FxStqHT0wxceWonwu5hVyx8cj6XmvpO2fbMF7mP1KiXNlqlnCPnmR5RqCxNS3/axQNGSTbOLR6v5FzpQg+bWt4Q6z9ImsRXb9vQw7Ct+XVX9c36AtJ2OFhoOQiNSis1LPKFNkZ1G3NgoCfkuSfKzqU+CKLLqvEziRgVDXGbwmtvk2J2iDSC/TAWauUzLQ2y6LIRYVRGfpWVmcYwvAseDFXuslQ+/8tB22nMDUvkuIgT8jrofRsiDaOoZW4MYr02e865y7tVOB+42uLxXBBf6fuEiSIA3id6p2V9M/dPfvQRRhbDIZyi69h9ZdphwJiLjlp9vn/7H7M64fIVTWLbjp1dPruybK4YO3qU55sh4UNesN83dF8z9rZbbmQrtO/+8Je6pysVEoBmzxfx1acHxNEDX3Tb97JLLhCPPRyuNQyNhZXdru91YMfzBUG/N1N2HdpmSyOnhOkFppeW1HbC73lczGVEix5SCv94lh1XmywP2lr8NpSkxyAun2/c4/NNGvchn2vkJoDL5228DyXCW6iO+dlviWqZ5SMyFJLqxzTZLnitK1Yiq022ofp7h7oTuL6T2oryLNtUer5ktDVyG7iA7RmXyOfrpd9MyPZ/nXzWbQzXFDe1O3GGdsbcpysVeD2jVEGmnuLPQMas6cWW4itVeOnqtl8vS/FF2QNJzNB8qbBA1/rM8l9mJcCCjmz0kyJlJE8a7EZjE8sgOoxjCGkgtEWsjI6N5JvKJZ1IDVR5yPN38UbIBrwopeGeZjIeWyzuJ3LPNtPzTjG0nbwLCdNxEgJEuZ4khIUXzPRuCYeGkbm9aIPAClXfWSs3sxgvSmlPk+K4t6pVPmO0DeF4xsbAmbkfSNf3t5n2V9Jfpl6Thb2WbhBI+fXllfjyC5pP1rd3z2Pp5dNWECP08KujlgLsmivmhOreoyzA0hjs6CDSl0tjiO+jNVUsgIyGNgBu3i28XxDjIJr9QGPArstslwS6DvZANcoON4s3F/SxTrwRxpTzZgGWbg4YAAAAAAAAAOKLhVNdLOB8zeUXW35uhB5CgAEAAAAAABB9sk648a8/virvC++ux5sdhR7e9O1zxdIHn7H87sHFt4cu9NCMwyQc9Qd2PF+J1w0AAAAAAOQz8Hx5wGno4cihg8XkSWMsvwtr6KGBQw9YhSbi61BjAAAAAAAAxBfICiehhyOHDOoUajbia9Wrb4W+HCDAAAAAAAAAgPhSCnm+KOthOooG9tP/Tp401vJ7CtujuV8QYAAAAAAAAEB8gQwCLB0jT+z0fPXt28s29PCp516ORFlAgAEAAAAAAGBP1gk39m//Y1YnXL6iSWzbsbPLZ1eWzRVjR49iu6l7lj7U7bPbbrmR7fivrl6jb8TGbbvF44l1tvv+7q4fiLnfPFv/930PPSl+WH2/pWjZsaEhMpUKSTgAAAAAAADoDjxfHskUejh+1PF5Yd/51jdsxUoUQg/NYhIeMAAAAAAAACC+lAgwO6aeEjsuxMaOsBUkUQk9hAADAAAAAAAA4ksZdlkPzcLLwG5Nrz88+0rkygUCDAAAAAAAAIgvVsjzZWQ17CK+Jk3o9lm60MMMc6QgwAAAAAAAAID4Av+n8m+7zO+aOWOK+MXC8m77pQs9fHT5ykiWDQQYAAAAAAAAEF9sUIjh+ifvFU33LTr2t3DgAMt97UIPueZ9UfIOyjZI28/v+a3uVYMAAwAAAAAAAOIrUpDHy+wBs8Iu9HDLtl2eQw/Je3b1DYvEqlfX6dvP7/mNLsJCJsAWoiYBAAAAAACIL+AZCj2cMG6ErXjKFhJuN1Xdbfl5yATYPNQSAAAAAAAA8QVYuOwSa+9XtqGHhsDK9H0QBBh5+GgDAAAAAAAA4gsox27eVzahhySovnfb3RmFVRAEmMNrWIIaAgAAAAAAIL4ACxR2Zxd6SAkz3HD1DdWOBVsuBZjDc1ce2PF8I2oIAAAAAACA+AJscIQekseLEmsoEEG5El71qBkAAAAAAADiC7BiF3pIQmXr9sxzou576EnxyBP2CToouUUQBBiEFwAAAAAAAEIUZNphwJiLjlp9Puv8aVmd8JM9fxVfHDrU5bOThg4Vffr0Zrup7R/t7PbZ2NGj2I7fsW+ftnUVEoMHDdS2Qa6PZee1uqv6ZvH9G//O9neUFdEqs6EZCm3MFI5I+1D2wXRCDcILAAAAAACAHIovoBYSRa8894AXQePqXCoEGIQXAAAAAAAAx0HYYUCxCz0kIcMdLqgiBBHCCwAAAAAAAIiv0PCHZ19WLrxUCDAILwAAAAAAACC+QgXN6zJDc7zcrgHmtwCD8AIAAAAAAADiK3SQkDFEDKWUd7v+l98CDMILAAAAAAAAe3o62KcUxeQLDdpWlPqhIbjSpZTXIDGzzOX5FmtbiZ2IooWbKQkHhBcAAAAAAAA8FKAIgsGAMRfVaX8qUj+fMG6E2LIt7ZpfCU3QlGZxPhJ6zXYCjLj2yjnigXtuh/ACAAAAAACAgRNQBMGg9+CvkRC+OvXz9o4D6X7Wqm2XHt73l4Nuz0e/0c75uPbPb2nbSDtRRRkXL7vkGxBeAAAAAAAAeARzvoJDwuX+bdo2XxM1bdmeUP62VIo4SyjckeabQXgBAAAAAADgDXi+AoL0RFEIYLFD4VWqiZqNTOd17QFzKLxqtWu8C08XAAAAAAAAiK9AoYmgftqfMge73qyJmmeZhZ9jAeZQeNVr13gznioAAAAAAACdIOFGgJBJMPZm2K1GEzXVCs+fNgnHZZdcIFa9+pYT4VWJJwoAAAAAAADEV5AFGKWcL8uVqHEiwDIA4QUAAAAAAIAFSLgRPFbYfN7qh6hxkoQDwgsAAAAAAACIryjQaCF8WoWPi11nKcAgvAAAAAAAAEgDwg4DiAz9q9C2eaLTE1bvJaW8x+twEoII4QUAAAAAAADEF1AswCC8AAAAAAAAgPgCigUYhBcAAAAAAAAOwTpfICOmdcBoDbCYttHizndpwusOlA4AAAAAAAAAAAAAAAAAAAAAAAAAAAAAAAAAAAAAAAAAAAAAAAAAAAAAAAAAAAAAAAAAAAAAAAAAALng/wswAEctrQLSvIbZAAAAAElFTkSuQmCC;clipPath=inset(0.82% 80% 2.46% 0%);fontSize=14;" vertex="1" parent="bA_C_CA7xueAo-WzbrrJ-142">
          <mxGeometry x="10.920000000000073" y="20" width="40" height="39.333333333333336" as="geometry" />
        </mxCell>
        <mxCell id="bA_C_CA7xueAo-WzbrrJ-146" value="" style="group;fontSize=14;" vertex="1" connectable="0" parent="1">
          <mxGeometry x="1130.63" y="455.3200000000001" width="61.839999999999975" height="65.33999999999997" as="geometry" />
        </mxCell>
        <mxCell id="bA_C_CA7xueAo-WzbrrJ-147" value="" style="shape=image;verticalLabelPosition=bottom;labelBackgroundColor=default;verticalAlign=top;aspect=fixed;imageAspect=0;image=data:image/png,iVBORw0KGgoAAAANSUhEUgAAAKIAAACYCAYAAABnEzLQAAAMPGlDQ1BJQ0MgUHJvZmlsZQAASImVVwdYU8kWnluSkJDQQpcSehNEpASQEkILIL3bCEmAUGIMBBU7uqjg2sUCNnRVRLHT7IhiYVHsfbGgoKyLBbvyJgV03Ve+d/LNvX/+OfOfM+fOLQOA+kmuWJyLagCQJyqQxIYEMJJTUhmkboDAHxXoA5zLyxezoqMjALTB89/t3Q3oC+2qo0zrn/3/1TT5gnweAEg0xOn8fF4exIcAwCt5YkkBAEQZbzGlQCzDsAFtCUwQ4oUynKnAlTKcrsD75D7xsWyIWwBQoXK5kkwA1C5DnlHIy4Qaan0QO4v4QhEA6gyIffPyJvEhToPYFvqIIZbpM9N/0Mn8m2b6kCaXmzmEFXORm0qgMF+cy532f5bjf1ternQwhjVs1CxJaKxszrBut3ImhcswFeJeUXpkFMRaEH8Q8uX+EKOULGlogsIfNeLls2HNgC7EznxuYDjERhAHi3IjI5R8eoYwmAMxXCHoVGEBJx5ifYgXCvKD4pQ+myWTYpWx0LoMCZul5M9xJfK4slgPpDkJLKX+6ywBR6mPqRVlxSdBTIHYslCYGAmxGsRO+Tlx4Uqf0UVZ7MhBH4k0Vpa/JcSxAlFIgEIfK8yQBMcq/Uvz8gfni23OEnIilfhAQVZ8qKI+WAuPK88fzgW7LBCxEgZ1BPnJEYNz4QsCgxRzx7oFooQ4pc4HcUFArGIsThHnRiv9cXNBboiMN4fYNb8wTjkWTyyAC1Khj2eIC6LjFXniRdncsGhFPvgyEAHYIBAwgBS2dDAJZANhe299L/yn6AkGXCABmUAAHJXM4IgkeY8IHuNAEfgTIgHIHxoXIO8VgELIfx1iFUdHkCHvLZSPyAFPIc4D4SAX/pfKR4mGoiWCJ5AR/iM6FzYezDcXNln/v+cH2e8MCzIRSkY6GJGhPuhJDCIGEkOJwUQ73BD3xb3xCHj0h80FZ+Keg/P47k94SuggPCJcJ3QSbk8UFkt+ynIM6IT6wcpapP9YC9waarrhAbgPVIfKuC5uCBxxVxiHhfvByG6QZSvzllWF8ZP232bww9VQ+pGdyShZj+xPtv15pJq9mtuQiqzWP9ZHkWv6UL3ZQz0/x2f/UH0+PIf/7IktxA5irdgp7Dx2FKsHDOwE1oC1YcdkeGh1PZGvrsFosfJ8cqCO8B/xBq+srJL5zjXOPc5fFH0FgqmyZzRgTxJPkwgzswoYLPhGEDA4Ip7TcIaLs4srALL3i+Lx9SZG/t5AdNu+c/P+AMDnxMDAwJHvXNgJAPZ7wNu/8Ttny4SvDlUAzjXypJJCBYfLDgT4lFCHd5oBMAEWwBbOxwW4A2/gD4JAGIgC8SAFTIDZZ8F1LgFTwAwwF5SAMrAMrAbrwSawFewEe8ABUA+OglPgLLgILoPr4C5cPV3gBegD78BnBEFICA2hIwaIKWKFOCAuCBPxRYKQCCQWSUHSkExEhEiRGcg8pAxZgaxHtiDVyH6kETmFnEc6kNvIQ6QHeY18QjGUimqjxqg1OgJloiw0HI1Hx6OZ6GS0CJ2PLkHXolXobrQOPYVeRK+jnegLtB8DmCqmi5lhjhgTY2NRWCqWgUmwWVgpVo5VYbVYE7zOV7FOrBf7iBNxOs7AHeEKDsUTcB4+GZ+FL8bX4zvxOrwFv4o/xPvwbwQawYjgQPAicAjJhEzCFEIJoZywnXCYcAbeS12Ed0QiUZdoQ/SA92IKMZs4nbiYuIG4l3iS2EF8TOwnkUgGJAeSDymKxCUVkEpI60i7SSdIV0hdpA8qqiqmKi4qwSqpKiKVYpVylV0qx1WuqDxT+UzWIFuRvchRZD55GnkpeRu5iXyJ3EX+TNGk2FB8KPGUbMpcylpKLeUM5R7ljaqqqrmqp2qMqlB1jupa1X2q51Qfqn6kalHtqWzqOKqUuoS6g3qSepv6hkajWdP8aam0AtoSWjXtNO0B7YMaXc1JjaPGV5utVqFWp3ZF7aU6Wd1KnaU+Qb1IvVz9oPol9V4Nsoa1BluDqzFLo0KjUeOmRr8mXXOkZpRmnuZizV2a5zW7tUha1lpBWnyt+VpbtU5rPaZjdAs6m86jz6Nvo5+hd2kTtW20OdrZ2mXae7Tbtft0tHRcdRJ1pupU6BzT6dTFdK11Obq5ukt1D+je0P2kZ6zH0hPoLdKr1bui915/mL6/vkC/VH+v/nX9TwYMgyCDHIPlBvUG9w1xQ3vDGMMphhsNzxj2DtMe5j2MN6x02IFhd4xQI3ujWKPpRluN2oz6jU2MQ4zFxuuMTxv3muia+Jtkm6wyOW7SY0o39TUVmq4yPWH6nKHDYDFyGWsZLYw+MyOzUDOp2RazdrPP5jbmCebF5nvN71tQLJgWGRarLJot+ixNLcdYzrCssbxjRbZiWmVZrbFqtXpvbWOdZL3Aut6620bfhmNTZFNjc8+WZutnO9m2yvaaHdGOaZdjt8Husj1q72afZV9hf8kBdXB3EDpscOgYThjuOVw0vGr4TUeqI8ux0LHG8aGTrlOEU7FTvdPLEZYjUkcsH9E64puzm3Ou8zbnuyO1RoaNLB7ZNPK1i70Lz6XC5doo2qjgUbNHNYx65ergKnDd6HrLje42xm2BW7PbV3cPd4l7rXuPh6VHmkelx02mNjOauZh5zpPgGeA52/Oo50cvd68CrwNef3k7eud47/LuHm0zWjB62+jHPuY+XJ8tPp2+DN80382+nX5mfly/Kr9H/hb+fP/t/s9Ydqxs1m7WywDnAEnA4YD3bC/2TPbJQCwwJLA0sD1IKyghaH3Qg2Dz4MzgmuC+ELeQ6SEnQwmh4aHLQ29yjDk8TjWnL8wjbGZYSzg1PC58ffijCPsISUTTGHRM2JiVY+5FWkWKIuujQBQnamXU/Wib6MnRR2KIMdExFTFPY0fGzohtjaPHTYzbFfcuPiB+afzdBNsEaUJzonriuMTqxPdJgUkrkjqTRyTPTL6YYpgiTGlIJaUmpm5P7R8bNHb12K5xbuNKxt0YbzN+6vjzEwwn5E44NlF9InfiwTRCWlLarrQv3ChuFbc/nZNemd7HY/PW8F7w/fmr+D0CH8EKwbMMn4wVGd2ZPpkrM3uy/LLKs3qFbOF64avs0OxN2e9zonJ25AzkJuXuzVPJS8trFGmJckQtk0wmTZ3UIXYQl4g7J3tNXj25TxIu2Z6P5I/PbyjQhh/ybVJb6S/Sh4W+hRWFH6YkTjk4VXOqaGrbNPtpi6Y9Kwou+m06Pp03vXmG2Yy5Mx7OZM3cMguZlT6rebbF7Pmzu+aEzNk5lzI3Z+7vxc7FK4rfzkua1zTfeP6c+Y9/CfmlpkStRFJyc4H3gk0L8YXChe2LRi1at+hbKb/0QplzWXnZl8W8xRd+Hfnr2l8HlmQsaV/qvnTjMuIy0bIby/2W71yhuaJoxeOVY1bWrWKsKl31dvXE1efLXcs3raGska7pXBuxtmGd5bpl676sz1p/vSKgYm+lUeWiyvcb+BuubPTfWLvJeFPZpk+bhZtvbQnZUldlXVW+lbi1cOvTbYnbWn9j/la93XB72favO0Q7OnfG7myp9qiu3mW0a2kNWiOt6dk9bvflPYF7Gmoda7fs1d1btg/sk+57vj9t/40D4QeaDzIP1h6yOlR5mH64tA6pm1bXV59V39mQ0tDRGNbY3OTddPiI05EdR82OVhzTObb0OOX4/OMDJ4pO9J8Un+w9lXnqcfPE5runk09fa4lpaT8Tfubc2eCzp1tZrSfO+Zw7et7rfOMF5oX6i+4X69rc2g7/7vb74Xb39rpLHpcaLntebuoY3XH8it+VU1cDr569xrl28Xrk9Y4bCTdu3Rx3s/MW/1b37dzbr+4U3vl8d849wr3S+xr3yx8YPaj6w+6PvZ3uncceBj5sexT36O5j3uMXT/KffOma/5T2tPyZ6bPqbpfuoz3BPZefj33e9UL84nNvyZ+af1a+tH156C//v9r6kvu6XkleDbxe/MbgzY63rm+b+6P7H7zLe/f5fekHgw87PzI/tn5K+vTs85QvpC9rv9p9bfoW/u3eQN7AgJgr4co/BTDY0IwMAF7vAICWAgAd7s8oYxX7P7khij2rHIH/hBV7RLm5A1ALv99jeuHXzU0A9m2D2y+orz4OgGgaAPGeAB01aqgN7tXk+0qZEeE+YHPo1/S8dPBvTLHn/CHvn89ApuoKfj7/Cxp5fC62s1yYAAAAimVYSWZNTQAqAAAACAAEARoABQAAAAEAAAA+ARsABQAAAAEAAABGASgAAwAAAAEAAgAAh2kABAAAAAEAAABOAAAAAAAAAJAAAAABAAAAkAAAAAEAA5KGAAcAAAASAAAAeKACAAQAAAABAAAAoqADAAQAAAABAAAAmAAAAABBU0NJSQAAAFNjcmVlbnNob3QeyaZkAAAACXBIWXMAABYlAAAWJQFJUiTwAAAB1mlUWHRYTUw6Y29tLmFkb2JlLnhtcAAAAAAAPHg6eG1wbWV0YSB4bWxuczp4PSJhZG9iZTpuczptZXRhLyIgeDp4bXB0az0iWE1QIENvcmUgNi4wLjAiPgogICA8cmRmOlJERiB4bWxuczpyZGY9Imh0dHA6Ly93d3cudzMub3JnLzE5OTkvMDIvMjItcmRmLXN5bnRheC1ucyMiPgogICAgICA8cmRmOkRlc2NyaXB0aW9uIHJkZjphYm91dD0iIgogICAgICAgICAgICB4bWxuczpleGlmPSJodHRwOi8vbnMuYWRvYmUuY29tL2V4aWYvMS4wLyI+CiAgICAgICAgIDxleGlmOlBpeGVsWURpbWVuc2lvbj4xNTI8L2V4aWY6UGl4ZWxZRGltZW5zaW9uPgogICAgICAgICA8ZXhpZjpQaXhlbFhEaW1lbnNpb24+MTYyPC9leGlmOlBpeGVsWERpbWVuc2lvbj4KICAgICAgICAgPGV4aWY6VXNlckNvbW1lbnQ+U2NyZWVuc2hvdDwvZXhpZjpVc2VyQ29tbWVudD4KICAgICAgPC9yZGY6RGVzY3JpcHRpb24+CiAgIDwvcmRmOlJERj4KPC94OnhtcG1ldGE+CmRwNVkAAAAcaURPVAAAAAIAAAAAAAAATAAAACgAAABMAAAATAAALVuKZS14AAAtJ0lEQVR4AeydCXBc15We7+sNK3eCBHeCAPdVG2lJ1r5v1mbL29gez2ScyYxdTlIZV5LKJJWkxk5cyUxSjiuVSWoyHjkztmVblmXJkrXvoiSK4r4AJAGC4L6vQL9+3fn+c/s1GyAgiRRIQVLfItFA93v3vXfvf8/yn3NuBwWaq7TKCHzIIxBUgPghz0Dl8jYCFSBWgDAkRqACxCExDZWbqACxgoEhMQIVIA6JaajcRAWIFQwMiRGoAHFITEPlJipArGBgSIxABYhDYhoqN1EBYgUDQ2IEKkAcEtNQuYkKECsYGBIjUAHikJiGyk1UgFjBwJAYgQoQh8Q0VG6iAsQKBobECFSAOCSmoXITFSBWMDAkRqACxLOZBqoqClHW5Y93uuymX7io6w1X6DnhgvqxLjPrMy41+WqXqGlwLpE8m14rxzICn1wgGqh6nItC5wr8dwH/Ei5I1QKkFL/zd9+mc8JTLjq0ESD+3EU7VrpCrscl6ke5VPPNLj3tBpccPt2f3/dc/V3I2/EuH/JryCUSXCflgrSu+ckG7ycWiIVct4v2rnK5PW+7/JF255JpF1SPdpmWO11y5MwBgZg/ddDldi934Yafu1zXJufyeYBY75JTL+NcpOL4S6yvfnHYfdiFu5a7/MGNgHmrC6qGce4kpOn9LlE3rr9TPjHvfXKB2HPU9az9kQvbnnL5w/sRhkjDmjpXffW/dOkp1w4MxO5DLtrzlsuu/6nL7dhoQAzqh7nU9MsB4l0u1bB4QCDmj+5wPav/j8vtesfl9+4CiIB/xFhXfcV3XLrxsoEl8ScAjp9YIOZPHXDdr/2FC1tfRz1HTDWqGDDW3PivXab5jgGBaJL00GaA+Pcu17nCuWwPNuJol557J6r5JpccNmVANRsd3uK6X/3PLjrY7gpHjnBc4IJMxmUW3+/SM+9yyfrJgDjzCYDdmY/48QCibC+cCJcHUAX+y+5KYnMl0vyOHdZPk4rtfuuvXK71RVfoxlbEJgzSKVd9PUBsunVAIMrOyyNNI9Rr/lgnIAaImWEuOWYuanayt/f6sy+5h+jINtf9xn9DGm5y+UOHAB1SuLbWVV36dZduutklMA3MPi2/X5Wd80yFfM7bs/pMtqwAO5AtW37+R+T3jwUQC9kTTPJWVzixx+W7D7pE7XiXGDaJ/1PAZFW/U1HoOeaym3/uws2/ddG+HUxqkuNHuOor/wzVfPXAQIx7A5AgH5DwIuAZ4IsOzgBAzB/biTnwILblGy6/qxObtMolxkx01Vf9uUuNnaeOzrwui0vPJNDnj3ZxSQCZqef4BQC/8czj4/v7iL1+tIEoMOB95vavR8X+xias0H0UCmW0S4yY7tIzbnKJ4dO89OgLDrzl6Nh27MN2lz+134AUaILHXYTjMP68THAhPOmknvPHd7nCyT3OpWpMCqawD+W49GqShKA8j4OT63rVRbtX2nkm9dM1mAHXQxdd4RJVIz4WkvEjDUTZa/njXdhrD7ns2scApSQUEyjHo7bOZebdDRhvgVLBbutrexUn2kSa5jxusSrvC9z48w/yGl/TXosdmRAVjVOUpnH/HCNzIwcAs6v/1kW7NkEdYX7oXI5NTpqLXXmrS0/+9HlbOPGtXIjXjzYQkX65PStcVlTKpjd7jxceaXrmFeYEpCYgcZAiH6kmW/QUdE/n8y77zoPmZcs+NVOAB0mMn+RSM66G+rnbJUc0nQnkj9TDcvsf5b1v8if2uXDrb/n/jIvaN/Qe+kzKJafMc+mW23A+bj5T9fU+euj9hW0YIe3DrU8i7R92hQOYD2UtMXacS067zFXN/YJLjp5VAWLZ2FzwXwvdRyCI33Lhpkfwft9ANaPOUF0BtIjDEUjP/DT/74Rkvuj8SkRTtVybKEshPGHqM0gSnSFKY95tX7X7fkZKEvHkfhduRyKu+SkSEUclgh0omhHJRknEayy0WJGI72dAz+MxZiOe2O161vydC1c9wUSJ5gCIokWIdmQWfdZlZt+NFz0WXQaVc74a6DB+8UgHZPdKFgSUTvVYlxy/BF5xItKqfwrpXW9HfRJOzBGJ6Vn1dy7a2eZcT9YWms5LTp7hMnPvcump1+E9T6hIxHcdzHP9UMse1aR4rNEVkihBkn+AideSYY/UkBTKEaoL2x53hexJ53Kn4PXqAOIEl26+lXDdjOJ5ZwkGaBJ5uflTe10BztFCgOk6KJ6pUELVvZ8MDzy3fy0E98uEDdcaKBWzTjVd54FSM+rM+y7xnth9UEeBOEHjBYv3qTEwqYj50fUa/a7x9yGulONTky/n/5W2yIIkFFUsde087j2C5hHVQ5+B4tjGqfZxiHo/xYf619C0ETUBOCKFbkCA+pVECapHQsuMA2T1pwddQyfJAamcRzIWoDoK2eP+2OoxRUnIBMeTdBZDLZ4xt38NHvlPXK7tDbzwGpdsaHHVn/5zvPCpvXqSNMxu/oXLrvulyx/YTbRFSRRgd9pcpPJXXarxEmgaaJbifZgkP6ln0/2SvcNnIrMTNWMM8KXOBSq8k0IIO9C933jSAkAUN6oFIZrKWvnzsSgK4XHGQ5zqIfodiX1M37X0LaAP0Ta0gChQiZI51gV3ttxFBzbYRBkQkUbJCRe71IRL+5ECcWRFUkASw0sXL0H7SMKiFC3kkJ5IDEVFAvi8GCTxPOVPHXK5na96+3PrKkjkNECc4mqu+y5SFi+1rBkQSQvLrvsFQIQfjIE4fQ5A/BpAvNgAYaBCEkZ7V7ts22/9swGyIIMtiQrPNEM1qe9y6WUSjueTdlCmkNxmLUxJQZOgRSlX0g5rXG7bM/TNQgbkTqCta3SpqVe65KiZ/j4kIYdYG1pABEQifLNtv0MKPW3SpZBDdTHWCtklJ85wqRbSrZpItyJy0hc872tsmVCF2nQdTVZyzAKXGj3HJre8PzkKOaiTsO0Jl+tYy6QnXGLsBFd74/cBS3OvS3mJ+HARiGUScfo8l1n4lSIQRxgvmEcS9qz6W2xagJhj0eCABClU8zBs2iWfN+fjXKSXLWDZy+/8jQvXPO3tZfpWC6ozJGUscelZiodf48OQvZ7gw/9jaAGRFR9iZ2XXkeu3W7Hc40gtAVFIDFxi1Cik4nxXtZjJHbfYv3+WYygHINv2C5drfwFghC41hayZpjt8Gla5JOIziynvfduF255yTvbh8Mlk2Nzj1Vz5dTnW7NTOl1x+n4hnpC0SK918g0tPv9FLIWzbAvar0r+ya37M/+d4NtmB/FfyA6o/s+hul5lzD6p/MuefXfKDpadp7Db9xkVIcDltsYttQB8xEirreld9yTfMdCm//aHw+xADYtb1bHzY9bz9INkpB8l+lio63YLaasAwhnjwt21lS0WdbSuQsHBq+XdduO55m6jk5BaXWYAdN2FpETBFVVfsWDZqRLZNUDUcFYot19eO03FSi9iU0WEk7X7MiUgOE6lhmBHJEdNYMP4+Cz3HAexaFtpPuP4r/grgxSR+DcBdCOc5515UaDMa4H0CsWgfKg7ds5aMoO2YNF0dvu8+P1MzF7vaG77rF12fzz7sPz95QMSZ6X77h9h+T+Jh5wiVzXNVi77ukiQRWKZ0ueGv2ZH3jGdunq0AVS4149kzOw4vPwe9gtQTMO14Mq/LPVrL7j7cjjR8EPX5LIDlOEkuScS6WtLB7vUSUZQPdlz+5AHvhIkNsKwiVDgLQnRUQIzZ28B+4VSAGE/GYLxiyPds/o3LIhHzh0WbEFsta0EdSQKjG131p74FLXJlSdKUDhEg+rY+wDLVvOXXXjVDPicbFmCXIYVGTO0fZH376+/v/q6r4/pc2/F8AlfP+p+5cPUjgBbnSrmQkN+J4WSHL34A+5dEjerhYDlyIeZDuIXE3WO7nAtZDKkMC6bFkh1SE3GAlNVdkohk9mwk1Nn+ios6t/q7jIdDWIVbTbVc7Gqv+w+c1+A/H0I/h5ZERPqEXcp+ZkA73naFo8d6DVVi7FiXmrYUVfp50qDmlibBDgIMonEKOBnW4Bwtv0/cY3kzNXoER+W4cluQKtVIFyiOWBX2BU/5uQP9btdm0eDxK1FBkrVf6SpJCcByh9qwO5/Duz6BPel5z8SwCXi2V5m0k/kQHcJp2/AodTGMA8m3JmUdDhOmSaJhpqtayBg0yk4uqn1MiNzutxm7X5LaRtxdtrWkrRrOUGIkNuLM613Vxd/AvBjp3x9CP4cYEPPEV3di57yE6nwcmkO2jgaTJQ1AkpMkvW5HImDPKVoSg8YkUsFFRztI33/JhjfIjOQ4MlOqIZPV4mP9X+/9syTluH7pd/XDxMd9xe/LE4dyyh/pxFY8QgraVIv/+lxIf+/lF7RQIPSQ+D4PxHpsSlRuDVwjz5rbr+IswpabX6C+5YA/tYgpecDBsJHwmd/GcbrJ34+OMGl7EGn7EPbno/TLwhCVRX9BdS2RmMXeeZpyFYtk6CWADC0gamKRir5A6R2yoDcjNbC5NPEMXqqRkBmqNFElUhsuLAaEJkFx5/YnAfCvbeICohmZeZIalzLwdWZz2Qfv94ckpzzno+3QPZ3gD/tMmdgksJq0Uz/cr5WXHt2OJ/4knj7eKvebGEEceMJF5pFbClpRapUuXZSMBb2y0AI9hz0Pz8R7ud3vAKhfumgbhVaHD/vTikC0FDc4zeob/zkJD/dynpeIJjFN2m5hIb9szpM5TQF1MbUNtnhFxIuzLJ1TuqEP/5cLD0SBTRNg0iQeXQaiJGmYFCZH4TpJF0kNfRakCNsBLguvxQAsjl+coZ1dDYe28VV7N6ipxgvF+J99v0tC6CpEdzbN83J7sNEehyB+0c5PDJ/gqi76RpHQ9vdpGUCdL7rsqp8BxE7UM5EPFUXVD3dVV/wTV0XSRWni7bk9+Cw5wwAoCSswqT+aAXGl61n3MBlFAPFQEYj+U3NsrLbmJoA4/7NnLDCTtorYSNriZMmhCdL1XoOUIivF8bc5KHZsY6oFUQS23u4zzvEtnI/XCw5EozkOtpnRLkLZYqHYaTKglfpuhrSkg1SyqRZNnAZI//V+8fey0ZB6Uyp9jwER0OioGni5JV9Eld9XzGLWue+/+cyX58ypiTrX2PWD2uEuc9Hv4ShdWwqv5aBrQhyssA01eoCYtCaXe1X9S9W1f+qqsWc1uZKu0eEOVC3PTuy6cJLwW30D3vJ41Ph0T9ALKJxv9uHmJ1hUT8BL7u1100GVVPNwVPM/dZmZN1vfvQ7Q9eVhA+jeYPfPb2N1cjdmxA4fYuS4gBofR3w+Uc+9DKPuht8NkB9LIEoaoHZze9djhBMKO4xNRT5hIDqkivDd6CZswEupFyGQrySBfgDXa8DL/zDVTBLpdoDT9bp9otR7kcniB30qVnGll6SA7kcgl1QG3Bb2Og1yearZzQ8DxBeJsGwt9knF3UKyoucgZZVMwTmWQb3hly63lTqUw0fsOL9oEq76hj9x1Yu+bMCIlDtJxCjc/Duk3B5zxBKjiQE3UNLQciO8KLtEWDwY2kbhxV1kZhMyjLrW4zHjXeu+lVU0HFJ/TDNVg/cwVss8YDS2xWYJDpJq5aZL8ZllRkQHWrGjX7OS1sJR4vMsENmyQe1IzJ65qPBlvM7rl1ONr3E+Xi+YRLTcwZ1vMamvEr57yXuCyhDRqlNqfwap2NCEXXe/S01UkgCenYHjfTy2SQEkAByeVKo1JkMx5FKmTLy6dazsUEJt0eE2+102ZIKwXaLmtANkduqOV1x2I07DltWAjvusRsouvof0q/u8umeyIzzgbCvJueuRXnHyKuFImQbVV/8pdtx95pCEna8bEHNtr2NyyMNGamHrqYovPesaPNpbiBYtRJLiSAAs2bwaq7DjZYDb6e+zBodmDGHORuVXIrVoeo78ka7iOJIMjKOUGD2DhTLd96WDeGZvy3aYJ57reJUECiVcyBtnPBh/jXVi+FjCmM3wql8ih3OR71PnX4B2wYAodXPq5b9C1bQyYUVPsM8DBvV1SJtrseuo8dWkxBV4Giw1rXypHWtnSrHiB+/+Qh8yCUR1hNueQD0dtZCXbEllyZhKogezEY/tMAmrgnhL05KUJfVKSQxefQVIL4qb9rzDzg9QLZSJSsoGw8hFHDsTcpqdH6BYdExWMevWpwD1Wj/58V0C2tSsS3jmO5DgV9MvjpiuDxUlVS4JVkBC2mIVmQ0LkBg+kQhOK87Ziy6/h10j9u000CgPM9EIUCcuYbFQQgAY/fNAVEkid7KwVj9EbiMSXmR6PK52RQ6VR143zFVd/seo/du9JtFn8SIuHnc+Xi4YEHN71riTj/0ZK/EYk89K7KfJ/klMJOQ27zNQEwyEPDy14ooWR5g/waDbKiYJAimmCMNZDZSkIVV04fZnzcPOH8OuQxpUX/4tsl9wLGIprGtwrFSXyyPB1KTy4Bs958hCUDNgn7RKwjyLTY5Tggya1Di8+1rVKadN1b4rEFugVmbfTsz7ep5nmC0C2dLmqHEfSoGLM4TUf/4koNryNFKYxInjOHSSsGoARiWqQR227OLPmcpPGumdcrkDUEIbIfK3AN79+7hvnVBc4PpVTZoJzjG96Cbi+V8l1WyS1ygfKyDuXOFOPPRNBtcb0v7J+/xMEWEY0wAQ74Sw/TKT4qWDOLIIZyTas8rl9uE4CBx4g5nm27BnFgMM7EyB5P20GIgdz8DVwbcJiEilM4DYX18CJ/99wm7xOTRJOFVWAI+Xmu8+wP3I+SLqQSSEGwM4+/GoV3vV3Lrcj4FFVFDhyoxpudw4vuS4uajTemgrHJqjqGOasq+TY2YjCYfzR8pAKgmd3fAIQHyhlHLWC1OpBDYkhWPz7nVpzBype2mAnjVIw+3s9RNTQnaFM3+kZl0EO/B1W0xW5vpxAmLY9aY78ZNvmuo6YyXGYyEgjhzFAN7hqpf8fgmIioKE2+AI259HDbViXwFEBifdfC2r/nZPHhdVWtzVgK+SYEQuzlDNOCDlqrnf8wGh6oylLq0e+gR75rAIZJOlJ15muX8FxYeRuPmTXtJalIWMbkn3bBtSbCNS7Bj22QkiKoQsgxEsvLmQ9FMvxxYUZ9mF6gQssgtpiZFwktMA1TTlE84AxCddlmKxcNNvkW6rGAvsbLVy4YY9m2pe6FJ41RlszwQqvQJEP0wMxCp34lffRi3jTGSLg1f8LH4R/5ZomAwQ73JVOC1mh2mMMdx7NpKx0kbcVUVEkqq0ZNN8bKt7II59yry9+V4/JNUkFU/grBzBWZHDhOEvNW/RGmbU1DFSWHaaJG2AU+JtQrzkA5tQcRTz71mLk0ASLFIqNX0pEoSFQz/Rvg0862rsYNQ01wnECDTMxm67GIoJ2oTryi4VR2qhRbKzkyPYkaJujEm53LbXXOHQPuxCb74EZOUkxk116fmYKzNvA3jdtiDD1qfhN7E35VH3bQJiyyKcIDz8ZmLXAuJB3fejRGue86q57zn6W04LdmZmyW2WaidbtDxpo79TBuu9C2YjRgc2u1Mv/CcmqsNvQNTPEyjNK9UEhaOiIMAVpKvtqEEHovWKsd4PfSMnRY5VbtcKJBNOCjZbgJqtmv854zjD7a+57uX/C4nVhX1GBjSaOTl+istcjCmBlx7ikMhpKZw8ZipbQE5Ophi+5QZzXBIq9u/T5IxEh7aR1PpjpNw7XsrFcWJ563jXqeZLyCX8faRutYE93PoCoHqzfyACpvT8q1xm/r1cEw87U2PmQbgdZ2XFj3mujj53UPwT7lN5kdVXfRP+9U5AKNOC9nFSzeLlejCWI5Iaol2oV6gDsxdtJpE62gemYZoNXnoSsWTI1dhxkIEedjLw21/E1iLfTxEDJjg16xbsxFvxIgldxfFTSTyTakg0JagSB5bNpgn0fCIT+y5NtE24DUeGrBclmDp26wrqRrmaa7/DpC5BLT7tsiv/AWJ6JyqW/pmkRAPqdcnn+D1BDfIjSG0cKtEzdi88xiQk2kwKqfCKk6Nn+qvL+xeBzTlS5zkkbM/KB7nmhn7vLjl5uqta+oeYAU22gHKo7+yqh1yBLfVi6WnpZEjQoH6ky1zyJXN+4mxvo2+oMuwh6Ti3hRAgC8XyPWWrcg9BFSAcQULF6Omu+mLKGyjLuBAAjB/2gklEH/1QwfhzqJZXkIrYUUehTjCsHRxicuxUVNyVRt34NCUAE69E1Kf4MmVBS1JpBy55r5mZ2o9wAccRNYiPZfIFQKldZVbLlktNuATV+ClTv++V+Zw/Trr9WgqmOqicE5FNvwG2a2bp55FqN0MGv+GTT3dt5BmIDOHoJMZPJKvlywAk53reJIVN0ZAiCDXQiUYya5q4/phZ2HxTvWrG3FDGd2LYOABBUu0R4tUAPGonvt5PS0yeyq5hX3O2SCG+IyXCsgNEruNNzITd3KcuhPRtnEJJxUJXteT3sCkBrX3gO5SpIUdHCy3qwnw4zB48slWL+zSmJi3CHr3K4uS9kkr6uZ/BfuuCAdFoDrxdeYMyyAs9GOxkLGuDTEkrv3HSZF8hJy+4vGlSZddpVyxsLPUlaemD+GxeFINQ5wiIWSb2ABJmHZJr/xYrRNe2b6kx8wBOcXcwOS1KeI1I3ZItx/tSrZGoHZyi3HY2PurEBkNqyc6rWsbWcaRpWbIqIMh1qsRzk0ni5Hh2lJgl++2U615BDfL2d5hgSWPuGzWZnEwkZNaN3BflqceJqmAjOhywgNi1MnVSE/D8seOkmsM1z3hpGqtmzg+kmmddAdi/ikRt4T6rzXs2p4mEDHGE1uRVI10LPFOKKJWOtabFpOeW9JXtyyLQzmQFqvws+4fxlr2qVDSZDrGH3mtcfU/n7ecFBKJUphqvJi3iv/27tnINUGWSMP6oTLrY+fH7Wu3lINT7AiIJr4qahJsfwfZqZyOm6whdXWVxVMuw1mGAMNq3GjpoHbbeXlQSYJl0JaezWDAjch2E9ra+TISETGgypqsv/Ufmter6Fjc+uMWiKtqNyySb6kzoM9v6OE4HKWxdcoR8AkSqeRn1KA+gDZ4nIfYxro2DwX0abzq8wdXc/O8NND3rKZN45a8BEyCOnRBAmBjNZvEUVinbpsSt2hicOZbia3vW/ByzQZ67T5iQrZ0kh1HhO3nfRsmcMQfxWPIat75jG79/Hl4HH4jFB9RKM1JWZLAkT9wU10zwX0XwsutYpSUwxeeKJ8RpMG6O8yyDBClgNlV/4Iv71qv6KEBESyrCPeoeEgApUTP+9PV0GO/3bPiZT5k6fpA492LMAhIkaseZhLbQGZLPwoTcZwA5rQwgSRt7LpIWCjybxWnhC5VPKIDmKY6S1DRJKmM/BZBIJEgC9Oymx1z30z/wEk/zrYRVeNO6u/6Sz2eibonkdC5Hfa6inw49DRJzIqwA8V/ON7tZfSLNLUYvSaa/NYbYnHmeKWQBZVf8P9QukvcYzpSarkPxVHLapfCzD2AizGQsGE+dp8a5lu2kZGHGXX/bOIrcl0aADbD5iq/lzxrUn+cBiF7lyZazEBSqUbaIz6ThucYQCyX8lZ7yKew2cgUVxiuLZphRjXrUzgb5U17lJOqYDEJ+Zjv2VzNSPiQG5viNWOqeucrllGgb4XDzKwCD2pWpc3GUHjB70tM4Oqd4Pn1aRkzb09wXEhRJk5p8CXbtbOYLVSfukHCcTAzLmVRUhUwiCwuWpErgQuzLEz/7tpd26l7Sbmyjq7udEtWiGtXzq9Ivj8RVk7SVbanxU56ibEkR/JathA2o4iyBROA3J6vtGWL5eN7lGdrqSCp++HBMBOLas6B1lN0tYNEEQsW0FduOCBnqKzuMq61W+tgIz2M2XcOCmuQXs501uD8GHYh6qBzJDaq30B7ThaOkPGEQ2wrj3oN60ugJrqdYnakpbJIEv1aKoDDYSiJQTDRCxcRp/wGTmiQIn576aRv40kr+AGMhUrtnLXRJJ0kI2W5T3+mZd9C1lzgm+eR1y7NFCkdkw4TtL+EYtGFbnQS4CwFIC8IDCQmxnT+wjaSIeiPZFSeXFMafNqBq+xElcYRwqT1v/o3FjjVOiWGkvo2aBjBEymPPKWkDs0ISV4szYCcHux8WhIqjJFGjAzhQsmkxGRLDxnM9bF+ScKN961HJ5ER2sYD3sPD7a0RxkpMUQiVxA5tWQsAqC0lly67/lXdgqJ40s0A2Kk6aIj+JcdMp412IxmBDKy2Kci3W33XO4b1BB2KeSel+66+hCJi0QzxU3+C6JATcWKJxMtGEZa76oq8xoI3+1lnp2a2/IzCP97h/h3Miv2nKUEmMgasj7JQhXaokQf1Z5/RTKihHyDBPFrhAmSKFPtUwH2eCAniyo3M73mJCtzDh8IhK4ZdzAxVUUFEXsd1EA7mTfNGPbE0jqI8S2uNbCVLN7OKK0a/jLe8QpyDJYss032510vnD7FKLw5Y/yvuoSAFREq7QjSkBGW5F/xwvcCUJ71kRFYtFpRO59rcAPdJKgrroxKQX3AK/+Ecskuegjn6FZCa168jx/sdEKnoUG88v+AyRq6/YOIYdr6AV1DdCI3awys/WfHGesokyl36JtLYveakYa7HyYz/A74MHRKlEVqqM5VOv/sDldzLB3diHvVTl6TsNhhFxaGxxNdf/W2gVJkONCelpfbRYxafogg/mB7VwjCPGw6P9kcvMuOk0ELmeJQFkVQx11CWoO7YyS/sCHUkyWvG+vIRDMrOa4xQq4xkFAgAmr90iI9hp3a/9wEuWfZgGInnhOJMTAA0pWArDFU5xrbHYbFpA9F/g+rLprJZ52jK7rHm0kNT5IzuR/stIrfoK/StenPR2GNJPcWXFzMPt1Oi0PolNx/XQColGCPCm632lIr0pFU38ZLS7nR3BsJ/VRHTzXzHlqkv/0GiZ3LaXAPM2Vzh4yB/T96dMgYYJFJ/d7bO7+VyLLlxPUf4eVH5xq5S+p5kND02Vufh2nuML5umX0uvOOPjc3hg8IDKASujMbn7M9bz+I1QyFMV7NCWG1t33AyTDbH+kgLiprMC+2w96UIMzoML6Zf/YCOxYIipMltuNGdDxPFTLWxjjeIVTr7Uv3THPUL0WJVN0qBVQtAJEqBC+lMdv9I7BXt5Y/YpwnHr2L7AFCdEdQUWqwXVmLsKuIlUr2s8Cwx5LjoUTHEE2s6gUjPxo/yYDlaV9UUilrUqiXesB6F6LilRd9seYFc1cHgetVytA9P/KnXrse/5dSS3F2+cg6Zb8gQG3eyXb7q35NdIODSOiXE02Jk1F85nFXzQ6Jtq3iao/+MF3Vc2kp7Gls1Szkke63/6/APFxxgYPO+7bd937J2OTmncF55JIMYlECiJOg9kGEYiK3+6z6En2rX8YWD2U3X0waqSru/+HlIbGQAxdFumQXftTJBJG83FsNFpi5HBsm0VQIF90acjpGIgin7Mb+eIdbNJo9zaklmp+oUrILTTvVyfL7jyyBbuTqAyqWB57agZ2lcCoTHCkqoqjtIg0MQpFmlomg1yZOUENFXbYcuLwlMkiKSoJaskMithIdUltY9sJHZogqf0CG8RHh9u55mqTnMnxiwEswObYQDmFtvvXaJ4lxeJ93J363ffoA1oHKZdEaqXn3oHU+oI9qyU5rMOG60R1F2PQpi7ZFTez9IuuasEDnmM9QJIuGeDRVtSs+ioHlgCO55yac73FrFMNczimG96TOh/Syd4XEGdfxALR/jlkkw9ySeqgAjGCu1J6UvZtQk9Hi9SBwDBAOwOIgEZ5cyFGedj6rLcxOTc5bpJNTLqFL9RRrLZIO+grLbpf/0siGW1IC2pARo5Grc13NUu/bcSsXVZ9ap9tFZ/z3XmiO9LzSbNvYuctvn5MKVqnXvw+CQRvAnwq8KidTk5e5O2+EwctpJYcj0eNQ+EjPgM8TH9vc22jsTAbCtnDqMGfwiM+Sf8smOnXkXN5py2YLDXO3c99H0nrtUhy0iwm/A4+x3lCdceJFuE61Hex1jtOYq2+4V+5zPRrALiuddJ1ixRf+xueBXMlBi3gDqowb8ZPc1WXfIVQ4zVekuMUnQ0Qk83zCVXeZEC2XMv+nvkc3xs8IMpWUghp50rX/eJ/RUKRxlS+IvveIEmwShaove17RaKYA9QH/KMiKNoc0zgt3pbtpj1nAlZheTaIpfMrBk3oL79vM5JkDn2yalW7q1IDNSRQRKZ1RD5eBMgD+klPvwFHw2eWSKqefPY/AkQoDzkhjVBFFPHLS1eWtVSvpJ/tRQgozqrJPpW0lIQkmpFtI4eQTO7kpCU4atAoE5eZTWsF9QdbTRrLY07KUaEmxiQ2EleSKyJOHG5lceLsmNdM1o6SMVRAVdomT1wizpaiT8oAigjnqWn/xSTq1LhIKhotcsJiln3dw7bI2Q2P+fh4TKL395DcR3ohm8cv+KyVESjaNJht8IBYvCuFsE4+/12vHrQiNRl9Gw8VjNTgLHA1V/8LX8HW95jyv6X++msmcaCL2LFLO7Vqq+BUwyIDTqy+DdwsEHm2ymxWZMJLVchamgrjTz3974ikrOePyEurZvamhqpIDp/U31XP/r2iZNR+2GH7M1YGkSKxIzm8yd9rsUdxiAYywB9L/dLFZEKw+Wa8QOUYJahXTlRjq4lyUovHiTEXrxiRsmb9wTMm2RmjVI/tjzYgqh473PgYNNZGWArvHBY/Pv2ifvHSM8vux24lc1uZ50UO8vRBH+y3QQeiVrQVE7U9g+GMTaOygHLJiOGv759LTmVfQm1G3kL2jOwNSQ5sLx+FAbyK/cZMfjzAfZ81ljji3lBLFgGQx1zOc9lCoD952Py3hSHqAdpFO6pGB7cxCWRNI4U5EZUJt8kuXj6SUtX3iuf2d3yfqOg8DpaiRpb7B0BtS+QqbEYiMwKSthxWDDhPLN7J7kQKn94p1y8ev7jgHOEirWqPsTIpF4NDQKROJuKLkOwLKI/uwiHEy7eyAZ9bGVDKyk1A2exDixF8aHvudB6kjZmGAwCi1hNjKKpqoKhqyZeN9zVutWgenduAnHnWoAPRDH5WbriNDYQ2PwXvRszzmGwfSUYkIZusJyguSs+8ATL2elTkhCKxeoxVTOIoqkUORlA/jpXHV5lJxcYPPRAgz3yu/iWxHYf61/ZwqGll0igxNiDlTOlSpsLE7eFMlKRLf31/wPekqvMniB7xZT7aMDQ1aRmSfIktJI1TyFekha2oS6gk0VGpGVA5qPHyb8QyT12Z4mSMa1HJWzf+snhvviRVe+FA+7Sv5Jm1yAG+eeWE+6ZzzSlLOW8Rjgpefite/m68/AO7MCXkmRMLh7JxaViGpsuYK+L17CXpS30/4AD0c/rgA5HVpJirPESzfag2y+143QMDD1GZyqI+/H6D8GiATlLCykx3IJnkWaoSjtT/ZONC76GdSxGPpIJKLYk3B8SPE+zyb/FVrmdF8Rb5edOu7yMUN/qBFi1RnlbWz6B90LckvfPs0xO2k/OILZdquQXa6ToyqVl0tOw2ch7X/IRjdjNO9QDhaiI/N7Gz7UwbxwgbUPafvl9GtqfGUJLcZ9wojlzLQmuFfSCW3knZwZ4uG9PSFnjY58FIhMFcMrHn3WcLQFSYvPzcDpw2fpdk1rUFPOuXMgXLUrdI0wcdgTPPPy9A9JdBAhoYDuK1rmZuCdDLVoEzLIX09LnKHLtew9MjmtGJTROrcWyS5DjKBiBfRe7a10TE5JmkK+eWmknKoh0ZS01UvZJpw7ZHGUhKQLURZylSQTSBnVVzHSutn8TIRtK84CjlfcbSt9T54P9iDhnfAxi2kxeIo6Wt6FLwn/a9ejxbdsuTbG/8YyiwvYwV307Ad0Er/KjcS+2tk92qPX6oWdm2jvHC3KAlxhMGZTfdavGVI6ebVO1++b8j4URD9WEwNFQiqJfd52qWfYt5wZyhSVKrhNVSyXBkAgq2LKZdw44U5pwUx1gHx+Os3wehDT4QxcWpeOgYhjUrSzHSPHaY1F+ScFZq8qe8saubB0xKw9Lqt5W7f7/etH960MQI+MMpELbs8ZKedJmBRCE1SZMIL9NsSs6Qh5kc1YKKhyyOQ08DANGuCVcYduBtk/wqO1TedlpxVPGZFwCIZg8roqN9fWwzd8KILFKTxNx3jmfLUdyvTB5HZo++wk0p/1LNsv163oHg3vq8J66VYU1LjCafcMw0nL/v4B3PIsFiuet+4b/gZTMP0FK9mvDE+GaW3uNqrvhnp4EIY6Ewo5yc6BDeub59FQmopIvkqOnMG85R3Vh7b7DHafCAKAnFIErC2WbsXSsYBOLFAFMtMZrMYR4oM5sAP2LePwj2EAmo3ct/yMpV6n3vlWuFQ6MJScF9VVHwLYTKy80SBgyhHFwPRj8tNedGyN/P+2hJHLnQhCqjG2mrHcSSo2ejnvH21AexXhXFW00KuzuY6sGrjOkS6/RC/DCp7sfNVp8Wgf6U6ibzSDYiA2ULLdAusSwaecPdK/43uZLE8rVweU61gEWbGDWRbz34NyQmzPZAhEbLHyL2/F5AtDHznrbqWqT2I7hZSW7Nn2LqSuJNTWSHswlLGGeycOTZ24XLpKR/55x+Dh4QWeE5mH1lNssDswo3slpKm0VWwcexT1+qBXsHqagHkhQ4GyCKpwzZtyXcwq4J7DUTJ4+mmjGm+YYpq+Et8YeyVaFt5E0bHaLYM545xn1uHxV4gNGx1bC2mdP2Gv77WwDCIKucAWcFEGqLlPxxOM5D7ajcQyzUeYQBm1i1mDHch31pDx3IrPFZQOCOcGJ261M4gqjmrWtOq+ZxaJwJC0qqWSlj3cv/JzYoocp4T574ZvCEFUOvugw6ZumfWP+ihmQfhhuoUDys7G2iWtieNn/EqGVfC+hK4cvMupW0vPl2n4M1XoMDxKIk7Fn19z4isn/vaVsvfvjia6BvBhjPF+dc8S1Wbovl6PWsprJsFyvwCIa3SQl/sLYgSYxrorSRQqAZ19nEya4Kt/D1F9tX+2swYammi6knuQ1ng8wX28Cpz0X1pyYeu0ffPK9vLpBTJK9cqWiSICWV3s+p5+Ut7kfOVLjjJQD1NJJrO/bw54il38EzILnlMJl49BLPaxCBk70gj7TDSjxvmeBOuYP0lZxKxg610fr6Cp2vIn0VSkU4K9G+orOisWW8VHoQ1I+wrZKruKYAp6KwcCNZONsA9wDJD9JQ2gQqs1CxaqJCUtNaJIPQBgWIoly0W37Pih8RI271DxLXXPS9SQ0CaV1Vl/8BVWbX+agHzky4EQ9yVzuDwsAzXp6/YoPJFsoieegUO1XJJlTyQsig5ba8wN94dkxYqvlajmEC9Y31sWrue10tFsj2sEuOCun6ZFjLbtU2yD61TBLzArYSEFGFO141Wzo9+zMAiaiPATFhZo7Aygpk0SjtbDw3iDTTOPAsuZ14uNiM2hLFCHJswzjrXfSNSH6vatci4bBHsa+1X7c4xNQkIlAzrrUtoPU1Ht2v/w+ECJtjSRgMNHfigPG4U7OYE0wsMSBm2w7CsP1/AAAA//+TGgb9AAAw00lEQVTtnQd4XNd15++8KWgkwd7AAoIEqyRWUY3qklVsyVW2JVve4o39eddO1s4m3t0k62xcsv4+J+s4u99uNsWJe5NsNdvqkiVRjaQoUuwFBDvBXlBm5s3M/v7nvTcYgAMSJEEKEnglAMOZV+67939P+Z9z7sQKNHeOLdv8ovN3LXeZVQ+7wpGjp79a3HPJ+be7iks+7GKpGlfw211mw6+d3/yKc5kO5/J555IpFx872yUbb3eJsZc5r2qYc3S1kDnh/ANrXW7fm66Qz7mYl3Dx0ZdxzDwXi6ccb3B/zs/7HK5Hi/F+0vqUbz/k/N2vucy6B13h2D4XGzLWpS6516UmX+cc17mgzZ7luMsd2uhyR5tcoeOIS4ye5+IjZrhYsoZnzbvsnmXO3/MqY9LmEhOucskJS5wLn8Xx7Pn0cef8Dp7TZ3xGcF5V8Ah67kLwee7ABpc7vM0V0sfsWJ3v1YxizOa4+JAJLpaodLkj21zb0191ueb1zuUYu1M15i4+eSbzcrNLzbw7mJdTHd/Lz2J9AcSO5f/ocvs3On/Ly65wvO30txYQ594CEO9x3rD6YDCObne5A+tdoe0gY5h1sYpBLj680SVGzjSwBgDTpQFjLsOAZTvvw+AaCAGdWr51n/P3LedaB1yscqhLTr65OLn5jkMuu+1Zlz++23lDJwHgBUzIpBDAnZc8769skehZeA5AJeA4FlKwaGL2jNktv3aZTY8aSFMz7nKpWR+3sbK+hecLsNZicZ4heH4t2OCYPB9H1+c4va9jODYWT9hCLWRaXbb5BZd++e9cfn+LhvfUzYs5b+Rol5hylau8/DPOGzT61Mf38tM+AWL7K//L5Q9ucf7WZa7Q2n76WwuIl93kKi69x8VHzrKVXMi2ufyJvQBkDxKyAwDVuvjgCcGDegxybxuD7R9Y7TJv/cDlDzW52OBxruqaP0EKjAmuAIize98ApC3OQyJ4Q+qdB1iLk9jb+/TFcUj+Qp5FZUAEKEhlA6JAxfuZpiddduvjSLOjLjn1Dlcx40OAtSK4s0Al8ALEAj8xnRNJ9VJAckwn2LlHFyBybvoEC/N51/HS37nCoUOnfyoBcfhIgLjYVV7x75mfcFxPf+Ypj+gTIKbX/Nzl9q5x2Q3PovJaT3lD+7AMEPOtB0xN5Y/uQP22miSLj57tEkhFx+rtdTsNEAt+GnX3OqDfxSCOc/Fh0wEpq9pUeq/vcu4H0s98x2Hn713Jgtng8m37XXzUHNTzpS5eW29SSyo7f3SbScf4sKkuPnQaYAsWpZ4jf3wH5x0CTMdZUOOR7JORmAA1WrjcI3dsp/N3vIz63e4K7YfRLlX23Ilx89EI9fx7EKp7i2t/4isut2Pr6Z9Lqnl8vUtMuxFB8lHnVY84/Tm9OKJPgJjdvhTb6w2XXf2wyx9mVeVPId95kFgq6VJXfhIb4328HswijTEhq5y/81XU6n5XyCIRsR0T4+e75KRrAMpIBjew86Q7iqo5kgb6DLBG6tlU816kc/tBVDyquR7VzICrFbLYo1t/7fIH1iEtx7tk3TWYAEywJMqFbALJ8Z0ui+rNNj0PGHcj9a52yWl38tyXmwqWZnC5dNArJKHsuaDp3F2c+1uXPwbAOo5i87Foxy3ExkTDMHYmKVnQmaZnsN1/isbaFWirZAKJNspUa2oa9vfoS1wegLY9+zVMq2XOpVHl9K3Hloi7RONC5u69jOt1jO/gHg89kw/6BIj5YwzKLpyA5T90uZZdzmX9nh+mMuW82mGu6tb/5pKsyhy2mr9npctuftbldr/FwIfneh4DVucSk5mcqTe5xIjp9lx5VEkOZ8Xfi7OSPsK9OjiuwYz8BBLFJgFnpaDrmMETOiuhxCtkjruOZX/r/O0v048JLjX7Yy45EScgUmtnMnrncqwkIqZItvk5gIjNemgb4FjCs74HcMztArrgNpH9x7MJYNuecpkV38fEOMqz5gDiJCTqbJe67JNm0mhBZ3e96rIbH3e5JkyRjGxFqX/GI4UtWjvcpeZ91FXMvsdMofTK73Hs09iJe3FqUPk9NYCcWvBel0IaxodKAkeLo6cTevd+nwBRKzd3eCve6EMut3056qQFacRKLn0gVlKsAo8NcMkbrrj83zFg4001pd/4HtLwLVc4fLhLr2OVSIERY1zFwk+5iul3mi2UO7gJu+kpl93yHJOA15jNYDxPRF1c5irm3m+eYJeLdPuHJjG95nuAfjleM0Cc9l6XGLOgU511O/68/FMSB2meQ5r5O1+xsXMskMTkG+gLDIGZCrITs4H9p0USSWx5y0jAzLqfufSyHzPOSE2uFx89xnmMa+Wiz5lql7pNr3nA+U0vufze3V0fAzC6RII5+LCrXPwf7Pzs9pcY02dcbudKVzhxLJi/6Cwdj2CIDRrE/I13FfM+gQO4JPDSIzMgOvYs//YJEDUQUnk51F12G1ROMyr28G4eCHsxVNOxwTXYJGNcooFV33ATtlkDD1KJ6njOdbz4N9A+B7o+vB5IhrUG7Jr7XeXCTwPsNJLgGaTnEy63DYmYQepx/VgNds/gka7qtq+5xKhZpx4KnBX/4LrAo64aznmTAgriQtqIgEmUld+yBrZhrdlZHotSJkKsYogeHHDkoHW2YgMeZHHVB7aYTBCZI9A56fW/cJllP+A5WgOJOG4CFM8iJOKnTCL6BzfisP3U+dtec/kWpFxpM4fFudTlH3BVV33RHCSToLtfZ+6WYu+vc/l9e4pz5yREqiqgbRYgsW9Ag4Tmkq6pa/VB6xsgqiM2QK1mu+SPyIg+CP91nLdRB7RY5RAmnImHronLSA75sMzmp1zHc99CTSHdZJ+UaRXX3mcemgFx86+xjZ5ggNcWJW6sAlVTM9hV3/UtgHgJVwhokUL2hIHXNDQcm6dJZuA0kYUMq56fWLKavsHBScUIjH00sGUeo/iWuNDcoc1Iw9cDIMq0wFZL1mEbhhyi0UxNjzMu2I6TbgCkoe0nkCIpfXjU9NoHsPv2mhBITL6W868IWYgaQNyM1HzYpFx+987g3hFmkGIxTKTUgnuQoL8XPDu8q8CYw8zK65rH+YnmTnPF+MWHTWHuprAohmOT814ftj4EYmTgBmpHUlKA6GyMgq1EEc7RiBTcmQFRlAZqecNvUDmrAZnsQK5WVYnjMdRV3/FNgDgbCYFHidrLbP6Ny2F/qiWY5IpL7+90WlDRfgsODaAUtePVMsCVkOYXAIiyDTNIdX/b7zARNnDvkS4+caGrXAAvB9ksusbftwKJ9kNA1oYdew/S7lojraOx0/u5wxsBDZokcxRHZRGScCIfa3zBamuLy25/kWs8gPbYaO9Fw66F640c51JzP+ZSM+5GKISUkOYrmjcES2cL56u4UMO57DzgnF/1HRCjroQPIs9Xg+VQhcaVhZ/HPKIfSB8PCalBy+58zXW8+n9QH81QP0iw0iaVUFPtKq74V67isntN6vr78K6ZQH/7ayYJJIm9waMwvicawRofMtHum4MSSa/8LtzmCrtiovEqV7Xkv5pU1htm8G99zCSKN3gyxPZCrlN3YYAoRwLuLrtVNtkas7sSExdh434KaTPSnId8216XO0ikg+dTtMWrqQuldggKaSCNcU6edcborqLjIFMJu92coS2yp58J54KFy5h7wyaZik2MXxzY1NISmFaaLy1iRaV0XzEVMf1IayhqI3swBHrpNPXF6/MARAZIXN2+1age7JND2DlHMJZF2tK8EajmUTOC8BCrP3doEyrmV87f/Dvskq62jNl+46YyQfe5VMONBpJ8+xHU2RrztOUBaxI8qQxFYQgFig4yaXE6ICJ10qu/y2TBJw4nlDjpeoz8KRcEiOL9/P3Y0zhduR0rnDdmpktMvNyl6m+0/gcTG0kn/mVSOgRgJLFtwQdHFn93/wwwSUX7u5ehIXaapMU+wSG6FGfjeuxRUVqAEND6u1fYfOXoV6EVTxxQxgaNxK6faLZnsm5xqJIRJOeh9TkQtbIUd5ZayO18gwFAdZzolHSxQYMBzjg8r/uMJ1SctAC4LF69/VXnOmRX+kxINXbTDDzJJdAZc4IIi3SLbBkmsgAZbOErBlscYSyFDaqBtagEx+BZ+jtfYkGshOwllIc3Gsd+NMJXAwmAc0e2MOCQ5xW1rHj4zASrPgqz6TrRxJ7rwAs06jfxZPU7dwD7kMUUk4ThntY3FpPU8mltr/BaJpmKqrKHDoaSUXFsPaeFTuX9wq1K8ur5JFVzh7ZgT/6SecNjPgKP20G0B8ZDDkpsEOM6mkU+7jKczBvNvg/uHS6MHm59pm/3ORDlpHS8/veQoy/gOeOwwHFFnrN1LqQC4pNn8WDXYaO81wYld2IPiQx4kRjxAnMcji/Oyo0Pn1piw5zJ46Ge4BwLPitbQIv4rghc3SSKJkr8pMNZ8AbVBaDuK26ReLISLjLrH8Fme8TsUvGlqXkfdBVzPuJiGP9FOy3qX0+PKkC3HzVVaeryVMd3e8bul1RgINeylnj2b1123dM4KMeCuYrOE9a4vtngADI1/15XMeuD3BvHro9om6hPfQdEdZ5B8lvech1L/xZpuCFYWdFDRXcM/8Zqh7h43UxXdf1/MTtFg6KEB6n03H6SH1C7MZyH+JhLAKq8WjxjRWHIwokiKCzxQDqSWSJ1Z00Dh3ccSyIlOcciMorJCgx4yUGkgmO4tkc8W02mRO7wBpfZ+BDvDTfJGYdUPmvnRc+MpNZ15SGLeFf0wrzYVU+H9pdn9Eml7MIwcqSQn6JCAlgsVRva0UhN66Suh92HE5bd8YJRTvGRs41+Mk87AmQ4D6Y1xBqgcUAT15Sdx/gJRKGdJ0cts/m3LrP2EUyEDbAWSMJyLYyGJefeGYT1sMeLC7vc8WfxXt8B0YjWI6RzPebSr/yzKxxl0k/VWG3e8BGu+oPfKUZNBCwfXk0r1N9KJs9hiHEGNlYB9TKUjI/JV5KBcjfAxanAiJaqyzbjuDTxs+0Nu1sM3jFOQD6JvZWcuJgJrTFpZE4Ox4paUuJAcjpJBNNus+vnjzXR74eQCr/G+yb8JT6OiIv4u7NSzwZCVB4pWLK9zPCnH37TC87fQBhN3CqaIbmAVDjI4XgtEQpMgvSmXxGd+q7zRk2l/zfxc6sBSA9miwW7Nyv6auOT1i+ZOJWXfwHb+PLOfpoJcJhoDWNCylsBU0cmQHzcpTAH0DsjyGZSPFrX5LOOFf/ksmt/w7gcLtJh9mH3XwA9Medql5rzIZccv4A56ZvQXnSbPgQiKgNvML3+YYhWGP+jnXZhdLPuf2PDhrqaD//vAIgMYE6Uw6bfQM88iZOzBwlJJo8mTd4zUZb4eGyVhutdcgq2ClGRHKljHUv/BpVO0sDBA8HlmWBv9HhAS5rS/H9tBnbuyNYgGtP0IubCXibGI2h/LZ74fXyOXUZIUHmBmc2PANyhcHFIGmyoGDl+RmcwCfKoe5QCLBZJK3PImHTZZP6+t3Co3oAcRt1zfQs98owClEl0pF6KNLhk3cLidTObHnLpFQBxRD3OBEBsuK0EiAC75U3ro7/xdwa8WO0IV3nVHwKMq4tANGeuhZDplqexkVkERJ4Eem8IC6z+ekwBUsnEWNAKHcdcx/IQiEcJl5ZGwuyIkl8C4gxi/+QHJMnf9KqGlnx47i/7FIg5Urgy6x8iBvqLMwaibKjsjpdc5vXvo9abyj6ZqfOx0whNfZoJXGxmQOsDXwgAK1s0avBk8fHTXPVtX7cwYnYPSbtrfkbiJ85TmLjrja0jCvERl5pyMyAbG0icg4AG58GrHmuOTpaEAUvASCSZ8C9Z6Cy6RZe/WkTKGlKSBSlluYObkVxPA8L1LBDl+LGY4iQLYBcnpt5g5oVMADkp5rlKraJRMk1PYEP+CF6RGDtJsAKjVKqaebYkyma3PArDsLRHIOaO7WAOYCG2PO9yu5qDbnJ5tUTjPFd989cxBUbbv88UiPGpc0iIvdWlGu+wBW4X6aNffQdESQU4KJ8YbscL34ZI3h44Kj11lIlRgmXN3X8NYz81iFVvQO2sI5rQsq/8WUqYGDLUVV73RZeaerOFyFof+DxARBqVrmaOKwWivGMzyFFp+YP7kUioqrrpAPHjFtGQPSnbsZA+BDDwKIkAZbaTLEqepSXg4rRULP4cqm2xRToKpF5Z7iAqTramqI7sViUubCVuBnB87F2YANFWup9aTMkCV9xHksEHGaeAYxUgzJ5VZjl2XGAjIrFxrORgefSl6BRI3WMH5w4TaydRgpvCsY4CrLegHSYbMHWf3BEiKmt/bjHm3J6uEZVE41yA+I1OIOLMdaz6Iar5sWDBKFmlp8ZiSV5yLVL8I50LqKdjz+L9vgNiePM8oaG2575BxgcZ0qIBJA3KNIWYvNH1rvp2pFbtpCD5gXQlv3kFtiFqolxDxSj2XHXHl10Faeo+Hl/rg5KIbaigToko2sFDjVe/56tmT1qJAMkFmTW/wBHajpqEGqq7xDLEY0RVlKdn3iHA8mrGmRpVZKP1oS8iqSB2AW5qzh1wfdegOv8ZibQaAEL0DhmBlFvMuXFsv2dQ+/SbY2M1iqsjZZno/AEWFf2OVVa6qtv/HK7wOpNuCt1ZQ5XbPQ2MvCPpeKomT9fOxXaWQ4MDZ5lD4Xm5I9i7b/3ECP8uQOTzxDQk4k1f6wSiEkDWPsjifwzpjfRUhk5PDYcldQVJEvNEumOyRP3t6fgzfL/PgShxnzGDmsQEPLFCBjCGiQ/WN4FJxvNE7L0p2GmzP2RiXqDKMCj+ZrJFDkL7lGtIFU1y1U1/hHp4j8VFO177v9iIBOn3E6SnRdIuMQVqaOb7A1tGBry81/Yg11HAcdA6okHyKlHYj8fIMQ4gyv5MTrwSydIEF/p8IBFZTHHS0KR2uwBxKBKJ+wgI2bXkOKrfkrZjSEBovInOeOYcxVDtknDmaJHsoWun3/hHFimLBy82NeMDQYy8N9ylJCNgtGfV8YwlNyoC2BbdnhVI6CcZf6V/ESmhmbMHD1h56Sd5jtBGFFugcd9CuFEBhaNIeiWSdBMe3ghyBMY0WnZTsm6BPW/kedvF++BXnwNRqkycoJI2M2/+KmTpO0W+VJRLVaAW7wYod6FqKeAhgK4CH8Vfs+vw4PaS01hGkFqkZdgYV7nk91FJS0zi+KT9Z7fhjW7HG6XJEVD2cGraTdh+0AwKTZVpUqeagOw6bK7t65CoSANAlJy1xFUs+jRqsdZWfSEnaUv4S44G9FJ61Y+I3a5iQZASNYyoQ8MNXN1zmdUPshh2o1YBYv18kgn+LRNeSxa1VC0qHNrJqxlr/cnizbb9CmmrQqVkHLX/CaTzp4K+GrC4ZDcw8E7QTicxtehYYFnsTeVcFrC91eJKMsbJiJMBXnS6QoopS0JyluhWrmUTC4fjw2SHAOCyLRfBMtweJCmriO08tL4HIgOoFZtXBvGOV+C9yAwmyhENbKwKdYJoT5B5HWThBPZRkKiwk/jwjwDHUwwgKzmy+1jwyofzxuANN1wDqfp+C+lJoliMFNspr3CfGoOryjZ9lm9D5WqwyVZBOSKViOpQMCWPW+elV/8Ewx7gt6AmZR8hrRMzSI6Ydz8zx4IR94jEVB2NHAh50UG2Swee9fTAkyaiY7Yx+Xw5bERFeTzopfiIRu7RysRuC+w9zA+ZIPKei0AU2MhWr1gEEOd8ohsQ88Y9GiEP/+fJ9oSyOq3q1jUFRnGr4hFVPEUzXlU8rBZmFC82sIv4p5/Yx7mDW3HSXjVb1M5hAUliJ8nsUW2RRa76iuS3XnX+6nsgRtfGCxRVIVWhajoDCJ8JDFJxFpbTg1oT0jiE4zNKen3rQTg4UuDJtVMT3SLbMD5xjknRxNi5QcjPBjQ4tzhBDG6Qnfyay67H9mlejXpiMpAkKvpJzrnLVeKkaLGkV34/yEpWBCgEveyo1GUfDUB0ogWQrkNabyfERfkl942PbAy8Z0m5MBXKnvMY+Zc4PKKDlOShBah6kxxFZVa+CTAljVQW6+9f7dqf/gp94n+AkYSbSzXcyWvIZr1JC+K/JM1yDaX/x4dNMyeqCCI7SgeWUR3RZ92l50nHlp4bJD4oNi0NoBarqKFPzJcFFKK5ii7et3/PHxD10CaNsINkC4WDYLFWygOs6izKaWOVWa4gatUiLDgP/i4KnPAArUldyZNU5g7gU0hMk2vqTipPHF+kgrmP+LuOZf9AEsUWwIADIRWoSRetMxkww99pISgpVbU2uV1rASJgJRKTUPLn9NssqSK37RUkM3HtNGHCamKutWNQ3WR0j19kXKEiEyp6kodsyReATeUP8n4zb+G57mURIJW9QcrDnEx6/b1wpjO6OStI+gqiRXI6QkklKZg7vJlID6YNyQpxarYTk26gkGwGUhFJXdrCBa9FoMo/xctN9eq4SPJFx0dzgr1s/TapifZgHuS9yxwJ+hEsBsvK1jXKXSu6Zh/9PX9A7N5BAyJFP/BtqtEoKI9ONSdqcdLChk+hhhmpg8ozm5FQl9EkfKxBLmTaoUc2ARwys1sP8u9WJhcVOJJMHuLVSto0tPFbVE3741/n+oArUu+8rxarHQyXd2UQOhw01lKlcruWcQ/UN5ydRx2GCpGy6ylqWvV8cFL0m1KHiiuocWm40ZI0cjuX421utnt4Y+uRpPfgRN1uRHHbs/8dLm850oXkgUFwk7WjXOX1X4Z8LomCRNct/cvizbcfsKhIZt0DZuPFxyOlp6qkYX6gnnV8tLABlSgdhRCV6Cs71KOE1jzxSOOEx0ow5NFOqh/397zJQm9Ce4iykr07GceL2iDi+0EIlXt0l6il/ezj1xcMiLLJlIqUbSYPb91vTfKJb7PGiotVEXsm2yZJbYpSukzthStaxfCZtQ8hJVcweNAhOk8ENk5PrGqQS86mmAdwmOOD5ExveMS1P/r1QBJGkxAOXGzIICIMC11y2i1ItoUsAqQsafs2sdxP0kx0jhJKywExdTkhLrzqDOaDvx2v1Oq4oVKqiZQo45mSBi2S9qV/ZcSzPjcna8R48iG/ZAmsp5xg9Vf2rbTC7pctTU1qOT6CaA8g6+QVOQ77z8j6tQQQ6LdUqjeUWm0kc6rxAxw/OnhquyYgPLEv8JCbYSZOYC51wCSYk8b4E0aN1801h0TjYplA70Yg5rGhlNruE2bL7dgSwqLkDx6rN5TSz9l3uhRxYKWkR2pIobz2579J/PmNsuUE8frpFrEQt6iC7/TGx1z7YwIiYJVaLmmKzkgipmZQtjmOmKmkBpLCGgOv9DE5KOk18Gurn2ay+UwTKS6wiiTdy+8zaZpe8S/O34jEizxMPrcakKv/o0nX9Oof2rMWjkGgDxsbFIzNpvIN8r6zcV1roSrU62jyTXqJbjqBuoRkV2y31FmRQ0KsOLP2Ry69/KeMC1oDmswbysYEoxpgFv4ztqy0BI3+K/kiS15ietl3gwQHjYueq6RZXRHFbSpsE9+JNOjsT8lx5+PlBZOIPuqg/cmvmEQrHC8Th2YCJDniEy8zh8RqZpFW8v6U25h+GZtPXGE3YGlQvFHs5TJ2hqu8+g/ME89SUK6CLItXn2jrHDdIWW+09rvB68bxsPCaJPWJIPohG9HUM/Znlizw7CZSo5TV08E1qkRSTyLJAGqHHSjSRCQyr/+UzyXVlZhBDchCJCLbcAhMyiBS/Foet+pRVD9s+/cITBxfUPQFW1AefpAZI6+4xK4TSMy2BjAGCGw1tRCoOj/fhoQjJJh582Ejo3WKV4MtDfBFXMeHTw/OAdQWcRE9hgOX38s4dgOhHYhDaLUsc99PHP4TAXFtfSpZKMEV+/z3hQMiob/WnxOOUwQkkiLdHwcqIz6KovfZdwd5egBR0lAZPZmVD/YYv5aU80bUEb76Uxt8xVuzm58kI4cdDvZuYtA1mTg5FdiAYwntkcHjQSP5ENn5AxvxbJvoiSIVRFyMb1uC7UTmDz95CHptYCRjXrSPlVEaBbOMSM0vOb+JOc1y3ykuOeOOQJIweeZ0AWLVn3jVCuXJGQkmVKrbdnGA4iqwF48Sd/UT17YoMhV600QtYe8pUSPzxk+QeHJWAhPBG8o2K9f/uXnadikcGqXnWcCArKb8abYWScxYRJnpZzAHZtgiifrdm26d7TEXDIhZvODWn36+rN1W7DxktzdMFMv7oFiIAEBniIrJbHjUpV9XRs+x4qGlLwLmfxo22B8y+A1MCGoL8KhKTpJNEy8D3Arxh9WbZFMddnYNddjQRLYDmTACTRQfQ0XdBNLIsANtBwhAbHvLiEKSLYtjpYkxB4qYs8o2FaeOs1mUxY6xUYtNCyBcBObBhkBUPXNmzY+M3pHjpZzLeN2VJHJcHXitxQuc4kUoMZXpnV7590jeFrP5vGHYiHB+FXPuxUzBplQTENnaJK0Q5zbKBrrVjwcHdf5OTEMrzb+f9LL5Qc5m2O/OI/r+1QUDok/YqfWB3wcUeLKlmTKlzyQgjkR1znofCZj3AsQqjiehYPtSgIhtQ4FVUHIa2jYaIGyz+Dg83ckQ0bM+BHgAIpOkSIh4PB+JB4NoEslTQieesSUpAND069QFH8LIVwuEFZJ1BNdjAwAkgnYik6QUsLUFnqV56Z78aDs8nSQO0f5t9BGf6diIrtJxZcJwKuzqePXbhAS3AqBjUDNziAaR1TL5NuNY1Z3eNqWcZXctxcESk4DXrOxySVflHYaZOwZEk4iUAzRJIh4sf/nw2ZJzriOcx44ROD12Db1/ntuFA6JsxCf+FHBggKvwvkyzIu6QtE423BKGoiCoCZOl4eWyW9kjRuG/CMjKU0SdJxpJ2JS6hbYQtygP3fYNhLSWJLLcQtRpLIbKxNNU1CdDbXTmDeiRaD/HcKxjtRj7o6e4ymv+wOw6ZYr72mMQyWe8JgBUBaKR2/LuFa0wPlQgpN6YTQasFga1rD0LPZwTlXlaPmI4oVLL6Tf/iQylVYBiPyCkcKrxfXjxV3HcoDIjc4q3JLG1GMzmC+xJq4XRQglZB0nlwEZ8PMi0acFGLNfga2MVZBpd+1nbiiRIoOW53k1A1K5U2l8lt5vB39fM4DFokjJqPGiwHck4I4zlqChrOSok0kAr21khQ5+dJApt8I+c6w3Xym9A1SIRUW95IiEFEcyoYp1j/BjqybbxUIxU0olJETViDtCy79GXnYG5EPQklIiotsWfNYloavStn0HVUAy/bzuXQLpSzJ9ovA4+8T0B7xaqY3mm6TVkvognhQiP1Y4ziijZcGsQjQknVPfPkd2jnRwKUCraaFRRl/ig8TwzXnxpE8BMIhOC1GtMBJPGeha13oBEGkKmCmo8AxvgNy+nf1qsjL+uqWtoDpQ1hKNTedXnMU2u7t21g16c8+8LJhEVzxTxmiEDW4VVwf4qsPpqeGveKKIW9UvwaJWiz4SYpxiKqXAytAWbSgkCsJ3AhplrBrXqPJQ0kW16jqTaFUxcaJtphZP6n5oJVcPAxpGYERi1MDpe/g5cH7HVDiRKmCEUnwCxPh01KZJce/Nwv46X/ho1Ssz5CAtAEwax7Y3FOSEDqGImxURyRGhSk+0vf4sM8+dtoQQVi5NcxYLf60pkS4rhbBS9YtmeJsHK0CUcJwmqSIscm1gVxfiWQY4DJND2EojczBaoGAVlwed2r0E7kQOgsTJHjjkg6di2FEEbyTHr1bXtyc/91wUDoiSRPMkc+72IylEihCSImjkS2t8PL01Gf1RTcdLjMWiy7+yH5FKPSZEdKYokjUPjb34GjoxIR0mzEoMGalBm3WVkbRQKlPpW1okPNaR0fsvEBvyJBrbuaNDePFNMnWrXsfZnv86kIW1DkyJGxow3qg7yHSCy9XGUViVJ1/7SXzp/HQ4SNJM3mIjF6HqA+FmAuPisJlb9zGx5JJSyeNja5XYy4b6xi8wbPyOwSBtoWxHMDDlryiYyrWQhVMKftfVoljk4XWQJScr3BuQlY30uLy8gEFEBahjyciQCmyZ4y35rVWpASiVhycf2UpIxeBGcH9pAKkFtf5lda1tExxAxKG1FB0gVaIAmlF52f2y6HBMjR8r4POwzbe0mSRhweuzbSFVh+wvfxJYjqeFYkOEjOypeRxRoxu2km7HHoxWq0yUWV/vr3yFy9KQRzN5wbfGL/ToTJ4oNQc9mYsVjdiz7NvzfkwG4h7OR1cQruC9cqHjCMwGLjR9jiFlTdKhKxqpz/GEI1M7k2sEZZ/37wgGxN13UQIWS0xwOgvhFwGpQUEWSaEEsNLBrdFntmtDxu2+y0nfifITx6+h+ODTe0OEU/dzO3jL/pii9oo+N6kGS6b66vodTE4FQx2ijc6t3OUA89zD2JC1Ww/WQhsmJVwW2X8j9yS5VQb9tFQJZHaMAKz4UZ4Uf8ZBnM7HSGh0r/x9RnMexe9nVgm3hlCmenHIb94YhiMASgkzjpp3G9FzFsZOJAu0U1CNDqEfn2NP0j1/9DIioDghk24hT+X2Hm4ifEn2Q5EtANo+hKH/SEqQLE0shfDSgpwYits9IuEkBkRpiA0Tp2EdSwt4LbVK9DicrIJ+bMSmot2ZvRjXxc6nGO1FhY4K+RRNrC0kOAKAW7SNOyCT82UsYpYNlm6nI2/E7ixXLMVNRVXwkKWXUy0T9NCnHQshup4xUOYVKKlEeqHbSpeJOu9BqIyrlRPaaNNfDXqDWv4CIypD9mGUXL8Wk84f2YbsFnnUsBaDGUGapctKpkgaTi5Og6Ev6zR9gH5INs2cHQyfJyg8A0S4F8YkAeLoSI241qWCbFyFpgs2hBBrMAqVPoZqLVEwRXIFtqx0sLLGAo7UIrLa6t1GQcpMZgtbKUAVc9ZXFVkxqiM5hTOSM5Vspr9WmA0rXgg6yDPKS2LMtGKWObXjY+ZuwUdthDjpwiCxGXgE3Ot2cq1Tje8+cIor6ch7/9i8g4iFq27nMqh8beW11zSaxGAEmyhtCpvLoBnaQ7eqFauXLqVBxVHbTa+hqJtZULWp5yBAiNXcyCXjOOCAq2PfZZllZQArvFbLQPKjjOLUYKQBupHepNxrd3yRc6Ux0mgal7/b6Nde1dC9oHAfdpP0Hk3VLAFrggRevY/eXdNXi4o8tkJMlt6irzFbKA9j9y29eh2rmYP3oUFFOxMITjde4qqv/KIghF2/QP170MyCSNb2R2OkKvpriCF6qqgBLmlKtvOHiub6AfXYNgxyqPMVdMeq1XW+eHyUc5I/uNg9QRU8W2oOOsEgNNlR61Q+Iuz6MPUn2ON6t1ZlMYkewGRSPT7galTsqnHBuLiAA6sDB4tiiQ8W9I6lZ0sdev+S6/sEgPOfYCClWPRTP/l4cEFgDSdro2Xp5QctuWh9mN+3cevJZgDExbYGrvvEvguc7+Yi39Z3+B0SKw9PapPwoqrDbDrKxahJoh4wk6qHiqes7J8ukhsYxAI1UdZ6UdxHFlvESxe90BOqt/cVvInWfCohsSQwAFScrJ15/JRGFj2CDNnaCTGSyMrFJVpXjYN/whG1WuoeM7nzGjT5ntz/r2h7/MwN7rLqabU6gmKaSj8l+jWdqx6k0If3Wj6GjKC/Y1Vy2O90L7Mse9Da92c+AiGqmsk6Vcnnqj61wvmRgPJJavVHwcovg5djHpaxEYoItIQEpE+TwhRGI8Doqd2178S9Jen3aABBd3hsDLcLeOhVz+BKiEqpFkibTRCKvssLJDVRigwdtkuQryU4Kx0lyEsHIs4Or1X0oBV+bQSkFv1Td66aSiHteY1F8gwXhcwxFSthvCRXMU1sdRZWi/p3ub6CaH4dLRT03re96uOxEC4VeGWxWqrrkftb6GRB9AvhhIfxOUtm77SDrjaT6b8J8aj/uC+uAS2yl0oEtSkje7KY+BZT2pUQ/Vj1hatlUL4fFxxCOg8xOse2a6JboPJ8Nztue+jPMBLx3tkpWGWliIuWii79kSbhdbovazzY/Y6Wc+RaSLdhg3r5Dr+F2nKspxWvaOfQxd4RI01pSuLLwk6jiZD0hw7GLzWY9U9VsdjLUkTZwz65/vbRbmB7YiINJCJ5OXfPCz4Vaosshb/s/+hcQkSja4St3kLjyVvaOofhbRUnMEoMJ8z+R9KzJNwCUhkAadQNZb0bTIhUb2fmLfMXCceLS/Cc1m5iCN95wM97wZLMlIyBmd7zo2h79MiDEe1c4TDmTE2a66hu+ivcK8V3S5LlmNpCcsfFRKChKUIcMI7MG8nmWpOyMk4CoxNh86+6A89MzVrJDKxWOAeXTwyIruV+Xl6Gd7O9cSh8ewQGCFaDOR1647aYG5ZWYQKrZpOuC5+ty8tv/j34GRGw8NWWxsPOVds43LgxpoWL1BPl69pVoMuTPAoR2bcVu2R3M30vSARuDyhGxPWT0RTvk8Qn0pdfWPjNtv/pjOzX65dWxVcp7/grQTozesr+KgqRXs7vWxt8izUmIrWVnMTZpT838ONV7s7tcNzghfN4uVwn/cabPF2oB2+mBccsfJ7HkOPU9Knsl4SOhxApsX0vrksPVz1r/AmI0OLK1lEGjVU32s8ChFC6B0bYXjiZJg69CIzKV5UxEqV/GBcLJKTNaGyqZmiuew7UhfqWirQBd98RL1e5c5XLvtCA6Xvwflk1j8egaFgS1LhXzP3OS92m1yEgkfxfFSZTC6mt4FRNOjLuCY0lSjfoQPWdv/opHJNdQ5Z+Ogv0gSRcpx3N51WPC8ShZmJKMjJuNhSJTWsQau9Li+rPpR2/6eg7H9E8g9vaBMPK1m0J64y+tFqOgXEdtyFQlmoevb7jko5DYJJtCVit96myaKg+Vjq99pgvEpeOj2HidBIbE+CsDW670ogINpkX+2FaO32RgSYxiMwDts1hCPpeecsrXLDT7LmtMCX2rV34/ZL1yMaleTE5F5V9CIReOlSVy9ENwnfLZun34jgaiRRMOriO1jMybTc8j5Ujn0tYhJDrIqUg23kLZKI4CXm5xv5duA3C6f5r0JP0qiN9S+4ykNemigvjuKk4SWnSPtp1TvDdGuli0VUg3lX+6+8qJsmwlRUtWfR+S+rVgkYmk1v46dRTzTyPePemmoCTgIhBPO6Tn7QCpLPNSKajPbV3d9T6iK+rnMVl3mINzEtXS9ej+9y85bhRvZfXljyt/TD4kqrmkaW/J+CS+m2W2SPAzzMIpuU5/efmOlohWhL7zRfNS/c3UPJc2AZE8RHFzyQnXnKxGS4/tj68vArE/zkr5PslL9dkvWhux+xteCglqVBdqKlbBF9tMv8EiFfIYo4TY4pWkRotNr0vokvOl5s7kngKiJD5ZN5k3kYgHqNUJs8jVVX2FWYJqw9SsD5s3fFaOUPH53/4X72iJGKQ+KdOa75zj6860WZLVqpBAoK03UpdSEjmKvVz490kEsRwLao61eacmXPFd27ZYO8aq+u18gBFOVFk8+Q6laJH2n6CgCybA9nEsLUMVLkJ7U1/QmNnyGKldr5CYi3oGoNoIID6Wyr9JN+CVLwicofPR3wuIz3c2EMOBsr1x+GoIbUpp3zgKFeNR35yqV3lmbdnhFLHt711Ont8LJEnwLVBKr6IqL9V4V5fISvmTI2ka/dVRp5eoJuG2U87A5qK5fesBoMKF7MQ662O8rgtu1R1Q0DE+O0bkWjiHTHRxrHKW4iMAIt670VNW71Jy/7Kd7t9vviuAaBtqIt3EKZrEEHemjGSVZnb3bMP5EI+YXv0v4c5kZHVr72tS/vXtAUl29D+lRERaBRuvExVR5Id72S5cloUNWdwdTOE9VQRl9cxwjIXjZIXzTfL6ytnU3PvJJlLEo+bk/nIv23IOL1zS3hrXD7afEy1F2ahaD/cMPuz/v98dQDyLcZZ06lj6DfIXXw64uVC4Vd32J9SD3FV+YkMbT7SKv28Zpa1PG+ke01dVTCRzfAT722h/akV+yrQcVFPbE39MEdYRzAgArAbVlLrsLmw9qhcVMlRyxABsAxiIh/jOwP8Z8o+AQiCD9K66FSCyF2FZCSPphGTSLq5ZvpxHNdayU5VLGJ9wBUkLNxPKm8V1qAsp01RO2/7CX5AzyZ43x0mGVVYMTlVqHvsqzkQ960t0eji3zOXeVW8NWCCaal7L1nHbniNiEhZcJVPsKPafUM3X9QhEhRP93SQWkDWTCxNQ9Z3SiUlsls6ehEkiLj3lEipKk171D1b7kj+2D8FJmhghw9Qln4DrvAV1izTsQZq+q1BX5mEGLhCxt3KH2DqOL4PUrl+2wRI2pb4pPj54Uo9AFID9lhXUyIT7DDKoMeqXrWx06t0kF8wDiOUlotFN7J+dP8G3VJ3AvsTp8CpJbRt/leU5cqXy9y0zce+2twYsEIMQGskPSqzI4ugoMcAKqJTEmioPiNBxyB9nN6/1+nKiV8ADm2OyOUBi6q0kN7CD2KAJgLqH7BbUeLBdHbRRlq3uVCwFhRMk8IZOx7sNYb18ngENRBsj8XJ8aWPQlMUSOhrlvNCis4I0PQKlou93JsNF+1XHR81Dug3j/J69ZrNDAa559rqW3UNSUPd9Z9Mv4QCe9Z+BC8SzHjJOlGSkbCDfwZYdJDjEEqjYmjGm3s/lsgP53ItAHMiz34+e/SIQ+9FkDOSuXATiQJ79fvTsF4HYjyZjIHflIhAH8uz3o2e/CMR+NBkDuSsXgTiQZ78fPftFIPajyRjIXbkIxIE8+/3o2S8CsR9NxkDuykUgDuTZ70fPfhGI/WgyBnJXLgJxIM9+P3r2/w8c/wD6R2/tPwAAAABJRU5ErkJggg==;fontSize=14;" vertex="1" parent="bA_C_CA7xueAo-WzbrrJ-146">
          <mxGeometry x="7.260000000000011" y="22.51" width="53.29" height="50" as="geometry" />
        </mxCell>
        <mxCell id="bA_C_CA7xueAo-WzbrrJ-154" style="edgeStyle=orthogonalEdgeStyle;rounded=1;orthogonalLoop=1;jettySize=auto;html=1;entryX=1;entryY=0.5;entryDx=0;entryDy=0;curved=0;" edge="1" parent="1" source="bA_C_CA7xueAo-WzbrrJ-152" target="bA_C_CA7xueAo-WzbrrJ-105">
          <mxGeometry relative="1" as="geometry" />
        </mxCell>
        <mxCell id="bA_C_CA7xueAo-WzbrrJ-152" value="" style="sketch=0;outlineConnect=0;fillColor=#60a917;strokeColor=#2D7600;dashed=0;verticalLabelPosition=bottom;verticalAlign=top;align=center;html=1;fontSize=14;fontStyle=0;aspect=fixed;pointerEvents=1;shape=mxgraph.aws4.waf_bot;fontColor=#ffffff;" vertex="1" parent="1">
          <mxGeometry x="1689.6999999999998" y="422.00000000000006" width="40" height="40" as="geometry" />
        </mxCell>
        <mxCell id="bA_C_CA7xueAo-WzbrrJ-155" style="edgeStyle=orthogonalEdgeStyle;rounded=1;orthogonalLoop=1;jettySize=auto;html=1;entryX=1;entryY=0.5;entryDx=0;entryDy=0;curved=0;" edge="1" parent="1" source="bA_C_CA7xueAo-WzbrrJ-153" target="bA_C_CA7xueAo-WzbrrJ-105">
          <mxGeometry relative="1" as="geometry" />
        </mxCell>
        <mxCell id="bA_C_CA7xueAo-WzbrrJ-153" value="" style="sketch=0;outlineConnect=0;fillColor=#6a00ff;strokeColor=#3700CC;dashed=0;verticalLabelPosition=bottom;verticalAlign=top;align=center;html=1;fontSize=14;fontStyle=0;aspect=fixed;pointerEvents=1;shape=mxgraph.aws4.waf_bot;fontColor=#ffffff;" vertex="1" parent="1">
          <mxGeometry x="1690" y="485.33000000000015" width="40" height="40" as="geometry" />
        </mxCell>
        <mxCell id="bA_C_CA7xueAo-WzbrrJ-156" value="" style="group;fontSize=14;" vertex="1" connectable="0" parent="1">
          <mxGeometry x="1807.27" y="402.00000000000006" width="61.839999999999975" height="59.99999999999997" as="geometry" />
        </mxCell>
        <mxCell id="bA_C_CA7xueAo-WzbrrJ-157" value="" style="shape=image;verticalLabelPosition=bottom;labelBackgroundColor=default;verticalAlign=top;aspect=fixed;imageAspect=0;image=data:image/svg+xml,PHN2ZyB4bWxucz0iaHR0cDovL3d3dy53My5vcmcvMjAwMC9zdmciIGZpbGw9Im5vbmUiIHZpZXdCb3g9IjAgMCAxMTIgMTEyIiBoZWlnaHQ9IjExMiIgd2lkdGg9IjExMiI+JiN4YTs8cmVjdCBmaWxsPSIjOEJDNTNGIiBoZWlnaHQ9IjExMiIgd2lkdGg9IjExMS4zMjEiLz4mI3hhOzxnIGNsaXAtcGF0aD0idXJsKCNjbGlwMF8yMzhfNTAzNikiPiYjeGE7PHBhdGggZmlsbD0iIzhEQzYzRiIgZD0iTTEwMy4zMiA1NS43ODQ4QzEwMy40MzcgODIuMjkzMSA4Mi4xOTU1IDEwMy44ODIgNTUuODc1NyAxMDRDMjkuNTUyNSAxMDQuMTE3IDguMTIwNjggODIuNzIzNiA4LjAwMDQ4IDU2LjIxNTJDNy44ODM2MiAyOS43MDM1IDI5LjEyNTEgOC4xMTgxOCA1NS40NDUgOC4wMDA0OEM4MS43NjgxIDcuODgyNzkgMTAzLjIgMjkuMjczMSAxMDMuMzE3IDU1Ljc4NDhIMTAzLjMyWiIvPiYjeGE7PHBhdGggZmlsbD0iI0Y5RTk4OCIgZD0iTTk5LjcyNzYgNTUuNzk3OUM5OS44Mzc4IDgwLjMxMjIgODAuMTk1NiAxMDAuMjczIDU1Ljg1OSAxMDAuMzg0QzMxLjUxOTEgMTAwLjQ5NSAxMS42OTk5IDgwLjcxMjQgMTEuNTg5OCA1Ni4xOTgxQzExLjQ3OTYgMzEuNjgzOSAzMS4xMjE4IDExLjcyMjcgNTUuNDYxNyAxMS42MTE4Qzc5Ljc5ODMgMTEuNTA0MiA5OS42MTc1IDMxLjI4MzcgOTkuNzI3NiA1NS43OTc5WiIvPiYjeGE7PHBhdGggZmlsbD0id2hpdGUiIGQ9Ik01Ni40NjMzIDE0LjQ4NzNDNTkuMjQxMSAxMy45MzkyIDYyLjEyNTkgMTQuMDEzMiA2NC45MzcyIDE0LjQ3MDVDNjcuNzQ4NCAxNC45NDQ2IDcwLjUxOTYgMTUuODE5IDczLjAyNzEgMTcuMTk3N0M3NS41Mzc5IDE4LjU4OTggNzcuNzExNCAyMC40NzYzIDc5Ljg3NSAyMi4yNDg1QzgyLjAzMTkgMjQuMDQwOCA4NC4xODg3IDI1LjgyOTggODYuMjM1NCAyNy43OTdDODguMzAyMSAyOS43NDQgOTAuMTU1MiAzMS45NTMzIDkxLjY1NzYgMzQuMzk0NkM5My4xODY4IDM2LjgxNTggOTQuNTE5IDM5LjM4NDkgOTUuNDYwNiA0Mi4xMDU0Qzk3LjMwMDIgNDcuNTQ5NiA5Ny45Mzc5IDUzLjQxNzYgOTcuMDIzMSA1OS4wMTMxSDk2LjczOTNDOTUuODE3OCA1My40NjQ2IDk0LjU2NTggNDguMTgxOCA5Mi42MTI1IDQzLjE1MTJDOTEuNjYxIDQwLjYzNTkgOTAuNjMyNiAzOC4xNDA3IDg5LjM1MzkgMzUuNzU5OUM4OC4wNDg0IDMzLjM5OTMgODYuNjUyOCAzMS4wNjg5IDg1LjA2NjggMjguODI5M0M4My40NjQyIDI2LjYwOTkgODEuNTYxMSAyNC41Njg4IDc5LjMxNzQgMjIuOTg0OUM3Ny4wODA0IDIxLjM4MDkgNzQuNTA2MiAyMC4zMzg1IDcyLjAxODggMTkuMzQ5OEM2OS41MjQ3IDE4LjM0NzcgNjcuMDQwNiAxNy4zODI2IDY0LjQ1MyAxNi42MzI3QzYxLjg2ODggMTUuODYyNyA1OS4yMjExIDE1LjMxNzkgNTYuNDYzMyAxNC43Njk4VjE0LjQ4NFYxNC40ODczWiIvPiYjeGE7PHBhdGggZmlsbD0iIzhCQzUzRiIgZD0iTTc4LjAwODcgNDAuMTE0NEM3NC44MTAxIDM5LjE4MyA3MS40OTggMzcuODU4MSA2OC4xMzkyIDM2LjUyMzFDNjcuOTQ1NSAzNS42NzU2IDY3LjIwMSAzNC42MTk4IDY1LjY5MTggMzMuMzI1MUM2My40OTgyIDMxLjQwODMgNTkuMzc4MSAzMS40NTg4IDU1LjgxOSAzMi4zMDYyQzUxLjg4OTIgMzEuMzc0NyA0OC4wMDYyIDMxLjA0MTggNDQuMjgwMSAzMS45NDNDMTMuODEwMSA0MC40MDAzIDMxLjA4NTEgNjEuMDIzOSAxOS44OTY3IDgxLjc2MThDMjEuNDg5MyA4NS4xNjE1IDM4LjY0NzUgMTA1LjAwOCA2My40NzQ5IDk5LjY4MTdDNjMuNDc0OSA5OS42ODE3IDU0Ljk4NDMgNzkuMTMyMSA3NC4xNDU3IDY5LjI2NTlDODkuNjg3OSA2MS4yNjYgMTAwLjkxNiA0Ni40MDk1IDc4LjAwNTQgNDAuMTExMUw3OC4wMDg3IDQwLjExNDRaIi8+JiN4YTs8cGF0aCBmaWxsPSJ3aGl0ZSIgZD0iTTgxLjc2ODEgNTMuNjI5M0M4MS43NjgxIDU0LjY1NDkgODAuOTQ2OCA1NS40OTIyIDc5LjkyODQgNTUuNDk1NkM3OC45MTAxIDU1LjUwMjMgNzguMDc4NyA1NC42NzE3IDc4LjA3MjEgNTMuNjQyN0M3OC4wNjU0IDUyLjYxNzEgNzguODkwMSA1MS43Nzk4IDc5LjkxMTcgNTEuNzc2NEM4MC45MzAxIDUxLjc2OTcgODEuNzYxNCA1Mi42MDAzIDgxLjc2ODEgNTMuNjI1OVY1My42MjkzWiIvPiYjeGE7PHBhdGggZmlsbD0iIzAwOTM0NSIgZD0iTTU1LjgxODkgMzIuMzEwMUM1OC4wMzkyIDMyLjQ2ODEgNjYuMDY1NyAzNS4xMDc5IDY4LjEzNTggMzYuNTIzNkM2Ni40MTk2IDMxLjQ3OTUgNjAuNjAwMSAzMC44MTAzIDU1LjgxODkgMzIuMzEwMVoiLz4mI3hhOzxwYXRoIGZpbGw9IndoaXRlIiBkPSJNNTcuOTI5MSA0NS4wNjA3QzU3LjkyOTEgNDkuODAyMiA1NC4xMTI4IDUzLjY0MjQgNDkuNDA4NSA1My42NDI0QzQ0LjcwNDEgNTMuNjQyNCA0MC44ODc4IDQ5LjgwMjIgNDAuODg3OCA0NS4wNjA3QzQwLjg4NzggNDAuMzE5MyA0NC43MDQxIDM2LjQ4MjQgNDkuNDA4NSAzNi40ODI0QzU0LjExMjggMzYuNDgyNCA1Ny45MjkxIDQwLjMyMjcgNTcuOTI5MSA0NS4wNjA3WiIvPiYjeGE7PHBhdGggZmlsbD0iIzU4NTk1QiIgZD0iTTU1LjQwNDkgNDUuMTQxNkM1NS40MDQ5IDQ4LjQ3NCA1Mi43MjA1IDUxLjE3NzYgNDkuNDExNyA1MS4xNzc2QzQ2LjEwMyA1MS4xNzc2IDQzLjQxODYgNDguNDc3NCA0My40MTg2IDQ1LjE0MTZDNDMuNDE4NiA0MS44MDU3IDQ2LjEwMyAzOS4xMDU1IDQ5LjQxMTcgMzkuMTA1NUM1Mi43MjA1IDM5LjEwNTUgNTUuNDA0OSA0MS44MDkxIDU1LjQwNDkgNDUuMTQxNloiLz4mI3hhOzxwYXRoIGZpbGw9IiM4QkM1M0YiIGQ9Ik04OC42NzI2IDU3LjQwOTFDODEuNzcxMyA2Mi4zMDg2IDczLjkxNTEgNjYuMDI0NCA2Mi43ODAyIDY2LjAyNDRDNTcuNTY4MyA2Ni4wMjQ0IDU2LjUwOTkgNjAuNDQ1NyA1My4wNjQzIDYzLjE3OTZDNTEuMjg0NyA2NC41OTE5IDQ1LjAxNDQgNjcuNzQ5NSA0MC4wMzYyIDY3LjUxMDhDMzUuMDE0NiA2Ny4yNjg3IDI2Ljk5ODIgNjQuMzI5NiAyNC43NDQ1IDUzLjYzMjhDMjMuODUzIDY0LjMyOTYgMjMuMzk4OSA3Mi4yMTE5IDE5LjQwOTEgODEuMjQ0MUMyNy4zNTIxIDk0LjA1MjcgNDYuMjg2NSAxMDMuOTMyIDYzLjQ3NDcgOTkuNjg1M0M2MS42MjgzIDg2LjY5NTEgNzIuOTAwMSA3My45NzM5IDc5LjI1MDUgNjcuNDYzN0M4MS42NTQ1IDY0Ljk5ODggODYuMjYyIDYwLjk3MzYgODguNjcyNiA1Ny40MDkxWiIvPiYjeGE7PHBhdGggZmlsbD0iIzU4NTk1QiIgZD0iTTg4LjQwMjMgNTcuNzMyMUM4Ni4yNTg4IDU5LjY5OTMgODMuNzA3OSA2MS4xNTg3IDgxLjExMDMgNjIuNDQzMkM3OC40ODYgNjMuNjkwOCA3NS43NTE2IDY0LjcwNjMgNzIuOTI2OSA2NS40NDI4QzcwLjExMjMgNjYuMTc1OSA2Ny4xNzA4IDY2LjcyNzMgNjQuMTkyNiA2Ni40NTgzQzYxLjI2NzggNjYuMTk5NCA1OC4xNzYxIDY1LjE2MzcgNTYuMjAyOCA2Mi45MjA3TDU2LjI5NjMgNjIuODEzMUM1OC43MzAzIDY0LjM5MzYgNjEuNTA0OCA2NC45NDg1IDY0LjI3OTQgNjUuMDI5MkM2Ny4wNTQgNjUuMTAzMiA2OS44ODE5IDY0Ljg5NDcgNzIuNjY5OCA2NC4zMjY0Qzc1LjQ1MTEgNjMuNzQ4IDc4LjE4MjIgNjIuODgzOCA4MC44MjMyIDYxLjc4NzVDODMuNDU3NSA2MC42OTEzIDg2LjA2MTggNTkuNDIzNSA4OC4zMDg4IDU3LjYyMTFMODguMzk5IDU3LjcyODdMODguNDAyMyA1Ny43MzIxWiIvPiYjeGE7PC9nPiYjeGE7PGRlZnM+JiN4YTs8Y2xpcFBhdGggaWQ9ImNsaXAwXzIzOF81MDM2Ij4mI3hhOzxyZWN0IHRyYW5zZm9ybT0idHJhbnNsYXRlKDggOCkiIGZpbGw9IndoaXRlIiBoZWlnaHQ9Ijk2IiB3aWR0aD0iOTUuMzIwNiIvPiYjeGE7PC9jbGlwUGF0aD4mI3hhOzwvZGVmcz4mI3hhOzwvc3ZnPg==;fontSize=14;" vertex="1" parent="bA_C_CA7xueAo-WzbrrJ-156">
          <mxGeometry x="13.569999999999993" y="19.99999999999997" width="40" height="40" as="geometry" />
        </mxCell>
        <mxCell id="bA_C_CA7xueAo-WzbrrJ-161" style="edgeStyle=orthogonalEdgeStyle;rounded=0;orthogonalLoop=1;jettySize=auto;html=1;" edge="1" parent="1" source="bA_C_CA7xueAo-WzbrrJ-159" target="bA_C_CA7xueAo-WzbrrJ-153">
          <mxGeometry relative="1" as="geometry" />
        </mxCell>
        <mxCell id="bA_C_CA7xueAo-WzbrrJ-159" value="" style="shape=image;verticalLabelPosition=bottom;labelBackgroundColor=default;verticalAlign=top;aspect=fixed;imageAspect=0;image=data:image/svg+xml,PHN2ZyB4bWxuczp4bGluaz0iaHR0cDovL3d3dy53My5vcmcvMTk5OS94bGluayIgeG1sbnM9Imh0dHA6Ly93d3cudzMub3JnLzIwMDAvc3ZnIiB4bWw6c3BhY2U9InByZXNlcnZlIiB2aWV3Qm94PSIwIDAgNDkyIDExMCIgeT0iMHB4IiB4PSIwcHgiIGlkPSJMYXllcl8xIiB2ZXJzaW9uPSIxLjAiPiYjeGE7PGc+JiN4YTsJPGc+JiN4YTsJCTxwYXRoIGQ9Ik0xNTQuMywxNy41Yy0xLjgtNi43LTcuMS0xMi0xMy44LTEzLjhjLTEyLjEtMy4zLTYwLjgtMy4zLTYwLjgtMy4zUzMxLDAuNSwxOC45LDMuOCYjMTA7JiM5OyYjOTsmIzk7Yy02LjcsMS44LTEyLDcuMS0xMy44LDEzLjhDMS45LDI5LjcsMS45LDU1LDEuOSw1NXMwLDI1LjMsMy4zLDM3LjVjMS44LDYuNyw3LjEsMTIsMTMuOCwxMy44YzEyLjEsMy4zLDYwLjgsMy4zLDYwLjgsMy4zJiMxMDsmIzk7JiM5OyYjOTtzNDguNywwLDYwLjgtMy4zYzYuNy0xLjgsMTItNy4xLDEzLjgtMTMuOGMzLjMtMTIuMSwzLjMtMzcuNSwzLjMtMzcuNVMxNTcuNiwyOS43LDE1NC4zLDE3LjV6IiBmaWxsPSIjRkYwMDAwIi8+JiN4YTsJCTxwb2x5Z29uIHBvaW50cz0iNjQuMiw3OC40IDEwNC42LDU1IDY0LjIsMzEuNiIgZmlsbD0iI0ZGRkZGRiIvPiYjeGE7CTwvZz4mI3hhOwk8Zz4mI3hhOwkJPGc+JiN4YTsJCQk8cGF0aCBkPSJNMjI3LjksOTkuN2MtMy4xLTIuMS01LjMtNS4zLTYuNi05LjdjLTEuMy00LjQtMS45LTEwLjItMS45LTE3LjV2LTkuOWMwLTcuMywwLjctMTMuMywyLjItMTcuNyYjMTA7JiM5OyYjOTsmIzk7JiM5O2MxLjUtNC41LDMuOC03LjcsNy05LjdjMy4yLTIsNy4zLTMuMSwxMi40LTMuMWM1LDAsOS4xLDEsMTIuMSwzLjFjMywyLjEsNS4zLDUuMyw2LjcsOS43YzEuNCw0LjQsMi4xLDEwLjMsMi4xLDE3LjZ2OS45JiMxMDsmIzk7JiM5OyYjOTsmIzk7YzAsNy4zLTAuNywxMy4xLTIuMSwxNy41Yy0xLjQsNC40LTMuNiw3LjYtNi43LDkuN2MtMy4xLDItNy4zLDMuMS0xMi41LDMuMUMyMzUuMiwxMDIuOCwyMzEsMTAxLjcsMjI3LjksOTkuN3ogTTI0NS4yLDg5JiMxMDsmIzk7JiM5OyYjOTsmIzk7YzAuOS0yLjIsMS4zLTUuOSwxLjMtMTAuOVY1Ni44YzAtNC45LTAuNC04LjUtMS4zLTEwLjdjLTAuOS0yLjMtMi40LTMuNC00LjUtMy40Yy0yLjEsMC0zLjUsMS4xLTQuNCwzLjQmIzEwOyYjOTsmIzk7JiM5OyYjOTtjLTAuOSwyLjMtMS4zLDUuOC0xLjMsMTAuN3YyMS4zYzAsNSwwLjQsOC43LDEuMiwxMC45YzAuOCwyLjIsMi4zLDMuMyw0LjUsMy4zQzI0Mi44LDkyLjMsMjQ0LjMsOTEuMiwyNDUuMiw4OXoiIGZpbGw9IiMyODI4MjgiLz4mI3hhOwkJCTxwYXRoIGQ9Ik00NjQuNCw3Mi43djMuNWMwLDQuNCwwLjEsNy43LDAuNCw5LjljMC4zLDIuMiwwLjgsMy44LDEuNiw0LjhjMC44LDEsMi4xLDEuNSwzLjgsMS41JiMxMDsmIzk7JiM5OyYjOTsmIzk7YzIuMywwLDMuOS0wLjksNC43LTIuN2MwLjktMS44LDEuMy00LjgsMS40LTguOWwxMy4zLDAuOGMwLjEsMC42LDAuMSwxLjQsMC4xLDIuNGMwLDYuMy0xLjcsMTEtNS4yLDE0LjEmIzEwOyYjOTsmIzk7JiM5OyYjOTtjLTMuNSwzLjEtOC4zLDQuNy0xNC42LDQuN2MtNy42LDAtMTIuOS0yLjQtMTUuOS03LjFjLTMtNC43LTQuNi0xMi4xLTQuNi0yMlY2MS42YzAtMTAuMiwxLjYtMTcuNyw0LjctMjIuNCYjMTA7JiM5OyYjOTsmIzk7JiM5O2MzLjItNC43LDguNi03LjEsMTYuMi03LjFjNS4zLDAsOS4zLDEsMTIuMSwyLjljMi44LDEuOSw0LjgsNC45LDYsOWMxLjIsNC4xLDEuNyw5LjcsMS43LDE2Ljl2MTEuN0g0NjQuNHogTTQ2Ni40LDQzLjkmIzEwOyYjOTsmIzk7JiM5OyYjOTtjLTAuOCwxLTEuMywyLjUtMS42LDQuN2MtMC4zLDIuMi0wLjQsNS41LTAuNCwxMHY0LjloMTEuMnYtNC45YzAtNC40LTAuMS03LjctMC40LTEwYy0wLjMtMi4zLTAuOC0zLjktMS42LTQuOCYjMTA7JiM5OyYjOTsmIzk7JiM5O2MtMC44LTAuOS0yLTEuNC0zLjYtMS40QzQ2OC4zLDQyLjUsNDY3LjEsNDMsNDY2LjQsNDMuOXoiIGZpbGw9IiMyODI4MjgiLz4mI3hhOwkJCTxwYXRoIGQ9Ik0xOTAuNSw3MS40TDE3Myw4LjJoMTUuM2w2LjEsMjguNmMxLjYsNy4xLDIuNywxMy4xLDMuNSwxOGgwLjRjMC41LTMuNiwxLjctOS41LDMuNS0xNy45bDYuMy0yOC43aDE1LjMmIzEwOyYjOTsmIzk7JiM5OyYjOTtsLTE3LjcsNjMuMXYzMC4zaC0xNS4xVjcxLjR6IiBmaWxsPSIjMjgyODI4Ii8+JiN4YTsJCQk8cGF0aCBkPSJNMzExLjUsMzMuNHY2OC4zaC0xMmwtMS4zLTguNGgtMC4zYy0zLjMsNi4zLTguMiw5LjUtMTQuNyw5LjVjLTQuNSwwLTcuOS0xLjUtMTAtNC41JiMxMDsmIzk7JiM5OyYjOTsmIzk7Yy0yLjItMy0zLjItNy42LTMuMi0xMy45di01MWgxNS40djUwLjFjMCwzLDAuMyw1LjIsMSw2LjVjMC43LDEuMywxLjgsMS45LDMuMywxLjljMS4zLDAsMi42LTAuNCwzLjgtMS4yJiMxMDsmIzk7JiM5OyYjOTsmIzk7YzEuMi0wLjgsMi4xLTEuOSwyLjctMy4xVjMzLjRIMzExLjV6IiBmaWxsPSIjMjgyODI4Ii8+JiN4YTsJCQk8cGF0aCBkPSJNMzkwLjQsMzMuNHY2OC4zaC0xMmwtMS4zLTguNGgtMC4zYy0zLjMsNi4zLTguMiw5LjUtMTQuNyw5LjVjLTQuNSwwLTcuOS0xLjUtMTAtNC41JiMxMDsmIzk7JiM5OyYjOTsmIzk7Yy0yLjItMy0zLjItNy42LTMuMi0xMy45di01MWgxNS40djUwLjFjMCwzLDAuMyw1LjIsMSw2LjVjMC43LDEuMywxLjgsMS45LDMuMywxLjljMS4zLDAsMi42LTAuNCwzLjgtMS4yJiMxMDsmIzk7JiM5OyYjOTsmIzk7YzEuMi0wLjgsMi4xLTEuOSwyLjctMy4xVjMzLjRIMzkwLjR6IiBmaWxsPSIjMjgyODI4Ii8+JiN4YTsJCQk8cGF0aCBkPSJNMzUzLjMsMjAuNkgzMzh2ODEuMWgtMTVWMjAuNmgtMTUuM1Y4LjJoNDUuNVYyMC42eiIgZmlsbD0iIzI4MjgyOCIvPiYjeGE7CQkJPHBhdGggZD0iTTQ0MS4yLDQ0LjNjLTAuOS00LjMtMi40LTcuNC00LjUtOS40Yy0yLjEtMS45LTQuOS0yLjktOC42LTIuOWMtMi44LDAtNS41LDAuOC03LjksMi40JiMxMDsmIzk7JiM5OyYjOTsmIzk7Yy0yLjUsMS42LTQuMywzLjctNS43LDYuM2gtMC4xbDAtMzZoLTE0Ljh2OTYuOWgxMi43bDEuNi02LjVoMC4zYzEuMiwyLjMsMyw0LjEsNS4zLDUuNWMyLjQsMS4zLDUsMiw3LjksMmM1LjIsMCw5LTIuNCwxMS41LTcuMiYjMTA7JiM5OyYjOTsmIzk7JiM5O2MyLjQtNC44LDMuNy0xMi4zLDMuNy0yMi40VjYyLjJDNDQyLjYsNTQuNiw0NDIuMSw0OC42LDQ0MS4yLDQ0LjN6IE00MjcuMSw3Mi4yYzAsNS0wLjIsOC45LTAuNiwxMS43Yy0wLjQsMi44LTEuMSw0LjgtMi4xLDYmIzEwOyYjOTsmIzk7JiM5OyYjOTtjLTEsMS4yLTIuMywxLjgtMy45LDEuOGMtMS4zLDAtMi40LTAuMy0zLjUtMC45Yy0xLjEtMC42LTEuOS0xLjUtMi42LTIuN1Y0OS4zYzAuNS0xLjksMS40LTMuNCwyLjctNC42YzEuMy0xLjIsMi42LTEuOCw0LjEtMS44JiMxMDsmIzk7JiM5OyYjOTsmIzk7YzEuNiwwLDIuOCwwLjYsMy42LDEuOGMwLjksMS4yLDEuNCwzLjMsMS44LDYuMmMwLjMsMi45LDAuNSw3LDAuNSwxMi40VjcyLjJ6IiBmaWxsPSIjMjgyODI4Ii8+JiN4YTsJCTwvZz4mI3hhOwk8L2c+JiN4YTs8L2c+JiN4YTs8L3N2Zz4=;clipPath=inset(0% 66.67% 0% 0%);fontSize=14;" vertex="1" parent="1">
          <mxGeometry x="1818.19" y="489.99000000000024" width="45.77" height="30.67" as="geometry" />
        </mxCell>
        <mxCell id="bA_C_CA7xueAo-WzbrrJ-160" style="edgeStyle=orthogonalEdgeStyle;rounded=0;orthogonalLoop=1;jettySize=auto;html=1;" edge="1" parent="1" source="bA_C_CA7xueAo-WzbrrJ-157" target="bA_C_CA7xueAo-WzbrrJ-152">
          <mxGeometry relative="1" as="geometry" />
        </mxCell>
        <mxCell id="bA_C_CA7xueAo-WzbrrJ-162" value="" style="sketch=0;aspect=fixed;pointerEvents=1;shadow=0;dashed=0;html=1;strokeColor=none;labelPosition=center;verticalLabelPosition=bottom;verticalAlign=top;align=center;fillColor=#000000;shape=mxgraph.mscae.enterprise.tool;" vertex="1" parent="1">
          <mxGeometry x="1769.25" y="441.35" width="26.84" height="24.16" as="geometry" />
        </mxCell>
        <mxCell id="bA_C_CA7xueAo-WzbrrJ-163" value="" style="sketch=0;aspect=fixed;pointerEvents=1;shadow=0;dashed=0;html=1;strokeColor=none;labelPosition=center;verticalLabelPosition=bottom;verticalAlign=top;align=center;fillColor=#000000;shape=mxgraph.mscae.enterprise.tool;" vertex="1" parent="1">
          <mxGeometry x="1769.25" y="478.34000000000003" width="26.84" height="24.16" as="geometry" />
        </mxCell>
        <mxCell id="bA_C_CA7xueAo-WzbrrJ-164" value="Tools" style="text;html=1;strokeColor=none;fillColor=none;align=center;verticalAlign=middle;whiteSpace=wrap;rounded=0;fontSize=14;" vertex="1" parent="1">
          <mxGeometry x="1763.28" y="465.01" width="41.81" height="10" as="geometry" />
        </mxCell>
        <mxCell id="bA_C_CA7xueAo-WzbrrJ-165" value="Thomson Reuters" style="text;html=1;strokeColor=none;fillColor=none;align=center;verticalAlign=middle;whiteSpace=wrap;rounded=0;fontSize=14;" vertex="1" parent="1">
          <mxGeometry x="1058.1599999999999" y="492.6700000000001" width="61.84" height="20" as="geometry" />
        </mxCell>
        <mxCell id="bA_C_CA7xueAo-WzbrrJ-166" value="Stockcharts" style="text;html=1;strokeColor=none;fillColor=none;align=center;verticalAlign=middle;whiteSpace=wrap;rounded=0;fontSize=14;" vertex="1" parent="1">
          <mxGeometry x="1058.1599999999999" y="432.0000000000001" width="61.84" height="20" as="geometry" />
        </mxCell>
        <mxCell id="bA_C_CA7xueAo-WzbrrJ-167" value="Coingecko" style="text;html=1;strokeColor=none;fillColor=none;align=center;verticalAlign=middle;whiteSpace=wrap;rounded=0;fontSize=14;" vertex="1" parent="1">
          <mxGeometry x="1887.21" y="432.00000000000006" width="61.84" height="20" as="geometry" />
        </mxCell>
        <mxCell id="bA_C_CA7xueAo-WzbrrJ-169" value="Youtube" style="text;html=1;strokeColor=none;fillColor=none;align=center;verticalAlign=middle;whiteSpace=wrap;rounded=0;fontSize=14;" vertex="1" parent="1">
          <mxGeometry x="1887.2099999999998" y="492.6700000000002" width="61.84" height="20" as="geometry" />
        </mxCell>
        <mxCell id="bA_C_CA7xueAo-WzbrrJ-186" value="Processed Data" style="text;html=1;strokeColor=none;fillColor=none;align=center;verticalAlign=middle;whiteSpace=wrap;rounded=0;fontSize=14;" vertex="1" parent="1">
          <mxGeometry x="1516.53" y="540" width="92.5" height="20" as="geometry" />
        </mxCell>
        <mxCell id="bA_C_CA7xueAo-WzbrrJ-187" value="Processed Data" style="text;html=1;strokeColor=none;fillColor=none;align=center;verticalAlign=middle;whiteSpace=wrap;rounded=0;fontSize=14;" vertex="1" parent="1">
          <mxGeometry x="1867.5" y="540" width="92.5" height="20" as="geometry" />
        </mxCell>
        <mxCell id="bA_C_CA7xueAo-WzbrrJ-189" value="" style="verticalLabelPosition=bottom;shadow=0;dashed=0;align=center;html=1;verticalAlign=top;strokeWidth=1;shape=mxgraph.mockup.graphics.pieChart;strokeColor=#000000;parts=20,20,35;partColors=none,none,none;strokeWidth=2;partsCount=3;" vertex="1" parent="1">
          <mxGeometry x="2091" y="705.6899999999999" width="74" height="74" as="geometry" />
        </mxCell>
        <mxCell id="bA_C_CA7xueAo-WzbrrJ-190" style="edgeStyle=orthogonalEdgeStyle;rounded=1;orthogonalLoop=1;jettySize=auto;html=1;entryX=0.002;entryY=0.468;entryDx=0;entryDy=0;entryPerimeter=0;curved=0;" edge="1" parent="1" source="bA_C_CA7xueAo-WzbrrJ-77" target="bA_C_CA7xueAo-WzbrrJ-189">
          <mxGeometry relative="1" as="geometry" />
        </mxCell>
        <mxCell id="bA_C_CA7xueAo-WzbrrJ-191" style="edgeStyle=orthogonalEdgeStyle;rounded=1;orthogonalLoop=1;jettySize=auto;html=1;entryX=0.017;entryY=0.45;entryDx=0;entryDy=0;entryPerimeter=0;curved=0;" edge="1" parent="1" source="bA_C_CA7xueAo-WzbrrJ-82" target="bA_C_CA7xueAo-WzbrrJ-189">
          <mxGeometry relative="1" as="geometry" />
        </mxCell>
        <mxCell id="bA_C_CA7xueAo-WzbrrJ-192" style="edgeStyle=orthogonalEdgeStyle;rounded=1;orthogonalLoop=1;jettySize=auto;html=1;entryX=-0.007;entryY=0.475;entryDx=0;entryDy=0;entryPerimeter=0;curved=0;" edge="1" parent="1" source="bA_C_CA7xueAo-WzbrrJ-85" target="bA_C_CA7xueAo-WzbrrJ-189">
          <mxGeometry relative="1" as="geometry" />
        </mxCell>
        <mxCell id="bA_C_CA7xueAo-WzbrrJ-193" value="BTC" style="text;html=1;strokeColor=none;fillColor=none;align=center;verticalAlign=middle;whiteSpace=wrap;rounded=0;fontSize=14;" vertex="1" parent="1">
          <mxGeometry x="2127.37" y="735.3399999999999" width="40.67" height="20" as="geometry" />
        </mxCell>
        <mxCell id="bA_C_CA7xueAo-WzbrrJ-197" value="XRP" style="text;html=1;strokeColor=none;fillColor=none;align=center;verticalAlign=middle;whiteSpace=wrap;rounded=0;fontSize=14;" vertex="1" parent="1">
          <mxGeometry x="2091" y="723.69" width="40.67" height="20" as="geometry" />
        </mxCell>
        <mxCell id="bA_C_CA7xueAo-WzbrrJ-201" value="ETH" style="text;html=1;strokeColor=none;fillColor=none;align=center;verticalAlign=middle;whiteSpace=wrap;rounded=0;fontSize=14;" vertex="1" parent="1">
          <mxGeometry x="2096.37" y="753" width="40.67" height="20" as="geometry" />
        </mxCell>
        <mxCell id="bA_C_CA7xueAo-WzbrrJ-202" value="" style="verticalLabelPosition=bottom;shadow=0;dashed=0;align=center;html=1;verticalAlign=top;strokeWidth=1;shape=mxgraph.mockup.graphics.pieChart;strokeColor=#000000;parts=20,20,30,30;partColors=none,none,none,#FFFFFF;strokeWidth=2;partsCount=4;" vertex="1" parent="1">
          <mxGeometry x="2207.56" y="680" width="80" height="80" as="geometry" />
        </mxCell>
        <mxCell id="bA_C_CA7xueAo-WzbrrJ-203" value="BTC" style="text;html=1;strokeColor=none;fillColor=none;align=center;verticalAlign=middle;whiteSpace=wrap;rounded=0;fontSize=14;" vertex="1" parent="1">
          <mxGeometry x="2247.22" y="699.9999999999999" width="40.67" height="20" as="geometry" />
        </mxCell>
        <mxCell id="bA_C_CA7xueAo-WzbrrJ-204" value="ETH" style="text;html=1;strokeColor=none;fillColor=none;align=center;verticalAlign=middle;whiteSpace=wrap;rounded=0;fontSize=14;" vertex="1" parent="1">
          <mxGeometry x="2238.68" y="730" width="40.67" height="20" as="geometry" />
        </mxCell>
        <mxCell id="bA_C_CA7xueAo-WzbrrJ-205" value="XRP" style="text;html=1;strokeColor=none;fillColor=none;align=center;verticalAlign=middle;whiteSpace=wrap;rounded=0;fontSize=14;" vertex="1" parent="1">
          <mxGeometry x="2214.01" y="690" width="40.67" height="20" as="geometry" />
        </mxCell>
        <mxCell id="bA_C_CA7xueAo-WzbrrJ-206" value="Cash" style="text;html=1;strokeColor=none;fillColor=none;align=center;verticalAlign=middle;whiteSpace=wrap;rounded=0;fontSize=14;" vertex="1" parent="1">
          <mxGeometry x="2204.67" y="717" width="40.67" height="20" as="geometry" />
        </mxCell>
        <mxCell id="bA_C_CA7xueAo-WzbrrJ-216" value="" style="endArrow=classic;html=1;rounded=0;" edge="1" parent="1">
          <mxGeometry width="50" height="50" relative="1" as="geometry">
            <mxPoint x="1131" y="530" as="sourcePoint" />
            <mxPoint x="1131.0400000000002" y="569.6600000000001" as="targetPoint" />
          </mxGeometry>
        </mxCell>
        <mxCell id="bA_C_CA7xueAo-WzbrrJ-217" value="" style="endArrow=classic;html=1;rounded=0;" edge="1" parent="1">
          <mxGeometry width="50" height="50" relative="1" as="geometry">
            <mxPoint x="1496.65" y="529.68" as="sourcePoint" />
            <mxPoint x="1496.69" y="569.34" as="targetPoint" />
          </mxGeometry>
        </mxCell>
        <mxCell id="bA_C_CA7xueAo-WzbrrJ-219" value="" style="endArrow=classic;html=1;rounded=0;" edge="1" parent="1">
          <mxGeometry width="50" height="50" relative="1" as="geometry">
            <mxPoint x="1838.65" y="531.68" as="sourcePoint" />
            <mxPoint x="1838.69" y="571.34" as="targetPoint" />
          </mxGeometry>
        </mxCell>
        <mxCell id="bA_C_CA7xueAo-WzbrrJ-220" value="Processed Data" style="text;html=1;strokeColor=none;fillColor=none;align=center;verticalAlign=middle;whiteSpace=wrap;rounded=0;fontSize=14;" vertex="1" parent="1">
          <mxGeometry x="1130.63" y="540" width="92.5" height="20" as="geometry" />
        </mxCell>
        <mxCell id="bA_C_CA7xueAo-WzbrrJ-226" value="Final Portfolio" style="text;html=1;strokeColor=none;fillColor=none;align=center;verticalAlign=middle;whiteSpace=wrap;rounded=0;fontSize=14;" vertex="1" parent="1">
          <mxGeometry x="2207.5600000000004" y="636.3399999999999" width="80.67" height="20" as="geometry" />
        </mxCell>
      </root>
    </mxGraphModel>
  </diagram>
</mxfile>
